<svg width="189" height="148" viewBox="0 0 189 148" fill="none" xmlns="http://www.w3.org/2000/svg">
<path d="M56.6963 6.15039H60.5107C62.2803 6.15039 63.5576 6.4082 64.3428 6.92383C65.1338 7.43945 65.5293 8.25391 65.5293 9.36719C65.5293 10.1172 65.3359 10.7412 64.9492 11.2393C64.5625 11.7373 64.0059 12.0508 63.2793 12.1797V12.2676C64.1816 12.4375 64.8438 12.7744 65.2656 13.2783C65.6934 13.7764 65.9072 14.4531 65.9072 15.3086C65.9072 16.4629 65.5029 17.3682 64.6943 18.0244C63.8916 18.6748 62.7725 19 61.3369 19H56.6963V6.15039ZM58.7969 11.459H60.8184C61.6973 11.459 62.3389 11.3213 62.7432 11.0459C63.1475 10.7646 63.3496 10.29 63.3496 9.62207C63.3496 9.01855 63.1299 8.58203 62.6904 8.3125C62.2568 8.04297 61.5654 7.9082 60.6162 7.9082H58.7969V11.459ZM58.7969 13.1641V17.2334H61.0293C61.9082 17.2334 62.5703 17.0664 63.0156 16.7324C63.4668 16.3926 63.6924 15.8594 63.6924 15.1328C63.6924 14.4648 63.4639 13.9697 63.0068 13.6475C62.5498 13.3252 61.8555 13.1641 60.9238 13.1641H58.7969ZM70.6797 12.127H72.1387C73.1172 12.127 73.8262 11.9453 74.2656 11.582C74.7051 11.2188 74.9248 10.6797 74.9248 9.96484C74.9248 9.23828 74.6875 8.7168 74.2129 8.40039C73.7383 8.08398 73.0234 7.92578 72.0684 7.92578H70.6797V12.127ZM70.6797 13.8672V19H68.5791V6.15039H72.209C73.8672 6.15039 75.0947 6.46094 75.8916 7.08203C76.6885 7.70313 77.0869 8.64062 77.0869 9.89453C77.0869 11.4941 76.2549 12.6338 74.5908 13.3135L78.2207 19H75.8301L72.7539 13.8672H70.6797ZM88.0645 19L86.7812 15.4316H81.8682L80.6113 19H78.3965L83.2041 6.09766H85.4893L90.2969 19H88.0645ZM86.2275 13.6211L85.0234 10.123C84.9355 9.88867 84.8125 9.51953 84.6543 9.01562C84.502 8.51172 84.3965 8.14258 84.3379 7.9082C84.1797 8.62891 83.9482 9.41699 83.6436 10.2725L82.4834 13.6211H86.2275ZM102.698 19H100.123L93.8037 8.76074H93.7334L93.7773 9.33203C93.8594 10.4219 93.9004 11.418 93.9004 12.3203V19H91.9932V6.15039H94.542L100.844 16.3369H100.896C100.885 16.2021 100.861 15.7129 100.826 14.8691C100.791 14.0195 100.773 13.3574 100.773 12.8828V6.15039H102.698V19ZM116.541 12.4521C116.541 14.5732 115.952 16.1963 114.774 17.3213C113.597 18.4404 111.9 19 109.686 19H106.091V6.15039H110.063C112.108 6.15039 113.699 6.70117 114.836 7.80273C115.973 8.9043 116.541 10.4541 116.541 12.4521ZM114.326 12.5225C114.326 9.44629 112.888 7.9082 110.011 7.9082H108.191V17.2334H109.686C112.779 17.2334 114.326 15.6631 114.326 12.5225Z" fill="white"/>
<path d="M77.24 98L75.384 91.792H59.96L58.104 98H43.64L59.704 53.968H76.152L92.216 98H77.24ZM62.904 81.936H72.44L67.832 66.256H67.576L62.904 81.936ZM113.357 63.44C118.519 63.44 122.722 64.3147 125.965 66.064C129.207 67.7707 130.829 70.5653 130.829 74.448V87.632C130.829 88.3573 130.999 88.9547 131.341 89.424C131.682 89.8933 132.194 90.128 132.877 90.128H135.181V97.488C135.053 97.5733 134.711 97.7227 134.157 97.936C133.645 98.1067 132.898 98.2773 131.917 98.448C130.935 98.6613 129.805 98.768 128.525 98.768C126.05 98.768 124.002 98.4053 122.381 97.68C120.802 96.912 119.714 95.8667 119.117 94.544C117.495 95.824 115.682 96.848 113.677 97.616C111.671 98.384 109.325 98.768 106.637 98.768C98.7005 98.768 94.7325 95.6107 94.7325 89.296C94.7325 86.0107 95.6072 83.5147 97.3565 81.808C99.1485 80.0587 101.709 78.864 105.037 78.224C108.365 77.584 112.717 77.264 118.093 77.264V75.6C118.093 74.2773 117.623 73.2747 116.685 72.592C115.789 71.9093 114.615 71.568 113.165 71.568C111.842 71.568 110.69 71.8027 109.708 72.272C108.77 72.7413 108.301 73.488 108.301 74.512V74.768H95.7565C95.7138 74.5547 95.6925 74.256 95.6925 73.872C95.6925 70.672 97.2072 68.1333 100.237 66.256C103.309 64.3787 107.682 63.44 113.357 63.44ZM118.093 83.28C114.466 83.28 111.778 83.6853 110.029 84.496C108.322 85.264 107.469 86.3093 107.469 87.632C107.469 89.7653 108.919 90.832 111.821 90.832C113.485 90.832 114.935 90.384 116.173 89.488C117.453 88.592 118.093 87.4827 118.093 86.16V83.28Z" fill="#F9F9F9"/>
<path d="M7.51953 138L6.52148 135.225H2.7002L1.72266 138H0L3.73926 127.965H5.5166L9.25586 138H7.51953ZM6.09082 133.816L5.1543 131.096C5.08594 130.913 4.99023 130.626 4.86719 130.234C4.7487 129.842 4.66667 129.555 4.62109 129.373C4.49805 129.934 4.31803 130.547 4.08105 131.212L3.17871 133.816H6.09082ZM12.209 132.654H13.3438C14.1048 132.654 14.6562 132.513 14.998 132.23C15.3398 131.948 15.5107 131.529 15.5107 130.973C15.5107 130.408 15.3262 130.002 14.957 129.756C14.5879 129.51 14.0319 129.387 13.2891 129.387H12.209V132.654ZM12.209 134.008V138H10.5752V128.006H13.3984C14.6882 128.006 15.6429 128.247 16.2627 128.73C16.8825 129.214 17.1924 129.943 17.1924 130.918C17.1924 132.162 16.5452 133.049 15.251 133.577L18.0742 138H16.2148L13.8223 134.008H12.209ZM23.7822 129.264C22.8434 129.264 22.1051 129.596 21.5674 130.262C21.0296 130.927 20.7607 131.845 20.7607 133.017C20.7607 134.243 21.0182 135.17 21.5332 135.799C22.0527 136.428 22.8024 136.742 23.7822 136.742C24.2061 136.742 24.6162 136.701 25.0127 136.619C25.4092 136.533 25.8216 136.423 26.25 136.291V137.692C25.4661 137.989 24.5775 138.137 23.584 138.137C22.1211 138.137 20.9977 137.695 20.2139 136.811C19.43 135.922 19.0381 134.653 19.0381 133.003C19.0381 131.964 19.2272 131.055 19.6055 130.275C19.9883 129.496 20.5397 128.899 21.2598 128.484C21.9798 128.07 22.8252 127.862 23.7959 127.862C24.8167 127.862 25.7601 128.076 26.626 128.505L26.0381 129.865C25.7008 129.706 25.3431 129.567 24.9648 129.448C24.5911 129.325 24.1969 129.264 23.7822 129.264ZM36.2852 138H34.6445V133.495H30.0371V138H28.4033V128.006H30.0371V132.094H34.6445V128.006H36.2852V138ZM38.917 138V128.006H40.5508V138H38.917ZM48.8906 128.006H50.5859L47.0859 138H45.3633L41.877 128.006H43.5586L45.6436 134.22C45.7529 134.516 45.8691 134.899 45.9922 135.368C46.1152 135.833 46.195 136.179 46.2314 136.407C46.2907 136.061 46.3818 135.66 46.5049 135.204C46.6279 134.748 46.7282 134.411 46.8057 134.192L48.8906 128.006ZM60.7783 132.989C60.7783 134.616 60.3704 135.881 59.5547 136.783C58.7435 137.686 57.5928 138.137 56.1025 138.137C54.5941 138.137 53.4342 137.69 52.623 136.797C51.8164 135.899 51.4131 134.625 51.4131 132.976C51.4131 131.326 51.8187 130.059 52.6299 129.175C53.4456 128.291 54.6077 127.849 56.1162 127.849C57.6019 127.849 58.7503 128.298 59.5615 129.195C60.3727 130.093 60.7783 131.358 60.7783 132.989ZM53.1494 132.989C53.1494 134.22 53.3978 135.154 53.8945 135.792C54.3913 136.425 55.1273 136.742 56.1025 136.742C57.0732 136.742 57.8047 136.428 58.2969 135.799C58.7936 135.17 59.042 134.233 59.042 132.989C59.042 131.763 58.7959 130.834 58.3037 130.2C57.8161 129.567 57.0869 129.25 56.1162 129.25C55.1364 129.25 54.3958 129.567 53.8945 130.2C53.3978 130.834 53.1494 131.763 53.1494 132.989ZM66.5615 128.006H69.5283C70.9046 128.006 71.8981 128.206 72.5088 128.607C73.124 129.008 73.4316 129.642 73.4316 130.508C73.4316 131.091 73.2812 131.576 72.9805 131.964C72.6797 132.351 72.2467 132.595 71.6816 132.695V132.764C72.3835 132.896 72.8984 133.158 73.2266 133.55C73.5592 133.937 73.7256 134.464 73.7256 135.129C73.7256 136.027 73.4111 136.731 72.7822 137.241C72.1579 137.747 71.2874 138 70.1709 138H66.5615V128.006ZM68.1953 132.135H69.7676C70.4512 132.135 70.9502 132.028 71.2646 131.813C71.5791 131.595 71.7363 131.226 71.7363 130.706C71.7363 130.237 71.5654 129.897 71.2236 129.688C70.8864 129.478 70.3486 129.373 69.6104 129.373H68.1953V132.135ZM68.1953 133.461V136.626H69.9316C70.6152 136.626 71.1302 136.496 71.4766 136.236C71.8275 135.972 72.0029 135.557 72.0029 134.992C72.0029 134.473 71.8252 134.088 71.4697 133.837C71.1143 133.586 70.5742 133.461 69.8496 133.461H68.1953ZM75.8037 138V128.006H77.4375V136.599H81.6689V138H75.8037ZM89.5918 138L88.5938 135.225H84.7725L83.7949 138H82.0723L85.8115 127.965H87.5889L91.3281 138H89.5918ZM88.1631 133.816L87.2266 131.096C87.1582 130.913 87.0625 130.626 86.9395 130.234C86.821 129.842 86.7389 129.555 86.6934 129.373C86.5703 129.934 86.3903 130.547 86.1533 131.212L85.251 133.816H88.1631ZM96.8994 129.264C95.9606 129.264 95.2223 129.596 94.6846 130.262C94.1468 130.927 93.8779 131.845 93.8779 133.017C93.8779 134.243 94.1354 135.17 94.6504 135.799C95.1699 136.428 95.9196 136.742 96.8994 136.742C97.3232 136.742 97.7334 136.701 98.1299 136.619C98.5264 136.533 98.9388 136.423 99.3672 136.291V137.692C98.5833 137.989 97.6947 138.137 96.7012 138.137C95.2383 138.137 94.1149 137.695 93.3311 136.811C92.5472 135.922 92.1553 134.653 92.1553 133.003C92.1553 131.964 92.3444 131.055 92.7227 130.275C93.1055 129.496 93.6569 128.899 94.377 128.484C95.097 128.07 95.9424 127.862 96.9131 127.862C97.9339 127.862 98.8773 128.076 99.7432 128.505L99.1553 129.865C98.818 129.706 98.4603 129.567 98.082 129.448C97.7083 129.325 97.3141 129.264 96.8994 129.264ZM109.149 138H107.256L104.118 133.475L103.154 134.261V138H101.521V128.006H103.154V132.777C103.601 132.23 104.045 131.704 104.487 131.198L107.188 128.006H109.047C107.301 130.057 106.05 131.517 105.294 132.388L109.149 138ZM111.973 136.53C111.754 137.378 111.353 138.469 110.77 139.805H109.587C109.901 138.574 110.136 137.43 110.291 136.373H111.87L111.973 136.53ZM119.492 132.654H120.627C121.388 132.654 121.939 132.513 122.281 132.23C122.623 131.948 122.794 131.529 122.794 130.973C122.794 130.408 122.609 130.002 122.24 129.756C121.871 129.51 121.315 129.387 120.572 129.387H119.492V132.654ZM119.492 134.008V138H117.858V128.006H120.682C121.971 128.006 122.926 128.247 123.546 128.73C124.166 129.214 124.476 129.943 124.476 130.918C124.476 132.162 123.828 133.049 122.534 133.577L125.357 138H123.498L121.105 134.008H119.492ZM132.467 138H126.813V128.006H132.467V129.387H128.447V132.107H132.214V133.475H128.447V136.612H132.467V138ZM138.722 132.579H142.399V137.597C141.798 137.793 141.219 137.932 140.663 138.014C140.112 138.096 139.515 138.137 138.872 138.137C137.359 138.137 136.192 137.69 135.372 136.797C134.552 135.899 134.142 134.634 134.142 133.003C134.142 131.394 134.604 130.136 135.529 129.229C136.454 128.318 137.728 127.862 139.351 127.862C140.394 127.862 141.383 128.063 142.317 128.464L141.743 129.824C140.932 129.451 140.121 129.264 139.31 129.264C138.243 129.264 137.4 129.599 136.78 130.269C136.16 130.938 135.851 131.854 135.851 133.017C135.851 134.238 136.129 135.168 136.685 135.806C137.245 136.439 138.049 136.756 139.098 136.756C139.626 136.756 140.191 136.69 140.793 136.558V133.98H138.722V132.579ZM152.64 128.006V134.473C152.64 135.211 152.48 135.858 152.161 136.414C151.847 136.965 151.389 137.392 150.787 137.692C150.19 137.989 149.475 138.137 148.641 138.137C147.401 138.137 146.437 137.809 145.749 137.152C145.061 136.496 144.717 135.594 144.717 134.445V128.006H146.357V134.329C146.357 135.154 146.549 135.762 146.932 136.154C147.314 136.546 147.902 136.742 148.695 136.742C150.236 136.742 151.006 135.933 151.006 134.315V128.006H152.64ZM155.196 138V128.006H156.83V136.599H161.062V138H155.196ZM168.984 138L167.986 135.225H164.165L163.188 138H161.465L165.204 127.965H166.981L170.721 138H168.984ZM167.556 133.816L166.619 131.096C166.551 130.913 166.455 130.626 166.332 130.234C166.214 129.842 166.132 129.555 166.086 129.373C165.963 129.934 165.783 130.547 165.546 131.212L164.644 133.816H167.556ZM173.674 132.654H174.809C175.57 132.654 176.121 132.513 176.463 132.23C176.805 131.948 176.976 131.529 176.976 130.973C176.976 130.408 176.791 130.002 176.422 129.756C176.053 129.51 175.497 129.387 174.754 129.387H173.674V132.654ZM173.674 134.008V138H172.04V128.006H174.863C176.153 128.006 177.108 128.247 177.728 128.73C178.347 129.214 178.657 129.943 178.657 130.918C178.657 132.162 178.01 133.049 176.716 133.577L179.539 138H177.68L175.287 134.008H173.674Z" fill="#F9F9F9"/>
</svg>
