<svg width="310" height="800" viewBox="0 0 310 800" fill="none" xmlns="http://www.w3.org/2000/svg">
<rect width="140" height="140" rx="50" fill="#E63C34"/>
<path d="M41.6113 163.582L41.1982 165.621H43.4658V167.432H40.8555L40.1787 171H38.2451L38.9307 167.432H37.2256L36.5576 171H34.668L35.3184 167.432H33.2266V165.621H35.6611L36.0742 163.582H33.8594V161.745H36.3994L37.0762 158.168H39.001L38.3242 161.745H40.0645L40.75 158.168H42.6396L41.9541 161.745H44.0635V163.582H41.6113ZM37.5684 165.621H39.291L39.7041 163.582H37.9814L37.5684 165.621ZM53.4854 171H46.085V158.15H53.4854V160.383H48.8096V163.204H53.1602V165.437H48.8096V168.75H53.4854V171ZM55.1904 165.542C55.1904 162.999 55.7266 161.106 56.7988 159.864C57.877 158.622 59.4883 158.001 61.6328 158.001C62.3652 158.001 62.9395 158.045 63.3555 158.133V160.304C62.834 160.187 62.3184 160.128 61.8086 160.128C60.877 160.128 60.1152 160.269 59.5234 160.55C58.9375 160.831 58.498 161.247 58.2051 161.798C57.9121 162.349 57.7393 163.131 57.6865 164.145H57.8008C58.3809 163.148 59.3096 162.65 60.5869 162.65C61.7354 162.65 62.6348 163.011 63.2852 163.731C63.9355 164.452 64.2607 165.448 64.2607 166.72C64.2607 168.091 63.874 169.178 63.1006 169.98C62.3271 170.777 61.2549 171.176 59.8838 171.176C58.9346 171.176 58.1055 170.956 57.3965 170.517C56.6934 170.077 56.1484 169.436 55.7617 168.592C55.3809 167.748 55.1904 166.731 55.1904 165.542ZM59.8311 169.005C60.4111 169.005 60.8564 168.812 61.167 168.425C61.4775 168.032 61.6328 167.476 61.6328 166.755C61.6328 166.128 61.4863 165.636 61.1934 165.278C60.9062 164.915 60.4697 164.733 59.8838 164.733C59.333 164.733 58.8613 164.912 58.4688 165.27C58.082 165.627 57.8887 166.043 57.8887 166.518C57.8887 167.215 58.0703 167.804 58.4336 168.284C58.8027 168.765 59.2686 169.005 59.8311 169.005ZM74.043 161.024C74.043 161.827 73.7998 162.51 73.3135 163.072C72.8271 163.635 72.1445 164.021 71.2656 164.232V164.285C72.3027 164.414 73.0879 164.73 73.6211 165.234C74.1543 165.732 74.4209 166.406 74.4209 167.256C74.4209 168.492 73.9727 169.456 73.0762 170.147C72.1797 170.833 70.8994 171.176 69.2354 171.176C67.8408 171.176 66.6045 170.944 65.5264 170.481V168.17C66.0244 168.422 66.5723 168.627 67.1699 168.785C67.7676 168.943 68.3594 169.022 68.9453 169.022C69.8418 169.022 70.5039 168.87 70.9316 168.565C71.3594 168.261 71.5732 167.771 71.5732 167.098C71.5732 166.494 71.3271 166.066 70.835 165.814C70.3428 165.562 69.5576 165.437 68.4795 165.437H67.5039V163.354H68.4971C69.4932 163.354 70.2197 163.225 70.6768 162.967C71.1396 162.703 71.3711 162.255 71.3711 161.622C71.3711 160.649 70.7617 160.163 69.543 160.163C69.1211 160.163 68.6904 160.233 68.251 160.374C67.8174 160.515 67.334 160.758 66.8008 161.104L65.5439 159.231C66.7158 158.388 68.1133 157.966 69.7363 157.966C71.0664 157.966 72.1152 158.235 72.8828 158.774C73.6562 159.313 74.043 160.063 74.043 161.024ZM82.1992 160.233C81.1738 160.233 80.3799 160.62 79.8174 161.394C79.2549 162.161 78.9736 163.233 78.9736 164.61C78.9736 167.476 80.0488 168.908 82.1992 168.908C83.1016 168.908 84.1943 168.683 85.4775 168.231V170.517C84.4229 170.956 83.2451 171.176 81.9443 171.176C80.0752 171.176 78.6455 170.61 77.6553 169.479C76.665 168.343 76.1699 166.714 76.1699 164.593C76.1699 163.257 76.4131 162.088 76.8994 161.086C77.3857 160.078 78.083 159.308 78.9912 158.774C79.9053 158.235 80.9746 157.966 82.1992 157.966C83.4473 157.966 84.7012 158.268 85.9609 158.871L85.082 161.086C84.6016 160.857 84.1182 160.658 83.6318 160.488C83.1455 160.318 82.668 160.233 82.1992 160.233ZM95.8047 161.024C95.8047 161.827 95.5615 162.51 95.0752 163.072C94.5889 163.635 93.9062 164.021 93.0273 164.232V164.285C94.0645 164.414 94.8496 164.73 95.3828 165.234C95.916 165.732 96.1826 166.406 96.1826 167.256C96.1826 168.492 95.7344 169.456 94.8379 170.147C93.9414 170.833 92.6611 171.176 90.9971 171.176C89.6025 171.176 88.3662 170.944 87.2881 170.481V168.17C87.7861 168.422 88.334 168.627 88.9316 168.785C89.5293 168.943 90.1211 169.022 90.707 169.022C91.6035 169.022 92.2656 168.87 92.6934 168.565C93.1211 168.261 93.335 167.771 93.335 167.098C93.335 166.494 93.0889 166.066 92.5967 165.814C92.1045 165.562 91.3193 165.437 90.2412 165.437H89.2656V163.354H90.2588C91.2549 163.354 91.9814 163.225 92.4385 162.967C92.9014 162.703 93.1328 162.255 93.1328 161.622C93.1328 160.649 92.5234 160.163 91.3047 160.163C90.8828 160.163 90.4521 160.233 90.0127 160.374C89.5791 160.515 89.0957 160.758 88.5625 161.104L87.3057 159.231C88.4775 158.388 89.875 157.966 91.498 157.966C92.8281 157.966 93.877 158.235 94.6445 158.774C95.418 159.313 95.8047 160.063 95.8047 161.024ZM106.879 168.337H105.332V171H102.678V168.337H97.1934V166.447L102.827 158.15H105.332V166.228H106.879V168.337ZM102.678 166.228V164.048C102.678 163.685 102.692 163.157 102.722 162.466C102.751 161.774 102.774 161.373 102.792 161.262H102.722C102.505 161.742 102.244 162.211 101.939 162.668L99.584 166.228H102.678Z" fill="#1F3948"/>
<rect x="170" width="140" height="140" rx="50" fill="#E8E016"/>
<path d="M212.306 163.582L211.893 165.621H214.16V167.432H211.55L210.873 171H208.939L209.625 167.432H207.92L207.252 171H205.362L206.013 167.432H203.921V165.621H206.355L206.769 163.582H204.554V161.745H207.094L207.771 158.168H209.695L209.019 161.745H210.759L211.444 158.168H213.334L212.648 161.745H214.758V163.582H212.306ZM208.263 165.621H209.985L210.398 163.582H208.676L208.263 165.621ZM224.18 171H216.779V158.15H224.18V160.383H219.504V163.204H223.854V165.437H219.504V168.75H224.18V171ZM230.402 157.983C231.633 157.983 232.623 158.265 233.373 158.827C234.129 159.384 234.507 160.137 234.507 161.086C234.507 161.742 234.325 162.328 233.962 162.844C233.599 163.354 233.013 163.811 232.204 164.215C233.165 164.73 233.854 165.27 234.27 165.832C234.691 166.389 234.902 167.001 234.902 167.669C234.902 168.724 234.489 169.573 233.663 170.218C232.837 170.856 231.75 171.176 230.402 171.176C228.996 171.176 227.892 170.877 227.089 170.279C226.286 169.682 225.885 168.835 225.885 167.739C225.885 167.007 226.078 166.356 226.465 165.788C226.857 165.22 227.484 164.719 228.346 164.285C227.613 163.822 227.086 163.327 226.764 162.8C226.441 162.272 226.28 161.695 226.28 161.068C226.28 160.148 226.661 159.404 227.423 158.836C228.185 158.268 229.178 157.983 230.402 157.983ZM228.398 167.581C228.398 168.085 228.574 168.478 228.926 168.759C229.277 169.04 229.758 169.181 230.367 169.181C231.041 169.181 231.545 169.037 231.879 168.75C232.213 168.457 232.38 168.073 232.38 167.599C232.38 167.206 232.213 166.84 231.879 166.5C231.551 166.154 231.015 165.788 230.271 165.401C229.022 165.976 228.398 166.702 228.398 167.581ZM230.385 159.97C229.922 159.97 229.547 160.09 229.26 160.33C228.979 160.564 228.838 160.881 228.838 161.279C228.838 161.631 228.949 161.947 229.172 162.229C229.4 162.504 229.811 162.788 230.402 163.081C230.977 162.812 231.378 162.536 231.606 162.255C231.835 161.974 231.949 161.648 231.949 161.279C231.949 160.875 231.803 160.556 231.51 160.321C231.217 160.087 230.842 159.97 230.385 159.97ZM244.553 171H237.152V158.15H244.553V160.383H239.877V163.204H244.228V165.437H239.877V168.75H244.553V171ZM255.258 164.575C255.258 166.819 254.889 168.48 254.15 169.559C253.418 170.637 252.287 171.176 250.758 171.176C249.275 171.176 248.156 170.619 247.4 169.506C246.65 168.393 246.275 166.749 246.275 164.575C246.275 162.308 246.642 160.638 247.374 159.565C248.106 158.487 249.234 157.948 250.758 157.948C252.24 157.948 253.359 158.511 254.115 159.636C254.877 160.761 255.258 162.407 255.258 164.575ZM248.974 164.575C248.974 166.151 249.108 167.282 249.378 167.968C249.653 168.647 250.113 168.987 250.758 168.987C251.391 168.987 251.848 168.642 252.129 167.95C252.41 167.259 252.551 166.134 252.551 164.575C252.551 162.999 252.407 161.868 252.12 161.183C251.839 160.491 251.385 160.146 250.758 160.146C250.119 160.146 249.662 160.491 249.387 161.183C249.111 161.868 248.974 162.999 248.974 164.575ZM263.344 171H260.628V163.564L260.654 162.343L260.698 161.007C260.247 161.458 259.934 161.754 259.758 161.895L258.281 163.081L256.972 161.446L261.111 158.15H263.344V171ZM266.824 165.542C266.824 162.999 267.36 161.106 268.433 159.864C269.511 158.622 271.122 158.001 273.267 158.001C273.999 158.001 274.573 158.045 274.989 158.133V160.304C274.468 160.187 273.952 160.128 273.442 160.128C272.511 160.128 271.749 160.269 271.157 160.55C270.571 160.831 270.132 161.247 269.839 161.798C269.546 162.349 269.373 163.131 269.32 164.145H269.435C270.015 163.148 270.943 162.65 272.221 162.65C273.369 162.65 274.269 163.011 274.919 163.731C275.569 164.452 275.895 165.448 275.895 166.72C275.895 168.091 275.508 169.178 274.734 169.98C273.961 170.777 272.889 171.176 271.518 171.176C270.568 171.176 269.739 170.956 269.03 170.517C268.327 170.077 267.782 169.436 267.396 168.592C267.015 167.748 266.824 166.731 266.824 165.542ZM271.465 169.005C272.045 169.005 272.49 168.812 272.801 168.425C273.111 168.032 273.267 167.476 273.267 166.755C273.267 166.128 273.12 165.636 272.827 165.278C272.54 164.915 272.104 164.733 271.518 164.733C270.967 164.733 270.495 164.912 270.103 165.27C269.716 165.627 269.522 166.043 269.522 166.518C269.522 167.215 269.704 167.804 270.067 168.284C270.437 168.765 270.902 169.005 271.465 169.005Z" fill="#1F3948"/>
<rect y="208" width="140" height="140" rx="50" fill="#277177"/>
<path d="M42.1123 371.582L41.6992 373.621H43.9668V375.432H41.3564L40.6797 379H38.7461L39.4316 375.432H37.7266L37.0586 379H35.1689L35.8193 375.432H33.7275V373.621H36.1621L36.5752 371.582H34.3604V369.745H36.9004L37.5771 366.168H39.502L38.8252 369.745H40.5654L41.251 366.168H43.1406L42.4551 369.745H44.5645V371.582H42.1123ZM38.0693 373.621H39.792L40.2051 371.582H38.4824L38.0693 373.621ZM54.6719 379H45.6895V377.11L48.915 373.85C49.8701 372.871 50.4941 372.194 50.7871 371.819C51.0801 371.438 51.291 371.087 51.4199 370.765C51.5488 370.442 51.6133 370.108 51.6133 369.763C51.6133 369.247 51.4697 368.863 51.1826 368.611C50.9014 368.359 50.5234 368.233 50.0488 368.233C49.5508 368.233 49.0674 368.348 48.5986 368.576C48.1299 368.805 47.6406 369.13 47.1309 369.552L45.6543 367.803C46.2871 367.264 46.8115 366.883 47.2275 366.66C47.6436 366.438 48.0977 366.268 48.5898 366.15C49.082 366.027 49.6328 365.966 50.2422 365.966C51.0449 365.966 51.7539 366.112 52.3691 366.405C52.9844 366.698 53.4619 367.108 53.8018 367.636C54.1416 368.163 54.3115 368.767 54.3115 369.446C54.3115 370.038 54.2061 370.595 53.9951 371.116C53.79 371.632 53.4678 372.162 53.0283 372.707C52.5947 373.252 51.8271 374.028 50.7256 375.036L49.0732 376.592V376.715H54.6719V379ZM57.2471 379L62.0723 368.453H55.7354V366.168H64.9551V367.873L60.0947 379H57.2471ZM67.5303 379L72.3555 368.453H66.0186V366.168H75.2383V367.873L70.3779 379H67.5303ZM83.2539 379H80.5381V371.564L80.5645 370.343L80.6084 369.007C80.1572 369.458 79.8438 369.754 79.668 369.895L78.1914 371.081L76.8818 369.446L81.0215 366.15H83.2539V379ZM88.0967 379L92.9219 368.453H86.585V366.168H95.8047V367.873L90.9443 379H88.0967ZM98.3799 379L103.205 368.453H96.8682V366.168H106.088V367.873L101.228 379H98.3799Z" fill="#1F3948"/>
<rect x="170" y="208" width="140" height="140" rx="50" fill="#333333"/>
<path d="M213.112 371.582L212.699 373.621H214.967V375.432H212.356L211.68 379H209.746L210.432 375.432H208.727L208.059 379H206.169L206.819 375.432H204.728V373.621H207.162L207.575 371.582H205.36V369.745H207.9L208.577 366.168H210.502L209.825 369.745H211.565L212.251 366.168H214.141L213.455 369.745H215.564V371.582H213.112ZM209.069 373.621H210.792L211.205 371.582H209.482L209.069 373.621ZM225.171 369.024C225.171 369.827 224.928 370.51 224.441 371.072C223.955 371.635 223.272 372.021 222.394 372.232V372.285C223.431 372.414 224.216 372.73 224.749 373.234C225.282 373.732 225.549 374.406 225.549 375.256C225.549 376.492 225.101 377.456 224.204 378.147C223.308 378.833 222.027 379.176 220.363 379.176C218.969 379.176 217.732 378.944 216.654 378.481V376.17C217.152 376.422 217.7 376.627 218.298 376.785C218.896 376.943 219.487 377.022 220.073 377.022C220.97 377.022 221.632 376.87 222.06 376.565C222.487 376.261 222.701 375.771 222.701 375.098C222.701 374.494 222.455 374.066 221.963 373.814C221.471 373.562 220.686 373.437 219.607 373.437H218.632V371.354H219.625C220.621 371.354 221.348 371.225 221.805 370.967C222.268 370.703 222.499 370.255 222.499 369.622C222.499 368.649 221.89 368.163 220.671 368.163C220.249 368.163 219.818 368.233 219.379 368.374C218.945 368.515 218.462 368.758 217.929 369.104L216.672 367.231C217.844 366.388 219.241 365.966 220.864 365.966C222.194 365.966 223.243 366.235 224.011 366.774C224.784 367.313 225.171 368.063 225.171 369.024ZM235.454 369.024C235.454 369.827 235.211 370.51 234.725 371.072C234.238 371.635 233.556 372.021 232.677 372.232V372.285C233.714 372.414 234.499 372.73 235.032 373.234C235.565 373.732 235.832 374.406 235.832 375.256C235.832 376.492 235.384 377.456 234.487 378.147C233.591 378.833 232.311 379.176 230.646 379.176C229.252 379.176 228.016 378.944 226.938 378.481V376.17C227.436 376.422 227.983 376.627 228.581 376.785C229.179 376.943 229.771 377.022 230.356 377.022C231.253 377.022 231.915 376.87 232.343 376.565C232.771 376.261 232.984 375.771 232.984 375.098C232.984 374.494 232.738 374.066 232.246 373.814C231.754 373.562 230.969 373.437 229.891 373.437H228.915V371.354H229.908C230.904 371.354 231.631 371.225 232.088 370.967C232.551 370.703 232.782 370.255 232.782 369.622C232.782 368.649 232.173 368.163 230.954 368.163C230.532 368.163 230.102 368.233 229.662 368.374C229.229 368.515 228.745 368.758 228.212 369.104L226.955 367.231C228.127 366.388 229.524 365.966 231.147 365.966C232.478 365.966 233.526 366.235 234.294 366.774C235.067 367.313 235.454 368.063 235.454 369.024ZM245.737 369.024C245.737 369.827 245.494 370.51 245.008 371.072C244.521 371.635 243.839 372.021 242.96 372.232V372.285C243.997 372.414 244.782 372.73 245.315 373.234C245.849 373.732 246.115 374.406 246.115 375.256C246.115 376.492 245.667 377.456 244.771 378.147C243.874 378.833 242.594 379.176 240.93 379.176C239.535 379.176 238.299 378.944 237.221 378.481V376.17C237.719 376.422 238.267 376.627 238.864 376.785C239.462 376.943 240.054 377.022 240.64 377.022C241.536 377.022 242.198 376.87 242.626 376.565C243.054 376.261 243.268 375.771 243.268 375.098C243.268 374.494 243.021 374.066 242.529 373.814C242.037 373.562 241.252 373.437 240.174 373.437H239.198V371.354H240.191C241.188 371.354 241.914 371.225 242.371 370.967C242.834 370.703 243.065 370.255 243.065 369.622C243.065 368.649 242.456 368.163 241.237 368.163C240.815 368.163 240.385 368.233 239.945 368.374C239.512 368.515 239.028 368.758 238.495 369.104L237.238 367.231C238.41 366.388 239.808 365.966 241.431 365.966C242.761 365.966 243.81 366.235 244.577 366.774C245.351 367.313 245.737 368.063 245.737 369.024ZM256.021 369.024C256.021 369.827 255.777 370.51 255.291 371.072C254.805 371.635 254.122 372.021 253.243 372.232V372.285C254.28 372.414 255.065 372.73 255.599 373.234C256.132 373.732 256.398 374.406 256.398 375.256C256.398 376.492 255.95 377.456 255.054 378.147C254.157 378.833 252.877 379.176 251.213 379.176C249.818 379.176 248.582 378.944 247.504 378.481V376.17C248.002 376.422 248.55 376.627 249.147 376.785C249.745 376.943 250.337 377.022 250.923 377.022C251.819 377.022 252.481 376.87 252.909 376.565C253.337 376.261 253.551 375.771 253.551 375.098C253.551 374.494 253.305 374.066 252.812 373.814C252.32 373.562 251.535 373.437 250.457 373.437H249.481V371.354H250.475C251.471 371.354 252.197 371.225 252.654 370.967C253.117 370.703 253.349 370.255 253.349 369.622C253.349 368.649 252.739 368.163 251.521 368.163C251.099 368.163 250.668 368.233 250.229 368.374C249.795 368.515 249.312 368.758 248.778 369.104L247.521 367.231C248.693 366.388 250.091 365.966 251.714 365.966C253.044 365.966 254.093 366.235 254.86 366.774C255.634 367.313 256.021 368.063 256.021 369.024ZM266.304 369.024C266.304 369.827 266.061 370.51 265.574 371.072C265.088 371.635 264.405 372.021 263.526 372.232V372.285C264.563 372.414 265.349 372.73 265.882 373.234C266.415 373.732 266.682 374.406 266.682 375.256C266.682 376.492 266.233 377.456 265.337 378.147C264.44 378.833 263.16 379.176 261.496 379.176C260.102 379.176 258.865 378.944 257.787 378.481V376.17C258.285 376.422 258.833 376.627 259.431 376.785C260.028 376.943 260.62 377.022 261.206 377.022C262.103 377.022 262.765 376.87 263.192 376.565C263.62 376.261 263.834 375.771 263.834 375.098C263.834 374.494 263.588 374.066 263.096 373.814C262.604 373.562 261.818 373.437 260.74 373.437H259.765V371.354H260.758C261.754 371.354 262.48 371.225 262.938 370.967C263.4 370.703 263.632 370.255 263.632 369.622C263.632 368.649 263.022 368.163 261.804 368.163C261.382 368.163 260.951 368.233 260.512 368.374C260.078 368.515 259.595 368.758 259.062 369.104L257.805 367.231C258.977 366.388 260.374 365.966 261.997 365.966C263.327 365.966 264.376 366.235 265.144 366.774C265.917 367.313 266.304 368.063 266.304 369.024ZM276.587 369.024C276.587 369.827 276.344 370.51 275.857 371.072C275.371 371.635 274.688 372.021 273.81 372.232V372.285C274.847 372.414 275.632 372.73 276.165 373.234C276.698 373.732 276.965 374.406 276.965 375.256C276.965 376.492 276.517 377.456 275.62 378.147C274.724 378.833 273.443 379.176 271.779 379.176C270.385 379.176 269.148 378.944 268.07 378.481V376.17C268.568 376.422 269.116 376.627 269.714 376.785C270.312 376.943 270.903 377.022 271.489 377.022C272.386 377.022 273.048 376.87 273.476 376.565C273.903 376.261 274.117 375.771 274.117 375.098C274.117 374.494 273.871 374.066 273.379 373.814C272.887 373.562 272.102 373.437 271.023 373.437H270.048V371.354H271.041C272.037 371.354 272.764 371.225 273.221 370.967C273.684 370.703 273.915 370.255 273.915 369.622C273.915 368.649 273.306 368.163 272.087 368.163C271.665 368.163 271.234 368.233 270.795 368.374C270.361 368.515 269.878 368.758 269.345 369.104L268.088 367.231C269.26 366.388 270.657 365.966 272.28 365.966C273.61 365.966 274.659 366.235 275.427 366.774C276.2 367.313 276.587 368.063 276.587 369.024Z" fill="#1F3948"/>
<rect y="416" width="140" height="140" rx="50" fill="#050921"/>
<path d="M42.1123 579.582L41.6992 581.621H43.9668V583.432H41.3564L40.6797 587H38.7461L39.4316 583.432H37.7266L37.0586 587H35.1689L35.8193 583.432H33.7275V581.621H36.1621L36.5752 579.582H34.3604V577.745H36.9004L37.5771 574.168H39.502L38.8252 577.745H40.5654L41.251 574.168H43.1406L42.4551 577.745H44.5645V579.582H42.1123ZM38.0693 581.621H39.792L40.2051 579.582H38.4824L38.0693 581.621ZM54.6016 580.575C54.6016 582.819 54.2324 584.48 53.4941 585.559C52.7617 586.637 51.6309 587.176 50.1016 587.176C48.6191 587.176 47.5 586.619 46.7441 585.506C45.9941 584.393 45.6191 582.749 45.6191 580.575C45.6191 578.308 45.9854 576.638 46.7178 575.565C47.4502 574.487 48.5781 573.948 50.1016 573.948C51.584 573.948 52.7031 574.511 53.459 575.636C54.2207 576.761 54.6016 578.407 54.6016 580.575ZM48.3174 580.575C48.3174 582.151 48.4521 583.282 48.7217 583.968C48.9971 584.647 49.457 584.987 50.1016 584.987C50.7344 584.987 51.1914 584.642 51.4727 583.95C51.7539 583.259 51.8945 582.134 51.8945 580.575C51.8945 578.999 51.751 577.868 51.4639 577.183C51.1826 576.491 50.7285 576.146 50.1016 576.146C49.4629 576.146 49.0059 576.491 48.7305 577.183C48.4551 577.868 48.3174 578.999 48.3174 580.575ZM60.6484 578.791C61.8906 578.791 62.8779 579.14 63.6104 579.837C64.3486 580.534 64.7178 581.489 64.7178 582.702C64.7178 584.138 64.2754 585.242 63.3906 586.016C62.5059 586.789 61.2402 587.176 59.5938 587.176C58.1641 587.176 57.0098 586.944 56.1309 586.481V584.135C56.5938 584.381 57.1328 584.583 57.748 584.741C58.3633 584.894 58.9463 584.97 59.4971 584.97C61.1553 584.97 61.9844 584.29 61.9844 582.931C61.9844 581.636 61.126 580.988 59.4092 580.988C59.0986 580.988 58.7559 581.021 58.3809 581.085C58.0059 581.144 57.7012 581.208 57.4668 581.278L56.3857 580.698L56.8691 574.15H63.8389V576.453H59.251L59.0137 578.976L59.3213 578.914C59.6787 578.832 60.1211 578.791 60.6484 578.791ZM75.168 580.575C75.168 582.819 74.7988 584.48 74.0605 585.559C73.3281 586.637 72.1973 587.176 70.668 587.176C69.1855 587.176 68.0664 586.619 67.3105 585.506C66.5605 584.393 66.1855 582.749 66.1855 580.575C66.1855 578.308 66.5518 576.638 67.2842 575.565C68.0166 574.487 69.1445 573.948 70.668 573.948C72.1504 573.948 73.2695 574.511 74.0254 575.636C74.7871 576.761 75.168 578.407 75.168 580.575ZM68.8838 580.575C68.8838 582.151 69.0186 583.282 69.2881 583.968C69.5635 584.647 70.0234 584.987 70.668 584.987C71.3008 584.987 71.7578 584.642 72.0391 583.95C72.3203 583.259 72.4609 582.134 72.4609 580.575C72.4609 578.999 72.3174 577.868 72.0303 577.183C71.749 576.491 71.2949 576.146 70.668 576.146C70.0293 576.146 69.5723 576.491 69.2969 577.183C69.0215 577.868 68.8838 578.999 68.8838 580.575ZM85.4688 579.635C85.4688 582.166 84.9355 584.056 83.8691 585.304C82.8027 586.552 81.1885 587.176 79.0264 587.176C78.2646 587.176 77.6875 587.135 77.2949 587.053V584.873C77.7871 584.996 78.3027 585.058 78.8418 585.058C79.75 585.058 80.4971 584.926 81.083 584.662C81.6689 584.393 82.1172 583.974 82.4277 583.405C82.7383 582.831 82.917 582.043 82.9639 581.041H82.8584C82.5186 581.592 82.126 581.979 81.6807 582.201C81.2354 582.424 80.6787 582.535 80.0107 582.535C78.8916 582.535 78.0098 582.178 77.3652 581.463C76.7207 580.742 76.3984 579.743 76.3984 578.466C76.3984 577.089 76.7881 576.002 77.5674 575.205C78.3525 574.402 79.4189 574.001 80.7666 574.001C81.7158 574.001 82.5449 574.224 83.2539 574.669C83.9688 575.114 84.5166 575.762 84.8975 576.611C85.2783 577.455 85.4688 578.463 85.4688 579.635ZM80.8193 576.181C80.2568 576.181 79.8174 576.374 79.501 576.761C79.1846 577.147 79.0264 577.704 79.0264 578.431C79.0264 579.052 79.1699 579.544 79.457 579.907C79.7441 580.271 80.1807 580.452 80.7666 580.452C81.3174 580.452 81.7891 580.273 82.1816 579.916C82.5742 579.553 82.7705 579.137 82.7705 578.668C82.7705 577.971 82.5859 577.382 82.2168 576.901C81.8535 576.421 81.3877 576.181 80.8193 576.181ZM95.8047 587H86.8223V585.11L90.0479 581.85C91.0029 580.871 91.627 580.194 91.9199 579.819C92.2129 579.438 92.4238 579.087 92.5527 578.765C92.6816 578.442 92.7461 578.108 92.7461 577.763C92.7461 577.247 92.6025 576.863 92.3154 576.611C92.0342 576.359 91.6562 576.233 91.1816 576.233C90.6836 576.233 90.2002 576.348 89.7314 576.576C89.2627 576.805 88.7734 577.13 88.2637 577.552L86.7871 575.803C87.4199 575.264 87.9443 574.883 88.3604 574.66C88.7764 574.438 89.2305 574.268 89.7227 574.15C90.2148 574.027 90.7656 573.966 91.375 573.966C92.1777 573.966 92.8867 574.112 93.502 574.405C94.1172 574.698 94.5947 575.108 94.9346 575.636C95.2744 576.163 95.4443 576.767 95.4443 577.446C95.4443 578.038 95.3389 578.595 95.1279 579.116C94.9229 579.632 94.6006 580.162 94.1611 580.707C93.7275 581.252 92.96 582.028 91.8584 583.036L90.2061 584.592V584.715H95.8047V587ZM103.82 587H101.104V579.564L101.131 578.343L101.175 577.007C100.724 577.458 100.41 577.754 100.234 577.895L98.7578 579.081L97.4482 577.446L101.588 574.15H103.82V587Z" fill="#1F3948"/>
<rect x="170" y="416" width="140" height="140" rx="50" fill="#B0B5AE"/>
<path d="M209.326 579.582L208.913 581.621H211.181V583.432H208.57L207.894 587H205.96L206.646 583.432H204.94L204.272 587H202.383L203.033 583.432H200.941V581.621H203.376L203.789 579.582H201.574V577.745H204.114L204.791 574.168H206.716L206.039 577.745H207.779L208.465 574.168H210.354L209.669 577.745H211.778V579.582H209.326ZM205.283 581.621H207.006L207.419 579.582H205.696L205.283 581.621ZM213.8 574.15H217.799C219.621 574.15 220.942 574.411 221.763 574.933C222.589 575.448 223.002 576.271 223.002 577.402C223.002 578.17 222.82 578.8 222.457 579.292C222.1 579.784 221.622 580.08 221.024 580.18V580.268C221.839 580.449 222.425 580.789 222.782 581.287C223.146 581.785 223.327 582.447 223.327 583.273C223.327 584.445 222.902 585.359 222.053 586.016C221.209 586.672 220.061 587 218.607 587H213.8V574.15ZM216.524 579.239H218.106C218.845 579.239 219.378 579.125 219.706 578.896C220.04 578.668 220.207 578.29 220.207 577.763C220.207 577.271 220.025 576.919 219.662 576.708C219.305 576.491 218.736 576.383 217.957 576.383H216.524V579.239ZM216.524 581.401V584.75H218.3C219.05 584.75 219.604 584.606 219.961 584.319C220.318 584.032 220.497 583.593 220.497 583.001C220.497 581.935 219.735 581.401 218.212 581.401H216.524ZM233.909 580.575C233.909 582.819 233.54 584.48 232.802 585.559C232.069 586.637 230.938 587.176 229.409 587.176C227.927 587.176 226.808 586.619 226.052 585.506C225.302 584.393 224.927 582.749 224.927 580.575C224.927 578.308 225.293 576.638 226.025 575.565C226.758 574.487 227.886 573.948 229.409 573.948C230.892 573.948 232.011 574.511 232.767 575.636C233.528 576.761 233.909 578.407 233.909 580.575ZM227.625 580.575C227.625 582.151 227.76 583.282 228.029 583.968C228.305 584.647 228.765 584.987 229.409 584.987C230.042 584.987 230.499 584.642 230.78 583.95C231.062 583.259 231.202 582.134 231.202 580.575C231.202 578.999 231.059 577.868 230.771 577.183C230.49 576.491 230.036 576.146 229.409 576.146C228.771 576.146 228.313 576.491 228.038 577.183C227.763 577.868 227.625 578.999 227.625 580.575ZM236.177 574.15H240.176C241.998 574.15 243.319 574.411 244.14 574.933C244.966 575.448 245.379 576.271 245.379 577.402C245.379 578.17 245.197 578.8 244.834 579.292C244.477 579.784 243.999 580.08 243.401 580.18V580.268C244.216 580.449 244.802 580.789 245.159 581.287C245.522 581.785 245.704 582.447 245.704 583.273C245.704 584.445 245.279 585.359 244.43 586.016C243.586 586.672 242.438 587 240.984 587H236.177V574.15ZM238.901 579.239H240.483C241.222 579.239 241.755 579.125 242.083 578.896C242.417 578.668 242.584 578.29 242.584 577.763C242.584 577.271 242.402 576.919 242.039 576.708C241.682 576.491 241.113 576.383 240.334 576.383H238.901V579.239ZM238.901 581.401V584.75H240.677C241.427 584.75 241.98 584.606 242.338 584.319C242.695 584.032 242.874 583.593 242.874 583.001C242.874 581.935 242.112 581.401 240.589 581.401H238.901ZM252.05 578.791C253.292 578.791 254.279 579.14 255.012 579.837C255.75 580.534 256.119 581.489 256.119 582.702C256.119 584.138 255.677 585.242 254.792 586.016C253.907 586.789 252.642 587.176 250.995 587.176C249.565 587.176 248.411 586.944 247.532 586.481V584.135C247.995 584.381 248.534 584.583 249.149 584.741C249.765 584.894 250.348 584.97 250.898 584.97C252.557 584.97 253.386 584.29 253.386 582.931C253.386 581.636 252.527 580.988 250.811 580.988C250.5 580.988 250.157 581.021 249.782 581.085C249.407 581.144 249.103 581.208 248.868 581.278L247.787 580.698L248.271 574.15H255.24V576.453H250.652L250.415 578.976L250.723 578.914C251.08 578.832 251.522 578.791 252.05 578.791ZM266.42 587L265.488 583.941H260.804L259.872 587H256.937L261.472 574.098H264.803L269.355 587H266.42ZM264.838 581.656C263.977 578.885 263.49 577.317 263.379 576.954C263.273 576.591 263.197 576.304 263.15 576.093C262.957 576.843 262.403 578.697 261.489 581.656H264.838ZM278.382 587H270.981V574.15H278.382V576.383H273.706V579.204H278.057V581.437H273.706V584.75H278.382V587Z" fill="#1F3948"/>
<rect x="86.5" y="625.5" width="137" height="137" rx="48.5" fill="white" stroke="#1F3948" stroke-width="3"/>
<path d="M128.325 785.582L127.912 787.621H130.18V789.432H127.569L126.893 793H124.959L125.645 789.432H123.939L123.271 793H121.382L122.032 789.432H119.94V787.621H122.375L122.788 785.582H120.573V783.745H123.113L123.79 780.168H125.715L125.038 783.745H126.778L127.464 780.168H129.354L128.668 783.745H130.777V785.582H128.325ZM124.282 787.621H126.005L126.418 785.582H124.695L124.282 787.621ZM135.479 793H132.799V780.15H140.164V782.383H135.479V785.696H139.839V787.92H135.479V793ZM145.358 793H142.678V780.15H150.043V782.383H145.358V785.696H149.718V787.92H145.358V793ZM155.237 793H152.557V780.15H159.922V782.383H155.237V785.696H159.597V787.92H155.237V793ZM165.116 793H162.436V780.15H169.801V782.383H165.116V785.696H169.476V787.92H165.116V793ZM174.995 793H172.314V780.15H179.68V782.383H174.995V785.696H179.354V787.92H174.995V793ZM184.874 793H182.193V780.15H189.559V782.383H184.874V785.696H189.233V787.92H184.874V793Z" fill="#1F3948"/>
</svg>
