<svg width="36" height="24" viewBox="0 0 36 24" fill="none" xmlns="http://www.w3.org/2000/svg">
<path d="M19.3646 11.9123L34.2396 20.0519C35.2678 20.6145 35.2678 21.5242 34.2396 22.0808L31.7678 23.4334C30.7396 23.996 29.0771 23.996 28.06 23.4334L17.5162 17.6639L6.97246 23.4334C5.94434 23.996 4.28183 23.996 3.26465 23.4334L0.770897 22.0868C-0.257228 21.5242 -0.257228 20.6145 0.770897 20.0579L15.6459 11.9183C16.674 11.3498 18.3365 11.3498 19.3646 11.9123ZM15.6459 0.421197L0.770897 8.56076C-0.257228 9.12334 -0.257228 10.0331 0.770897 10.5897L3.24277 11.9423C4.2709 12.5049 5.9334 12.5049 6.95059 11.9423L17.5053 6.17874L28.049 11.9482C29.0771 12.5108 30.7396 12.5108 31.7568 11.9482L34.2396 10.5956C35.2678 10.0331 35.2678 9.12334 34.2396 8.56674L19.3646 0.42718C18.3365 -0.141392 16.674 -0.141391 15.6459 0.421197Z" fill="#1F3948"/>
</svg>
