<svg width="25" height="20" viewBox="0 0 25 20" fill="none" xmlns="http://www.w3.org/2000/svg">
<path d="M11.1723 9.98714L0.550609 16.8112C-0.183536 17.2829 -0.183536 18.0456 0.550609 18.5122L2.31568 19.6463C3.04983 20.1179 4.23696 20.1179 4.96329 19.6463L12.4922 14.8092L20.0211 19.6463C20.7552 20.1179 21.9424 20.1179 22.6687 19.6463L24.4494 18.5173C25.1835 18.0456 25.1835 17.2829 24.4494 16.8163L13.8277 9.99216C13.0936 9.51548 11.9064 9.51548 11.1723 9.98714ZM13.8277 0.353125L24.4494 7.17722C25.1835 7.64889 25.1835 8.41158 24.4494 8.87823L22.6843 10.0122C21.9502 10.4839 20.763 10.4839 20.0367 10.0122L12.5 5.18017L4.9711 10.0172C4.23696 10.4889 3.04983 10.4889 2.32349 10.0172L0.550609 8.88325C-0.183536 8.41158 -0.183536 7.64889 0.550609 7.18224L11.1723 0.358141C11.9064 -0.118542 13.0936 -0.118541 13.8277 0.353125Z" fill="#1F3948"/>
</svg>
