<svg width="172" height="37" viewBox="0 0 172 37" fill="none" xmlns="http://www.w3.org/2000/svg">
<path d="M20.0266 6.95925L10.0133 13.9185L20.0266 20.8777L10.0133 27.837L0 20.8198L10.0133 13.8605L0 6.95925L10.0133 0L20.0266 6.95925ZM9.96005 30.0408L19.9734 23.0815L29.9867 30.0408L19.9734 37L9.96005 30.0408ZM20.0266 20.8198L30.0399 13.8605L20.0266 6.95925L29.9867 0L40 6.95925L29.9867 13.9185L40 20.8777L29.9867 27.837L20.0266 20.8198Z" fill="#0061FF"/>
<path d="M48 6.83026H56.0478C61.1836 6.83026 65.4193 10.0332 65.4193 17.3542V18.8985C65.4193 26.2768 61.4483 29.5941 56.2067 29.5941H48V6.83026ZM52.5004 10.9483V25.4188H55.9419C58.854 25.4188 60.813 23.3598 60.813 18.7841V17.583C60.813 13.0074 58.7481 10.9483 55.7831 10.9483H52.5004ZM67.8019 11.1771H71.4022L71.9846 15.4668C72.6729 12.5498 74.4201 11.0055 77.5969 11.0055H78.7088V15.9244H76.8557C73.2024 15.9244 72.3023 17.297 72.3023 21.1863V29.6513H67.8548V11.1771H67.8019ZM79.6089 20.786V20.2712C79.6089 14.0941 83.2622 10.7196 88.2391 10.7196C93.3219 10.7196 96.8693 14.0941 96.8693 20.2712V20.786C96.8693 26.8487 93.4278 30.1089 88.2391 30.1089C82.7327 30.0517 79.6089 26.8487 79.6089 20.786ZM92.316 20.7288V20.2712C92.316 16.8395 90.7276 14.7804 88.1862 14.7804C85.6977 14.7804 84.0564 16.6679 84.0564 20.2712V20.7288C84.0564 24.0461 85.6447 25.9336 88.1862 25.9336C90.7276 25.8764 92.316 24.0461 92.316 20.7288ZM99.199 11.1771H102.905L103.329 14.6661C104.229 12.321 106.135 10.7196 108.941 10.7196C113.283 10.7196 116.142 14.0941 116.142 20.3284V20.8432C116.142 26.9059 112.965 30.1089 108.941 30.1089C106.241 30.1089 104.388 28.7934 103.488 26.6771V36H99.146L99.199 11.1771ZM111.641 20.7288V20.3284C111.641 16.6679 109.894 14.8376 107.564 14.8376C105.076 14.8376 103.435 16.8967 103.435 20.3284V20.6716C103.435 23.9317 105.023 25.9908 107.512 25.9908C110.053 25.9336 111.641 24.1605 111.641 20.7288ZM122.707 26.2196L122.336 29.5941H118.524V5H122.866V14.4373C123.819 12.0351 125.725 10.7196 128.425 10.7196C132.502 10.7768 135.52 13.8081 135.52 19.928V20.5C135.52 26.6199 132.661 30.1089 128.319 30.1089C125.46 30.0517 123.607 28.6218 122.707 26.2196ZM130.967 20.5V20.0424C130.967 16.6679 129.272 14.7804 126.89 14.7804C124.454 14.7804 122.76 16.8967 122.76 20.0996V20.5C122.76 23.9317 124.401 25.9336 126.837 25.9336C129.431 25.9336 130.967 24.1605 130.967 20.5ZM137.426 20.786V20.2712C137.426 14.0941 141.079 10.7196 146.056 10.7196C151.139 10.7196 154.687 14.0941 154.687 20.2712V20.786C154.687 26.8487 151.192 30.1089 146.056 30.1089C140.55 30.0517 137.426 26.8487 137.426 20.786ZM150.186 20.7288V20.2712C150.186 16.8395 148.598 14.7804 146.056 14.7804C143.568 14.7804 141.927 16.6679 141.927 20.2712V20.7288C141.927 24.0461 143.515 25.9336 146.056 25.9336C148.598 25.8764 150.186 24.0461 150.186 20.7288ZM160.511 20.0424L154.528 11.1771H159.664L163.105 16.7251L166.599 11.1771H171.682L165.593 19.9852L172 29.5941H166.97L163.052 23.4742L159.24 29.5941H153.998L160.511 20.0424Z" fill="black"/>
</svg>
