<svg width="337" height="42" viewBox="0 0 337 42" fill="none" xmlns="http://www.w3.org/2000/svg">
<path d="M45.15 9.188H49.812V21.242H64.512V9.188H69.174V38H64.512V25.274H49.812V38H45.15V9.188ZM75.4605 9.188H97.8045V13.178H80.1225V21.284H95.9565V25.274H80.1225V34.01H98.0565V38H75.4605V9.188ZM111.748 9.188H117.628L128.8 38H123.844L121.198 30.986H107.926L105.322 38H100.534L111.748 9.188ZM119.686 26.996L116.536 18.554L114.646 13.178H114.436L112.588 18.47L109.396 26.996H119.686ZM132.185 9.188H136.847V33.968H151.841V38H132.185V9.188ZM160.494 13.22H150.918V9.188H174.732V13.22H165.156V38H160.494V13.22ZM178.82 9.188H183.482V21.242H198.182V9.188H202.844V38H198.182V25.274H183.482V38H178.82V9.188ZM209.13 9.188H223.074C226.07 9.188 228.352 10 229.92 11.624C231.488 13.22 232.272 15.404 232.272 18.176C232.272 20.948 231.446 23.16 229.794 24.812C228.17 26.464 225.888 27.29 222.948 27.29H213.792V38H209.13V9.188ZM222.78 23.3C224.264 23.3 225.426 22.852 226.266 21.956C227.134 21.032 227.568 19.772 227.568 18.176C227.568 16.58 227.162 15.348 226.35 14.48C225.538 13.612 224.348 13.178 222.78 13.178H213.792V23.3H222.78ZM250.332 38.504C245.74 38.504 242.184 37.258 239.664 34.766C237.144 32.246 235.884 28.522 235.884 23.594C235.884 18.666 237.144 14.956 239.664 12.464C242.184 9.944 245.74 8.684 250.332 8.684C254.952 8.684 258.522 9.944 261.042 12.464C263.562 14.956 264.822 18.666 264.822 23.594C264.822 28.522 263.562 32.246 261.042 34.766C258.522 37.258 254.952 38.504 250.332 38.504ZM250.332 34.556C256.8 34.556 260.034 31 260.034 23.888V23.384C260.006 16.216 256.772 12.632 250.332 12.632C243.92 12.632 240.7 16.216 240.672 23.384V23.888C240.672 31 243.892 34.556 250.332 34.556ZM270.212 9.188H274.874V38H270.212V9.188ZM281.523 9.188H285.807L299.751 27.92C300.059 28.34 300.465 28.942 300.969 29.726L301.179 29.642L301.137 27.542V9.188H305.547V38H301.347L287.361 19.058C287.137 18.778 286.899 18.442 286.647 18.05C286.395 17.658 286.213 17.378 286.101 17.21L285.891 17.252L285.933 19.394V38H281.523V9.188ZM319.184 13.22H309.608V9.188H333.422V13.22H323.846V38H319.184V13.22Z" fill="black"/>
<path fill-rule="evenodd" clip-rule="evenodd" d="M31.6889 19.7647C32.533 18.0573 33 16.1786 33 14.2059C33 6.36019 25.6127 0 16.5 0C7.3873 0 0 6.36019 0 14.2059C0 16.1786 0.467023 18.0573 1.31107 19.7647H1.21642L1.61942 20.351C2.03236 21.0909 2.51755 21.7952 3.06712 22.4572L16.4999 42L29.9316 22.4588C30.4821 21.7958 30.9681 21.0904 31.3815 20.3493L31.7834 19.7647H31.6889Z" fill="#E63C34"/>
<g clip-path="url(#clip0)">
<path d="M23.6546 10.1641C21.735 8.75568 18.8802 9.00901 17.1182 10.5742L16.4282 11.1865L15.7381 10.5742C13.9796 9.00901 11.1213 8.75568 9.20169 10.1641C7.00188 11.7806 6.88628 14.6818 8.85491 16.4341L15.633 22.4597C16.0709 22.8488 16.7819 22.8488 17.2198 22.4597L23.9979 16.4341C25.97 14.6818 25.8544 11.7806 23.6546 10.1641Z" fill="white"/>
</g>
<defs>
<clipPath id="clip0">
<rect width="17.9348" height="15.4412" fill="white" transform="translate(7.46106 8.27637)"/>
</clipPath>
</defs>
</svg>
