<svg width="350" height="180" viewBox="0 0 350 180" fill="none" xmlns="http://www.w3.org/2000/svg">
<rect x="2.5" y="2.5" width="345" height="175" rx="47.5" fill="#050921" stroke="#1F3948" stroke-width="5"/>
<path d="M69.7 74.304H73.696V84.636H86.296V74.304H90.292V99H86.296V88.092H73.696V99H69.7V74.304ZM95.6805 74.304H114.832V77.724H99.6765V84.672H113.248V88.092H99.6765V95.58H115.048V99H95.6805V74.304ZM126.784 74.304H131.824L141.4 99H137.152L134.884 92.988H123.508L121.276 99H117.172L126.784 74.304ZM133.588 89.568L130.888 82.332L129.268 77.724H129.088L127.504 82.26L124.768 89.568H133.588ZM144.302 74.304H148.298V95.544H161.15V99H144.302V74.304ZM168.566 77.76H160.358V74.304H180.77V77.76H172.562V99H168.566V77.76ZM184.274 74.304H188.27V84.636H200.87V74.304H204.866V99H200.87V88.092H188.27V99H184.274V74.304ZM210.255 74.304H222.207C224.775 74.304 226.731 75 228.075 76.392C229.419 77.76 230.091 79.632 230.091 82.008C230.091 84.384 229.383 86.28 227.967 87.696C226.575 89.112 224.619 89.82 222.099 89.82H214.251V99H210.255V74.304ZM221.955 86.4C223.227 86.4 224.223 86.016 224.943 85.248C225.687 84.456 226.059 83.376 226.059 82.008C226.059 80.64 225.711 79.584 225.015 78.84C224.319 78.096 223.299 77.724 221.955 77.724H214.251V86.4H221.955ZM245.57 99.432C241.634 99.432 238.586 98.364 236.426 96.228C234.266 94.068 233.186 90.876 233.186 86.652C233.186 82.428 234.266 79.248 236.426 77.112C238.586 74.952 241.634 73.872 245.57 73.872C249.53 73.872 252.59 74.952 254.75 77.112C256.91 79.248 257.99 82.428 257.99 86.652C257.99 90.876 256.91 94.068 254.75 96.228C252.59 98.364 249.53 99.432 245.57 99.432ZM245.57 96.048C251.114 96.048 253.886 93 253.886 86.904V86.472C253.862 80.328 251.09 77.256 245.57 77.256C240.074 77.256 237.314 80.328 237.29 86.472V86.904C237.29 93 240.05 96.048 245.57 96.048ZM262.61 74.304H266.606V99H262.61V74.304ZM272.305 74.304H275.977L287.929 90.36C288.193 90.72 288.541 91.236 288.973 91.908L289.153 91.836L289.117 90.036V74.304H292.897V99H289.297L277.309 82.764C277.117 82.524 276.913 82.236 276.697 81.9C276.481 81.564 276.325 81.324 276.229 81.18L276.049 81.216L276.085 83.052V99H272.305V74.304ZM304.586 77.76H296.378V74.304H316.79V77.76H308.582V99H304.586V77.76Z" fill="white"/>
<path fill-rule="evenodd" clip-rule="evenodd" d="M61.6095 88.1765C62.5047 86.3471 63 84.3342 63 82.2206C63 73.8145 55.165 67 45.5 67C35.835 67 28 73.8145 28 82.2206C28 84.3342 28.4953 86.3471 29.3905 88.1765H29.2902L29.7173 88.8042C30.1554 89.5972 30.6702 90.3522 31.2533 91.0617L45.4999 112L59.746 91.0625C60.3296 90.3525 60.8448 89.597 61.2832 88.8033L61.7097 88.1765H61.6095Z" fill="#E63C34"/>
<g clip-path="url(#clip0)">
<path d="M53.0881 77.8905C51.0522 76.3815 48.0243 76.6529 46.1556 78.3299L45.4237 78.9859L44.6918 78.3299C42.8268 76.6529 39.7952 76.3815 37.7593 77.8905C35.4261 79.6224 35.3035 82.7309 37.3915 84.6083L44.5803 91.0644C45.0447 91.4812 45.7989 91.4812 46.2633 91.0644L53.4522 84.6083C55.5438 82.7309 55.4212 79.6224 53.0881 77.8905Z" fill="#050921"/>
</g>
<defs>
<clipPath id="clip0">
<rect width="19.0217" height="16.5441" fill="white" transform="translate(35.9131 75.8677)"/>
</clipPath>
</defs>
</svg>
