<svg width="350" height="180" viewBox="0 0 350 180" fill="none" xmlns="http://www.w3.org/2000/svg">
<rect x="2.5" y="2.5" width="345" height="175" rx="47.5" fill="white" stroke="#1F3948" stroke-width="5"/>
<path d="M70.7 74.304H74.696V84.636H87.296V74.304H91.292V99H87.296V88.092H74.696V99H70.7V74.304ZM96.6805 74.304H115.832V77.724H100.676V84.672H114.248V88.092H100.676V95.58H116.048V99H96.6805V74.304ZM127.784 74.304H132.824L142.4 99H138.152L135.884 92.988H124.508L122.276 99H118.172L127.784 74.304ZM134.588 89.568L131.888 82.332L130.268 77.724H130.088L128.504 82.26L125.768 89.568H134.588ZM145.302 74.304H149.298V95.544H162.15V99H145.302V74.304ZM169.566 77.76H161.358V74.304H181.77V77.76H173.562V99H169.566V77.76ZM185.274 74.304H189.27V84.636H201.87V74.304H205.866V99H201.87V88.092H189.27V99H185.274V74.304ZM211.255 74.304H223.207C225.775 74.304 227.731 75 229.075 76.392C230.419 77.76 231.091 79.632 231.091 82.008C231.091 84.384 230.383 86.28 228.967 87.696C227.575 89.112 225.619 89.82 223.099 89.82H215.251V99H211.255V74.304ZM222.955 86.4C224.227 86.4 225.223 86.016 225.943 85.248C226.687 84.456 227.059 83.376 227.059 82.008C227.059 80.64 226.711 79.584 226.015 78.84C225.319 78.096 224.299 77.724 222.955 77.724H215.251V86.4H222.955ZM246.57 99.432C242.634 99.432 239.586 98.364 237.426 96.228C235.266 94.068 234.186 90.876 234.186 86.652C234.186 82.428 235.266 79.248 237.426 77.112C239.586 74.952 242.634 73.872 246.57 73.872C250.53 73.872 253.59 74.952 255.75 77.112C257.91 79.248 258.99 82.428 258.99 86.652C258.99 90.876 257.91 94.068 255.75 96.228C253.59 98.364 250.53 99.432 246.57 99.432ZM246.57 96.048C252.114 96.048 254.886 93 254.886 86.904V86.472C254.862 80.328 252.09 77.256 246.57 77.256C241.074 77.256 238.314 80.328 238.29 86.472V86.904C238.29 93 241.05 96.048 246.57 96.048ZM263.61 74.304H267.606V99H263.61V74.304ZM273.305 74.304H276.977L288.929 90.36C289.193 90.72 289.541 91.236 289.973 91.908L290.153 91.836L290.117 90.036V74.304H293.897V99H290.297L278.309 82.764C278.117 82.524 277.913 82.236 277.697 81.9C277.481 81.564 277.325 81.324 277.229 81.18L277.049 81.216L277.085 83.052V99H273.305V74.304ZM305.586 77.76H297.378V74.304H317.79V77.76H309.582V99H305.586V77.76Z" fill="black"/>
<path fill-rule="evenodd" clip-rule="evenodd" d="M60.6095 88.1765C61.5047 86.3471 62 84.3342 62 82.2206C62 73.8145 54.165 67 44.5 67C34.835 67 27 73.8145 27 82.2206C27 84.3342 27.4953 86.3471 28.3905 88.1765H28.2902L28.7173 88.8042C29.1554 89.5972 29.6702 90.3522 30.2533 91.0617L44.4999 112L58.746 91.0625C59.3296 90.3525 59.8448 89.597 60.2832 88.8033L60.7097 88.1765H60.6095Z" fill="#E63C34"/>
<g clip-path="url(#clip0)">
<path d="M52.088 77.8905C50.0521 76.3815 47.0242 76.6529 45.1554 78.3299L44.4236 78.9859L43.6917 78.3299C41.8266 76.6529 38.7951 76.3815 36.7591 77.8905C34.426 79.6224 34.3034 82.7309 36.3913 84.6083L43.5802 91.0644C44.0446 91.4812 44.7988 91.4812 45.2632 91.0644L52.4521 84.6083C54.5437 82.7309 54.4211 79.6224 52.088 77.8905Z" fill="white"/>
</g>
<defs>
<clipPath id="clip0">
<rect width="19.0217" height="16.5441" fill="white" transform="translate(34.9131 75.8677)"/>
</clipPath>
</defs>
</svg>
