<svg width="512" height="65" viewBox="0 0 512 65" fill="none" xmlns="http://www.w3.org/2000/svg">
<path d="M64.8 13.096H71.904V31.464H94.304V13.096H101.408V57H94.304V37.608H71.904V57H64.8V13.096ZM110.988 13.096H145.036V19.176H118.092V31.528H142.22V37.608H118.092V50.92H145.42V57H110.988V13.096ZM166.283 13.096H175.243L192.267 57H184.715L180.683 46.312H160.459L156.491 57H149.195L166.283 13.096ZM178.379 40.232L173.579 27.368L170.699 19.176H170.379L167.563 27.24L162.699 40.232H178.379ZM197.425 13.096H204.529V50.856H227.377V57H197.425V13.096ZM240.562 19.24H225.971V13.096H262.259V19.24H247.667V57H240.562V19.24ZM268.488 13.096H275.592V31.464H297.992V13.096H305.096V57H297.992V37.608H275.592V57H268.488V13.096ZM314.675 13.096H335.923C340.488 13.096 343.966 14.3333 346.355 16.808C348.744 19.24 349.939 22.568 349.939 26.792C349.939 31.016 348.68 34.3867 346.163 36.904C343.688 39.4213 340.211 40.68 335.731 40.68H321.779V57H314.675V13.096ZM335.475 34.6C337.736 34.6 339.507 33.9173 340.787 32.552C342.11 31.144 342.771 29.224 342.771 26.792C342.771 24.36 342.152 22.4827 340.915 21.16C339.678 19.8373 337.864 19.176 335.475 19.176H321.779V34.6H335.475ZM377.459 57.768C370.461 57.768 365.043 55.8693 361.203 52.072C357.363 48.232 355.443 42.5573 355.443 35.048C355.443 27.5387 357.363 21.8853 361.203 18.088C365.043 14.248 370.461 12.328 377.459 12.328C384.499 12.328 389.939 14.248 393.779 18.088C397.619 21.8853 399.539 27.5387 399.539 35.048C399.539 42.5573 397.619 48.232 393.779 52.072C389.939 55.8693 384.499 57.768 377.459 57.768ZM377.459 51.752C387.315 51.752 392.243 46.3333 392.243 35.496V34.728C392.2 23.8053 387.272 18.344 377.459 18.344C367.688 18.344 362.781 23.8053 362.739 34.728V35.496C362.739 46.3333 367.645 51.752 377.459 51.752ZM407.751 13.096H414.855V57H407.751V13.096ZM424.988 13.096H431.516L452.764 41.64C453.233 42.28 453.852 43.1973 454.62 44.392L454.94 44.264L454.876 41.064V13.096H461.596V57H455.196L433.884 28.136C433.542 27.7093 433.18 27.1973 432.796 26.6C432.412 26.0027 432.134 25.576 431.964 25.32L431.644 25.384L431.708 28.648V57H424.988V13.096ZM482.375 19.24H467.783V13.096H504.071V19.24H489.479V57H482.375V19.24Z" fill="black"/>
<path fill-rule="evenodd" clip-rule="evenodd" d="M48.0135 30.5882C49.2924 27.9459 50 25.0383 50 21.9853C50 9.84315 38.8071 0 25 0C11.1929 0 0 9.84315 0 21.9853C0 25.0383 0.707611 27.9459 1.98647 30.5882H1.84318L2.45317 31.4947C3.07911 32.6404 3.81464 33.731 4.64781 34.756L24.9999 65L45.3515 34.7568C46.1852 33.7313 46.9211 32.6401 47.5473 31.4938L48.1567 30.5882H48.0135Z" fill="#E63C34"/>
<g clip-path="url(#clip0)">
<path d="M35.8402 15.7306C32.9317 13.5509 28.6062 13.9429 25.9366 16.3653L24.891 17.3128L23.8455 16.3653C21.1811 13.9429 16.8503 13.5509 13.9418 15.7306C10.6088 18.2323 10.4336 22.7223 13.4164 25.4341L23.6862 34.7595C24.3497 35.3616 25.4271 35.3616 26.0905 34.7595L36.3603 25.4341C39.3484 22.7223 39.1732 18.2323 35.8402 15.7306Z" fill="white"/>
</g>
<defs>
<clipPath id="clip0">
<rect width="27.1739" height="23.8971" fill="white" transform="translate(11.3044 12.8086)"/>
</clipPath>
</defs>
</svg>
