<svg width="613" height="325" viewBox="0 0 613 325" fill="none" xmlns="http://www.w3.org/2000/svg">
<rect x="2.5" y="2.5" width="608" height="320" rx="47.5" fill="#050921" stroke="#1F3948" stroke-width="5"/>
<path d="M114.8 143.096H121.904V161.464H144.304V143.096H151.408V187H144.304V167.608H121.904V187H114.8V143.096ZM160.988 143.096H195.036V149.176H168.092V161.528H192.22V167.608H168.092V180.92H195.42V187H160.988V143.096ZM216.283 143.096H225.243L242.267 187H234.715L230.683 176.312H210.459L206.491 187H199.195L216.283 143.096ZM228.379 170.232L223.579 157.368L220.699 149.176H220.379L217.563 157.24L212.699 170.232H228.379ZM247.425 143.096H254.529V180.856H277.377V187H247.425V143.096ZM290.562 149.24H275.971V143.096H312.259V149.24H297.667V187H290.562V149.24ZM318.488 143.096H325.592V161.464H347.992V143.096H355.096V187H347.992V167.608H325.592V187H318.488V143.096ZM364.675 143.096H385.923C390.488 143.096 393.966 144.333 396.355 146.808C398.744 149.24 399.939 152.568 399.939 156.792C399.939 161.016 398.68 164.387 396.163 166.904C393.688 169.421 390.211 170.68 385.731 170.68H371.779V187H364.675V143.096ZM385.475 164.6C387.736 164.6 389.507 163.917 390.787 162.552C392.11 161.144 392.771 159.224 392.771 156.792C392.771 154.36 392.152 152.483 390.915 151.16C389.678 149.837 387.864 149.176 385.475 149.176H371.779V164.6H385.475ZM427.459 187.768C420.461 187.768 415.043 185.869 411.203 182.072C407.363 178.232 405.443 172.557 405.443 165.048C405.443 157.539 407.363 151.885 411.203 148.088C415.043 144.248 420.461 142.328 427.459 142.328C434.499 142.328 439.939 144.248 443.779 148.088C447.619 151.885 449.539 157.539 449.539 165.048C449.539 172.557 447.619 178.232 443.779 182.072C439.939 185.869 434.499 187.768 427.459 187.768ZM427.459 181.752C437.315 181.752 442.243 176.333 442.243 165.496V164.728C442.2 153.805 437.272 148.344 427.459 148.344C417.688 148.344 412.781 153.805 412.739 164.728V165.496C412.739 176.333 417.645 181.752 427.459 181.752ZM457.751 143.096H464.855V187H457.751V143.096ZM474.988 143.096H481.516L502.764 171.64C503.233 172.28 503.852 173.197 504.62 174.392L504.94 174.264L504.876 171.064V143.096H511.596V187H505.196L483.884 158.136C483.542 157.709 483.18 157.197 482.796 156.6C482.412 156.003 482.134 155.576 481.964 155.32L481.644 155.384L481.708 158.648V187H474.988V143.096ZM532.375 149.24H517.783V143.096H554.071V149.24H539.479V187H532.375V149.24Z" fill="white"/>
<path fill-rule="evenodd" clip-rule="evenodd" d="M98.0135 160.588C99.2924 157.946 100 155.038 100 151.985C100 139.843 88.8071 130 75 130C61.1929 130 50 139.843 50 151.985C50 155.038 50.7076 157.946 51.9865 160.588H51.8432L52.4532 161.495C53.0791 162.64 53.8146 163.731 54.6478 164.756L74.9999 195L95.3515 164.757C96.1852 163.731 96.9211 162.64 97.5473 161.494L98.1567 160.588H98.0135Z" fill="#E63C34"/>
<g clip-path="url(#clip0)">
<path d="M85.8402 145.731C82.9317 143.551 78.6062 143.943 75.9366 146.365L74.891 147.313L73.8455 146.365C71.1811 143.943 66.8503 143.551 63.9418 145.731C60.6088 148.232 60.4336 152.722 63.4164 155.434L73.6862 164.76C74.3497 165.362 75.4271 165.362 76.0905 164.76L86.3603 155.434C89.3484 152.722 89.1732 148.232 85.8402 145.731Z" fill="#050921"/>
</g>
<defs>
<clipPath id="clip0">
<rect width="27.1739" height="23.8971" fill="white" transform="translate(61.3044 142.809)"/>
</clipPath>
</defs>
</svg>
