<svg width="613" height="325" viewBox="0 0 613 325" fill="none" xmlns="http://www.w3.org/2000/svg">
<rect x="2.5" y="2.5" width="608" height="320" rx="47.5" fill="white" stroke="#1F3948" stroke-width="5"/>
<path d="M115.8 143.096H122.904V161.464H145.304V143.096H152.408V187H145.304V167.608H122.904V187H115.8V143.096ZM161.988 143.096H196.036V149.176H169.092V161.528H193.22V167.608H169.092V180.92H196.42V187H161.988V143.096ZM217.283 143.096H226.243L243.267 187H235.715L231.683 176.312H211.459L207.491 187H200.195L217.283 143.096ZM229.379 170.232L224.579 157.368L221.699 149.176H221.379L218.563 157.24L213.699 170.232H229.379ZM248.425 143.096H255.529V180.856H278.377V187H248.425V143.096ZM291.562 149.24H276.971V143.096H313.259V149.24H298.667V187H291.562V149.24ZM319.488 143.096H326.592V161.464H348.992V143.096H356.096V187H348.992V167.608H326.592V187H319.488V143.096ZM365.675 143.096H386.923C391.488 143.096 394.966 144.333 397.355 146.808C399.744 149.24 400.939 152.568 400.939 156.792C400.939 161.016 399.68 164.387 397.163 166.904C394.688 169.421 391.211 170.68 386.731 170.68H372.779V187H365.675V143.096ZM386.475 164.6C388.736 164.6 390.507 163.917 391.787 162.552C393.11 161.144 393.771 159.224 393.771 156.792C393.771 154.36 393.152 152.483 391.915 151.16C390.678 149.837 388.864 149.176 386.475 149.176H372.779V164.6H386.475ZM428.459 187.768C421.461 187.768 416.043 185.869 412.203 182.072C408.363 178.232 406.443 172.557 406.443 165.048C406.443 157.539 408.363 151.885 412.203 148.088C416.043 144.248 421.461 142.328 428.459 142.328C435.499 142.328 440.939 144.248 444.779 148.088C448.619 151.885 450.539 157.539 450.539 165.048C450.539 172.557 448.619 178.232 444.779 182.072C440.939 185.869 435.499 187.768 428.459 187.768ZM428.459 181.752C438.315 181.752 443.243 176.333 443.243 165.496V164.728C443.2 153.805 438.272 148.344 428.459 148.344C418.688 148.344 413.781 153.805 413.739 164.728V165.496C413.739 176.333 418.645 181.752 428.459 181.752ZM458.751 143.096H465.855V187H458.751V143.096ZM475.988 143.096H482.516L503.764 171.64C504.233 172.28 504.852 173.197 505.62 174.392L505.94 174.264L505.876 171.064V143.096H512.596V187H506.196L484.884 158.136C484.542 157.709 484.18 157.197 483.796 156.6C483.412 156.003 483.134 155.576 482.964 155.32L482.644 155.384L482.708 158.648V187H475.988V143.096ZM533.375 149.24H518.783V143.096H555.071V149.24H540.479V187H533.375V149.24Z" fill="black"/>
<path fill-rule="evenodd" clip-rule="evenodd" d="M99.0135 160.588C100.292 157.946 101 155.038 101 151.985C101 139.843 89.8071 130 76 130C62.1929 130 51 139.843 51 151.985C51 155.038 51.7076 157.946 52.9865 160.588H52.8432L53.4532 161.495C54.0791 162.64 54.8146 163.731 55.6478 164.756L75.9999 195L96.3515 164.757C97.1852 163.731 97.9211 162.64 98.5473 161.494L99.1567 160.588H99.0135Z" fill="#E63C34"/>
<g clip-path="url(#clip0)">
<path d="M86.8402 145.731C83.9318 143.551 79.6062 143.943 76.9366 146.365L75.891 147.313L74.8455 146.365C72.1812 143.943 67.8503 143.551 64.9419 145.731C61.6088 148.232 61.4337 152.722 64.4164 155.434L74.6863 164.76C75.3497 165.362 76.4271 165.362 77.0905 164.76L87.3603 155.434C90.3484 152.722 90.1733 148.232 86.8402 145.731Z" fill="white"/>
</g>
<defs>
<clipPath id="clip0">
<rect width="27.1739" height="23.8971" fill="white" transform="translate(62.3044 142.809)"/>
</clipPath>
</defs>
</svg>
