<svg width="15" height="12" viewBox="0 0 15 12" fill="none" xmlns="http://www.w3.org/2000/svg">
<path d="M7.49036 5.12703L12.6084 0.252678C12.9622 -0.084226 13.5342 -0.084226 13.8842 0.252678L14.7347 1.06268C15.0884 1.39959 15.0884 1.94437 14.7347 2.27769L11.1069 5.73274L14.7347 9.1878C15.0884 9.52471 15.0884 10.0695 14.7347 10.4028L13.8879 11.22C13.5342 11.5569 12.9622 11.5569 12.6122 11.22L7.49412 6.34562C7.13661 6.00872 7.13661 5.46394 7.49036 5.12703ZM0.264844 6.34562L5.38292 11.22C5.73667 11.5569 6.30869 11.5569 6.65867 11.22L7.50917 10.41C7.86292 10.0731 7.86292 9.52829 7.50917 9.19497L3.88513 5.73633L7.51294 2.28127C7.86669 1.94437 7.86669 1.39959 7.51294 1.06627L6.66243 0.252678C6.30869 -0.084226 5.73666 -0.084226 5.38668 0.252678L0.268606 5.12703C-0.0889062 5.46394 -0.0889053 6.00872 0.264844 6.34562Z" fill="#1F3948"/>
</svg>
