<svg width="15" height="12" viewBox="0 0 15 12" fill="none" xmlns="http://www.w3.org/2000/svg">
<path d="M7.50964 6.34562L2.39157 11.22C2.03782 11.5569 1.4658 11.5569 1.11582 11.22L0.265312 10.41C-0.0884373 10.0731 -0.0884373 9.52829 0.265312 9.19497L3.89312 5.73991L0.265312 2.28486C-0.0884373 1.94795 -0.0884373 1.40317 0.265312 1.06985L1.11205 0.252678C1.4658 -0.0842255 2.03782 -0.0842255 2.38781 0.252678L7.50588 5.12703C7.86339 5.46394 7.86339 6.00872 7.50964 6.34562ZM14.7352 5.12703L9.61708 0.252678C9.26333 -0.0842255 8.69131 -0.0842255 8.34133 0.252678L7.49083 1.06268C7.13708 1.39959 7.13708 1.94437 7.49083 2.27769L11.1149 5.73633L7.48706 9.19139C7.13331 9.52829 7.13331 10.0731 7.48706 10.4064L8.33757 11.22C8.69131 11.5569 9.26334 11.5569 9.61332 11.22L14.7314 6.34562C15.0889 6.00872 15.0889 5.46394 14.7352 5.12703Z" fill="#1F3948"/>
</svg>
