<svg width="350" height="201" viewBox="0 0 350 201" fill="none" xmlns="http://www.w3.org/2000/svg">
<path d="M350 148.953H175V200.318H350V148.953Z" fill="#285467"/>
<path d="M175 148.953H0V200.318H175V148.953Z" fill="#AED1E0"/>
<path d="M350 0H0V148.953H350V0Z" fill="#193541"/>
<path d="M146.524 72.3535L146.041 74.8496H148.414V76.3262H145.751L145.048 80H143.483L144.187 76.3262H142.007L141.304 80H139.774L140.442 76.3262H138.245V74.8496H140.732L141.233 72.3535H138.913V70.877H141.488L142.191 67.168H143.773L143.07 70.877H145.285L145.988 67.168H147.518L146.814 70.877H149.029V72.3535H146.524ZM142.279 74.8496H144.477L144.978 72.3535H142.78L142.279 74.8496ZM156.324 80H154.259V71.7031C154.259 70.7129 154.282 69.9277 154.329 69.3477C154.194 69.4883 154.027 69.6436 153.828 69.8135C153.635 69.9834 152.979 70.5225 151.859 71.4307L150.822 70.1211L154.602 67.1504H156.324V80ZM169.235 72.6348C169.235 75.166 168.726 77.0557 167.706 78.3037C166.687 79.5518 165.151 80.1758 163.101 80.1758C162.321 80.1758 161.762 80.1289 161.422 80.0352V78.3037C161.943 78.4502 162.468 78.5234 162.995 78.5234C164.39 78.5234 165.43 78.1484 166.115 77.3984C166.801 76.6484 167.176 75.4707 167.24 73.8652H167.135C166.789 74.3926 166.37 74.7734 165.878 75.0078C165.392 75.2422 164.82 75.3594 164.164 75.3594C163.027 75.3594 162.134 75.0049 161.483 74.2959C160.833 73.5869 160.508 72.6143 160.508 71.3779C160.508 70.0361 160.883 68.9697 161.633 68.1787C162.389 67.3818 163.417 66.9834 164.718 66.9834C165.632 66.9834 166.429 67.2061 167.108 67.6514C167.788 68.0967 168.312 68.7441 168.682 69.5938C169.051 70.4375 169.235 71.4512 169.235 72.6348ZM164.753 68.6973C164.038 68.6973 163.49 68.9316 163.109 69.4004C162.729 69.8633 162.538 70.5166 162.538 71.3604C162.538 72.0928 162.714 72.6699 163.065 73.0918C163.423 73.5078 163.962 73.7158 164.683 73.7158C165.38 73.7158 165.966 73.5078 166.44 73.0918C166.915 72.6758 167.152 72.1895 167.152 71.6328C167.152 71.1113 167.05 70.625 166.845 70.1738C166.646 69.7168 166.364 69.3564 166.001 69.0928C165.638 68.8291 165.222 68.6973 164.753 68.6973ZM179.053 70.1035C179.053 70.918 178.815 71.5977 178.341 72.1426C177.866 72.6816 177.198 73.0449 176.337 73.2324V73.3027C177.368 73.4316 178.142 73.7539 178.657 74.2695C179.173 74.7793 179.431 75.459 179.431 76.3086C179.431 77.5449 178.994 78.5 178.121 79.1738C177.248 79.8418 176.006 80.1758 174.395 80.1758C172.971 80.1758 171.77 79.9443 170.791 79.4814V77.6445C171.336 77.9141 171.913 78.1221 172.522 78.2686C173.132 78.415 173.718 78.4883 174.28 78.4883C175.276 78.4883 176.021 78.3037 176.513 77.9346C177.005 77.5654 177.251 76.9941 177.251 76.2207C177.251 75.5352 176.979 75.0312 176.434 74.709C175.889 74.3867 175.033 74.2256 173.867 74.2256H172.751V72.5469H173.885C175.936 72.5469 176.961 71.8379 176.961 70.4199C176.961 69.8691 176.782 69.4443 176.425 69.1455C176.067 68.8467 175.54 68.6973 174.843 68.6973C174.356 68.6973 173.888 68.7676 173.437 68.9082C172.985 69.043 172.452 69.3096 171.837 69.708L170.826 68.2666C172.004 67.3994 173.372 66.9658 174.931 66.9658C176.226 66.9658 177.236 67.2441 177.963 67.8008C178.689 68.3574 179.053 69.125 179.053 70.1035ZM185.469 71.9756C186.764 71.9756 187.789 72.3184 188.545 73.0039C189.301 73.6895 189.679 74.624 189.679 75.8076C189.679 77.1787 189.248 78.251 188.387 79.0244C187.531 79.792 186.312 80.1758 184.73 80.1758C183.295 80.1758 182.167 79.9443 181.347 79.4814V77.6094C181.821 77.8789 182.366 78.0869 182.981 78.2334C183.597 78.3799 184.168 78.4531 184.695 78.4531C185.627 78.4531 186.336 78.2451 186.822 77.8291C187.309 77.4131 187.552 76.8037 187.552 76.001C187.552 74.4658 186.573 73.6982 184.616 73.6982C184.341 73.6982 184.001 73.7275 183.597 73.7861C183.192 73.8389 182.838 73.9004 182.533 73.9707L181.61 73.4258L182.103 67.1504H188.782V68.9873H183.922L183.632 72.1689C183.837 72.1338 184.086 72.0928 184.379 72.0459C184.678 71.999 185.041 71.9756 185.469 71.9756ZM200.56 77.1963H198.828V80H196.815V77.1963H190.944V75.6055L196.815 67.1152H198.828V75.4824H200.56V77.1963ZM196.815 75.4824V72.2568C196.815 71.1084 196.845 70.168 196.903 69.4355H196.833C196.669 69.8223 196.411 70.291 196.06 70.8418L192.869 75.4824H196.815ZM207.74 80H205.675V71.7031C205.675 70.7129 205.698 69.9277 205.745 69.3477C205.61 69.4883 205.443 69.6436 205.244 69.8135C205.051 69.9834 204.395 70.5225 203.275 71.4307L202.238 70.1211L206.018 67.1504H207.74V80Z" fill="#AAD2EB"/>
</svg>
