<?xml version="1.0" encoding="UTF-8"?>
<svg width="196px" height="187px" viewBox="0 0 196 187" version="1.1" xmlns="http://www.w3.org/2000/svg" xmlns:xlink="http://www.w3.org/1999/xlink">
    <!-- Generator: Sketch 55.2 (78181) - https://sketchapp.com -->
    <title>Logo</title>
    <desc>Created with Sketch.</desc>
    <g id="Style-Guide" stroke="none" stroke-width="1" fill="none" fill-rule="evenodd">
        <g transform="translate(-602.000000, -1544.000000)" id="Logo-Color">
            <g transform="translate(0.000000, 1439.000000)">
                <g id="Logo" transform="translate(592.000000, 105.000000)">
                    <g>
                        <ellipse id="Oval" fill="#285467" cx="107.5" cy="63" rx="65.5" ry="63"></ellipse>
                        <g id="whitewolf" transform="translate(63.000000, 30.000000)">
                            <g id="noun_Wolf_1080124">
                                <g id="Group" transform="translate(3.814286, 3.857143)">
                                    <path d="M0,93.2353819 L0,91.6471298 C0.936504901,88.0687543 2.11294882,84.8241364 3.52933175,81.9132761 C4.94571469,79.0024158 7.47905267,74.6229253 11.1293457,68.7748048 C13.78949,65.1245885 15.7906346,62.416767 17.1327794,60.6513403 C18.4749242,58.8859136 20.2384002,56.871131 22.4232073,54.6069925 C22.9645578,58.3225011 23.235233,60.9535451 23.235233,62.5001245 C23.235233,64.046704 23.235233,64.9006473 23.235233,65.0619545 L25.6166535,71.8606959 L27.4729392,73.3100752 L29.1834935,71.8606959 L29.1834935,70.7569986 C28.6218021,70.6173744 28.2211411,70.3584 27.9815106,69.9800752 C27.7418801,69.6017504 27.4324578,68.7396568 27.0532436,67.3937944 C26.7466591,66.0026151 26.4619121,64.3713918 26.1990025,62.5001245 C25.9360929,60.6288573 25.7419766,57.7641291 25.6166535,53.9059398 L33.401695,54.6069925 L34.3335379,53.9059398 C34.467133,53.3845113 34.467133,52.9958091 34.3335379,52.7398335 C34.1999429,52.4838578 33.8080019,52.1215788 33.1577148,51.6529965 L31.7875767,51.6529965 C30.2282115,51.5585407 29.0648047,51.4222785 28.2973563,51.2442101 C27.5299079,51.0661417 26.4689356,50.6862887 25.1144392,50.1046512 C22.969094,49.473974 21.48783,48.8940831 20.6706473,48.3649785 C19.8534646,47.8358738 17.9404758,46.3475849 14.9316807,43.9001116 L36.3475106,35.9039098 L37.2153599,34.1308068 L36.6704398,32.9754423 L36.4372356,32.9754423 L35.7369838,34.1308068 L32.5726772,34.1308068 C35.8346914,29.008848 38.2079877,25.3907445 39.6925659,23.2764963 C41.1771442,21.1622482 42.0127091,20.2189067 42.1992606,20.4464719 C42.7063628,20.0608628 43.2385045,19.7803411 43.7956857,19.6049068 C46.4231654,18.5062204 50.3145356,16.9370409 55.4697963,14.8973684 L56.8306222,24.7924286 L59.9213484,36.7731236 L65.171889,45.6428571 L67.585927,47.3334961 C68.2673917,47.7567205 68.7986539,48.0197076 69.1797137,48.1224574 C69.5607734,48.2252071 70.0256581,48.3060475 70.5743677,48.3649785 C70.774652,48.3832256 70.9178873,48.4402245 71.0040737,48.5359751 C72.9350863,50.6812766 74.1113818,52.5654368 74.9626918,53.4728132 C75.4531355,53.9955569 75.3712542,54.2520535 75.6478271,54.6069925 C75.9244001,54.9619315 76.3726159,55.8976069 76.3785261,56.8212019 C76.3791832,56.9238944 77.2634445,57.0661332 77.177437,57.3020979 C77.0587425,57.6277406 76.8451808,57.954646 76.7187326,58.1161063 C76.4452807,58.4652737 76.729752,58.1040213 76.3785261,58.4278826 C76.0273002,58.7517439 75.7963767,58.9225951 75.6478271,59.0617153 C75.3859947,59.3069275 75.3016074,59.373245 75.1429496,59.5466832 C74.5538921,60.1906166 74.2052762,60.2941971 74.0469012,60.6513403 C73.6126419,61.6306153 73.6331735,61.7761895 73.6157143,61.7712577 C73.601445,61.7672269 73.5003338,61.6527347 73.6157143,61.8932059 C74.1917476,63.09375 74.8691185,64.1499995 75.6478271,65.0619545 C76.5268023,66.1505576 76.8837708,66.9278376 76.7187326,67.3937944 C76.6022753,67.7225913 76.8300136,67.5202775 76.7187326,67.8616071 C76.6382548,68.1084547 76.5872861,68.5908959 76.3785261,69.0552717 C76.0674566,69.7472296 75.565474,70.457262 75.378704,70.7569986 C75.1735407,71.0862534 74.6054792,72.2726179 74.6054792,72.4668719 C74.6054792,72.5456612 74.2799767,73.4442881 74.6054792,74.2016602 C75.0824984,75.3115779 76.3683663,76.5108885 77.2774286,77.6133859 C77.6755138,78.0961778 78.8024674,79.4460824 79.3121861,80.3533761 C79.5135605,80.7118204 79.756379,81.2221592 79.8770499,81.4349016 C80.05049,81.9084337 79.9842957,81.9959712 79.9842957,82.1188398 C79.9842957,83.035178 78.6687996,83.6849173 78.6396885,83.7245309 C78.5466132,83.8511857 77.7782345,84.2238555 77.177437,84.8537685 C77.0110535,85.0282152 76.858152,85.3351785 76.7187326,85.7746582 C76.6889545,86.1279782 76.6889545,86.5301825 76.7187326,86.9812709 C76.7285747,87.1303629 77.3021432,88.3120292 77.5241621,88.6315744 C77.5829516,88.7987752 78.2391854,89.5231445 78.2391854,90.5065482 C78.3082819,90.7694521 78.1329987,90.8251002 78.129534,91.2066429 C78.1268085,91.5067948 77.8427733,91.9617234 77.2774286,92.5714286 L76.7187326,93.594805 L76.7187326,93.8571429" id="Path-2" fill="#FFFFFF"></path>
                                    <path d="M58.750082,11.8177444 C59.7333201,10.7160902 60.2249392,10.1652632 60.2249392,10.1652632 C60.2249392,10.1652632 60.9974355,9.53717164 62.5424282,8.2809886 L65.6545724,7.30820359 L68.216054,7.30820359 L70.9557963,8.2809886 L71.6662319,8.72806222 C71.8266756,8.73643337 71.9340269,8.80950787 71.9882857,8.94728571 C72.1349925,9.31981382 72.2000445,10.3002937 72.2485561,10.701695 C72.3239804,11.3257811 72.3239804,12.3427082 72.2485561,13.7524763 L71.9882857,17.8219343 L71.4288571,21.3325714 L71.4288571,22.2940336 L72.2485561,22.9777384 L73.1426535,23.1597744 L74.5373448,22.7368983 L76.2975098,22.2940336 L78.129534,21.8163266 L79.9472796,21.3069925 C80.3713466,21.057448 80.6426343,20.9907601 80.7611429,21.1069286 C80.8796514,21.2230971 80.9440047,21.6187988 80.9542028,22.2940336 L80.9542028,23.1597744 L80.7611429,25.0348249 L78.129534,31.5295061 L75.9811244,35.6670271 C75.376202,36.9628486 74.8238745,38.0402819 74.324142,38.8993269 C73.8244095,39.7583719 73.1325475,41.2163996 72.2485561,43.2734101 L71.6662319,44.5526442 C71.6086298,44.7573071 71.5295049,44.8872528 71.4288571,44.9424812 C71.3282094,44.9977096 71.1705224,44.9977096 70.9557963,44.9424812 C70.2010605,44.8218495 69.6713731,44.6919038 69.3667341,44.5526442 C68.9106988,44.3441766 68.5469008,43.930578 68.216054,43.6906015 C67.5536906,43.2101628 66.6998635,42.345726 65.6545724,41.0972911 C65.0427219,40.234799 64.4970257,39.3142273 64.017484,38.3355761 C63.5379422,37.3569248 62.8962267,35.8542209 62.0923375,33.8274644 L60.2249392,26.1253424 L59.1670585,20.1050779 L59.1670585,16.2812823 L58.750082,11.8177444 Z" id="Path-3" fill="#FFFFFF"></path>
                                    <path d="M64,4.25639098 C64,4.25639098 64.2693461,3.71136175 64.8080382,2.62130329 C64.9422842,2.34965275 65.1598204,1.85114326 65.4606467,1.12577483 L65.8817143,-6.3504757e-14 C66.4150034,0.0157110917 66.8006182,0.0548259075 67.0385585,0.117344448 C67.2764989,0.179862988 67.5978886,0.299756379 68.0027278,0.477024623 L68.8143154,1.01028878 C68.9731288,1.13113839 69.1359503,1.27310617 69.3027797,1.4361921 C69.4696091,1.59927804 69.7315735,1.89251163 70.0886728,2.31589286 C70.4691799,2.93883519 70.7210298,3.41265076 70.8442226,3.73733956 C70.9674154,4.06202837 71.0860079,4.36124851 71.2,4.635 L68.0027278,4.03694527 L65.8817143,4.03694527 C64.6272381,4.18324241 64,4.25639098 64,4.25639098 Z" id="Path-4" fill="#FFFFFF"></path>
                                    <path d="M47.29788,24.912406 C48.2153117,25.3361217 48.6740276,25.5479795 48.6740276,25.5479795 C48.6740276,25.5479795 48.8818158,25.790509 49.2973922,26.275568 L49.2973922,27.1031955 L49.2973922,27.566391 L48.6740276,28.4875739 L47.7704317,29.293985 L46.7352232,29.293985 L45.7478173,28.4875739 L45.2983677,27.1031955 L45.2983677,26.275568 L45.7478173,25.5479795 L46.7352232,24.912406 L47.29788,24.912406 Z" id="Path-6"></path>
                                </g>
                                <path d="M50.6537143,33.0370714 C51.7908679,32.9170409 52.6532265,31.9709106 52.6532265,30.8433214 C52.6532265,29.7157323 51.7908679,28.769602 50.6537143,28.6495714 C49.5165607,28.769602 48.6542021,29.7157323 48.6542021,30.8433214 C48.6542021,31.9709106 49.5165607,32.9170409 50.6537143,33.0370714 L50.6537143,33.0370714 Z" id="Path" fill="#193541" fill-rule="nonzero"></path>
                                <path d="M78.32,51.3642857 C79.1441192,48.3131325 80.4026315,45.392524 82.058,42.6895714 C86.1011429,34.8923571 90.6782857,26.0672143 86.6351429,21.78 C86.1891949,21.3060629 85.5097272,21.1215909 84.8805714,21.3036429 L79.0065714,23.0085 C80.1762857,12.6790714 79.0065714,5.78442857 75.1414286,2.475 C73.3028917,0.814402622 70.7722616,0.116150515 68.3265714,0.594642857 C67.7772879,0.731412904 67.3307971,1.12480084 67.1314286,1.64764286 C67.1314286,1.64764286 63.0374286,12.303 57.6465714,16.0887857 C54.7486192,18.0220749 51.4900422,19.3685578 48.06,20.0500714 C45.6710577,20.5439187 43.5671767,21.9268068 42.186,23.9110714 C39.6431429,27.4962857 35.0151429,34.4410714 31.3788571,41.0348571 L14.3457868,46.9166434 C14.2206387,47.3627471 12.8754741,48.9673185 17.3722586,51.3642857 C18.8823819,53.6245712 22.3280028,53.9419389 24.6402857,55.4007857 C18.0034286,63.3233571 0.762857143,84.9349286 0.762857143,95.5150714 C0.762857143,96.4497147 1.53132839,97.2073929 2.47928571,97.2073929 C3.42724304,97.2073929 4.19571429,96.4497147 4.19571429,95.5150714 C4.19571429,87.9936429 15.3842857,71.8476429 26.4711429,58.5347143 C26.6745714,66.5325 27.7171429,77.2630714 31.7602857,77.2630714 C32.6162055,77.2633821 33.3435613,76.6462493 33.47084,75.8117335 C33.5981187,74.9772177 33.0870159,74.1764662 32.2688571,73.9285714 C31.4805714,72.8003571 30.1328571,67.3598571 29.904,57.8327143 C32.2283412,58.5827685 34.6548209,58.9800929 37.1002857,59.0110714 C37.9678915,58.9067604 38.620125,58.1805067 38.620125,57.31875 C38.620125,56.4569933 37.9678915,55.7307396 37.1002857,55.6264286 C31.6554185,55.6925942 22.3609832,51.7722514 18.7459664,47.7572545 L40.6348571,39.8063571 C41.1754,39.5197281 41.5197891,38.9705459 41.5382965,38.3656823 C41.5568038,37.7608187 41.2466177,37.1921668 40.7245822,36.8739323 C40.2025467,36.5556978 39.5479714,36.536228 39.0074286,36.8228571 L36.9731429,37.926 C39.9228571,33.0621429 43.0251429,28.4740714 44.8814286,25.7914286 C45.7601218,24.5075689 47.1088882,23.6090398 48.6448571,23.2842857 C52.620528,22.5369214 56.4009548,21.0016364 59.7571429,18.7714286 C60.2657143,37.2490714 66.6737143,51.5147143 74.8617143,52.2919286 C75.0397143,53.6457857 79.4658626,57.2116867 80.1270054,60.0949009 C80.515602,61.8257867 76.437532,63.6648223 76.6349226,65.7324568 C76.8371169,67.8504091 79.1338557,68.6496271 79.5030866,71.1179548 C79.7754135,72.9384735 77.3171687,75.3779197 77.43,77.2630714 C77.5424245,79.1414251 82.6901013,83.8343845 82.9538853,85.6104911 C83.1805449,87.1366317 79.9756611,88.3677786 79.5030866,89.3813128 C78.492891,91.5478874 81.8123429,92.4548935 81.0917143,94.6425084 C80.8063698,95.5279509 79.6651863,96.8969106 80.5577143,97.1948571 C80.7346404,97.2221199 80.3807881,97.7415485 80.5577143,97.7142857 C82.1851429,97.7268214 82.4362567,97.1948571 83.8109855,97.1948571 C85.1857143,97.1948571 87.9806222,97.7142857 86.6351429,96.4285714 C85.2896635,95.1428571 83.3047503,91.8645005 83.7379743,90.3195452 C84.7568058,86.6862079 86.9713822,88.0969632 86.6351429,85.6104911 C86.5507891,84.9866999 86.2691904,83.7499362 85.1857143,82.4012277 C83.6346644,80.4704845 81.1321668,78.298177 81.0917143,77.2630714 C81.0110253,75.1983863 84.5754286,73.9285714 83.7379743,71.1179548 C83.3722216,69.8904363 81.1131953,68.1985683 81.0917143,66.8169643 C81.0700851,65.4258274 84.8805714,63.3835798 85.1857143,60.5673131 C84.4911364,56.1019344 78.3962857,52.4172857 78.32,51.3642857 Z M69.9285714,3.85392857 C71.0195692,3.89002162 72.0595717,4.3180129 72.8528571,5.05735714 C73.8588545,6.00163692 74.6029476,7.1840958 75.0142857,8.49214286 C72.7843718,7.67237293 70.3542075,7.54120325 68.0468571,8.11607143 C68.9114286,6.23571429 69.598,4.80664286 69.9285714,3.85392857 Z M63.19,16.3896429 C63.1560013,16.0685928 63.1051442,15.8345928 63.0374286,15.6876429 C63.4188571,15.2363571 63.7748571,14.8101429 64.1308571,14.3337857 C64.2719968,14.2520843 64.4004597,14.1507574 64.5122857,14.0329286 C67.3614815,10.7579657 72.2976162,10.2208631 75.8025714,12.8044286 C76.1204136,16.9400397 75.9325885,21.0983321 75.2431429,25.1897143 C75.1559016,25.7609629 75.3724997,26.3363324 75.8166315,26.7131249 C76.2607633,27.0899174 76.8701085,27.2152617 77.43,27.045 L84.5754286,24.9640714 C85.6942857,28.2484286 81.702,35.9453571 78.9811429,41.1852857 C77.6063581,43.6608205 76.4000773,46.2237617 75.3702857,48.8571429 C69.5725714,48.4810714 63.2408571,35.2433571 63.2408571,16.2642857 L63.19,16.3896429 Z" id="Shape" fill="#193541" fill-rule="nonzero"></path>
                            </g>
                        </g>
                        <path d="M121.049805,50.2070312 L126.037429,45.6876429 C126.69867,44.9852543 127.150549,45.7934749 127.393066,48.1123047 C127.479269,48.9365311 132.310534,49.0811979 132.790039,50.2070312 C133.36971,51.5680443 133.36971,54.3822244 132.790039,58.6495714 L138.480518,63.9464086 L138.480518,73.5625 L138.480518,78.409787 C138.298075,79.002474 138.159468,79.4328949 138.064697,79.7010498 C137.969927,79.9692047 137.795436,80.3307595 137.541225,80.7857143 C137.505068,81.2194268 137.505068,81.5411402 137.541225,81.7508545 C137.577382,81.9605688 137.66976,82.1746566 137.818359,82.393118 C137.193462,82.5071157 136.516054,82.4501168 135.786133,82.2221213 C135.056212,81.9941258 134.057514,81.5153235 132.790039,80.7857143 L127.393066,88.2343985 L121.049805,73.5625 L116.111678,55.1152344 L121.049805,50.2070312 Z" id="Path-5" fill="#FFFFFF"></path>
                        <text id="TravelPak" font-family="MoonFlowerBold, Moon Flower Bold" font-size="72" font-weight="bold" fill="#193541">
                            <tspan x="8.578125" y="186">TravelPak</tspan>
                        </text>
                    </g>
                </g>
            </g>
        </g>
    </g>
</svg>