<?xml version="1.0" encoding="UTF-8"?>
<svg width="811px" height="847px" viewBox="0 0 811 847" version="1.1" xmlns="http://www.w3.org/2000/svg" xmlns:xlink="http://www.w3.org/1999/xlink">
    <!-- Generator: Sketch 55.2 (78181) - https://sketchapp.com -->
    <title>Logo</title>
    <desc>Created with Sketch.</desc>
    <g id="Case-Study-images" stroke="none" stroke-width="1" fill="none" fill-rule="evenodd">
        <g id="Logo" transform="translate(-97.000000, 0.000000)">
            <g>
                <ellipse id="Oval" fill="#D3E6EE" cx="499.685185" cy="291.666667" rx="303.240741" ry="291.666667"></ellipse>
                <g id="whitewolf" transform="translate(293.666667, 138.888889)">
                    <g id="noun_Wolf_1080124">
                        <g id="Group" transform="translate(17.658730, 13.227513)">
                            <path d="M0,436.274916 L0,428.921897 C4.33567084,412.355344 9.78217045,397.333965 16.3394989,383.85776 C22.8968273,370.381555 34.6252438,350.106136 51.5247486,323.031504 C63.8402315,306.132354 73.1047896,293.596143 79.318423,285.422872 C85.5320563,277.2496 93.696297,267.921903 103.811145,257.43978 C106.317397,274.641209 107.570523,286.821968 107.570523,293.982058 C107.570523,301.142148 107.570523,305.09559 107.570523,305.842382 L118.595618,337.318037 L127.189533,344.028126 L135.108766,337.318037 L135.108766,332.208327 C132.508343,331.561919 130.653431,330.362963 129.544031,328.611459 C128.43463,326.859956 127.002119,322.868782 125.246498,316.637937 C123.827126,310.197292 122.508852,302.645332 121.291678,293.982058 C120.074504,285.318784 119.175817,272.056153 118.595618,254.194166 L154.637477,257.43978 L158.951565,254.194166 C159.57006,251.780145 159.57006,249.980598 158.951565,248.795525 C158.333069,247.610453 156.518527,245.933235 153.507939,243.763873 L147.164707,243.763873 C139.945424,243.326577 134.559281,242.695734 131.006279,241.871343 C127.453277,241.046952 122.541368,239.288374 116.270552,236.595607 C106.338398,233.675806 99.4806945,230.991126 95.6974413,228.541567 C91.9141881,226.092008 83.0577582,219.201782 69.1281515,207.870887 L168.275512,170.851434 L172.293333,162.642624 L169.770555,157.293714 L168.690906,157.293714 L165.821992,159.454507 L150.63328,164.350883 C165.845965,139.499271 176.888832,122.179373 183.761879,112.391187 C190.634927,102.603001 194.503283,98.2356791 195.366947,99.2892217 C197.714642,97.5039944 200.178261,96.2052828 202.757804,95.3930869 C214.922062,90.3065759 232.937665,83.0418562 256.804613,73.5989279 L263.104732,119.409392 L277.41365,174.875572 L301.721708,215.939153 L312.89781,223.766186 C316.052739,225.725558 318.512287,226.943091 320.276452,227.418784 C322.040618,227.894477 324.192862,228.268738 326.733184,228.541567 C327.76222,228.278209 328.492252,228.385936 328.92328,228.864749 C337.785266,238.709179 343.964843,247.596761 347.884026,251.774056 C350.154598,254.194166 352.323857,255.796544 353.604287,257.43978 C354.884718,259.083016 357.738511,262.900811 357.765873,267.176714 C357.768915,267.652142 357.701132,268.824691 357.302949,269.91712 C356.753438,271.424725 355.764726,272.938176 355.179317,273.685677 C353.913337,275.302193 355.230333,273.629728 353.604287,275.129086 C351.978241,276.628444 350.909152,277.419422 350.221422,278.063497 C349.009235,279.198738 348.618553,279.505764 347.884026,280.308718 C345.156908,283.289892 343.542945,283.769431 342.809728,285.422872 C340.799268,289.956552 340.894322,290.630507 340.813492,290.607674 C340.747431,290.589014 340.279323,290.058957 340.813492,291.17225 C343.480313,296.730324 346.61629,301.620368 350.221422,305.842382 C354.290751,310.882211 355.943383,314.480729 355.179317,316.637937 C354.640163,318.160145 355.694508,317.223507 355.179317,318.803737 C354.806735,319.946549 354.570769,322.180074 353.604287,324.329962 C352.164151,327.53347 349.840157,330.820657 348.975481,332.208327 C348.025651,333.732654 345.395737,339.225083 345.395737,340.124407 C345.395737,340.489172 343.888781,344.649482 345.395737,348.155834 C347.604159,353.294342 353.557251,358.846706 357.765873,363.950861 C359.60886,366.186008 364.826238,372.435567 367.186047,376.636001 C368.118336,378.295465 369.242496,380.658145 369.801157,381.643063 C370.60412,383.835341 370.297665,384.240607 370.297665,384.809444 C370.297665,389.05175 364.207405,392.059802 364.072632,392.243199 C363.641728,392.829563 360.084419,394.554887 357.302949,397.47115 C356.532655,398.278774 355.824778,399.6999 355.179317,401.734529 C355.041456,403.37027 355.041456,405.232326 355.179317,407.320699 C355.224883,408.010939 357.880293,413.481616 358.908158,414.960992 C359.180331,415.73507 362.218451,419.088632 362.218451,423.641427 C362.538342,424.858575 361.726846,425.116205 361.710806,426.882606 C361.698187,428.272198 360.38321,430.378349 357.765873,433.201058 L355.179317,437.938912 L355.179317,439.153439" id="Path-2" fill="#FFFFFF"></path>
                            <path d="M271.991121,59.3414091 C276.543149,54.2411585 278.819163,51.6910331 278.819163,51.6910331 C278.819163,51.6910331 282.395535,48.783202 289.548278,42.9675398 L303.956354,38.4639055 L315.815065,38.4639055 C319.33381,38.9193066 321.858638,39.418793 323.389548,39.9623649 C324.920459,40.5059367 326.623628,41.5076617 328.499057,42.9675398 L334.484056,45.1698505 L334.938259,68.2366184 L333.940787,88.3265097 L332.802594,102.415176 L331.78811,106.42089 L334.484056,111.008048 L338.623396,111.850808 L345.0803,109.893048 L353.229212,107.842748 L361.710806,105.631142 L370.126294,103.273113 C372.576202,101.670651 374.130096,101.191864 374.787976,101.836755 C375.445856,102.481645 375.445856,104.483643 374.787976,107.842748 L374.787976,111.850808 L373.949614,119.474502 C373.493773,122.432889 372.430932,126.261433 370.761092,130.960131 C369.091252,135.65883 366.07449,142.205308 361.710806,150.599565 L353.229212,169.991307 C350.11018,176.391515 347.393876,181.580149 345.0803,185.557209 C342.766724,189.534269 339.234642,196.00503 334.484056,204.969491 L331.78811,213.624339 L328.499057,212.166277 C325.00491,211.961394 322.552653,211.536592 321.142287,210.891871 C319.031013,209.926744 317.346763,208.011935 315.815065,206.900933 C312.748568,204.67668 308.795664,200.674658 303.956354,194.894866 C301.123712,190.901847 298.597341,186.639941 296.377241,182.109148 C294.15714,177.578356 291.186235,170.621393 287.464525,161.238261 L278.819163,125.580289 L273.921567,97.7086942 L273.921567,80.0059366 L271.991121,59.3414091 Z" id="Path-3" fill="#FFFFFF"></path>
                            <path d="M296.296296,24.3351434 C296.296296,24.3351434 297.543269,21.8118599 300.037214,16.765293 C300.658723,15.5076516 301.665835,13.1997373 303.05855,9.84155012 L305.007937,4.62962963 C307.064335,4.28321174 308.680329,4.27825142 309.855918,4.61474868 C311.031508,4.95124593 312.390764,5.33985325 313.933688,5.78057064 L319.047643,9.34221379 L324.087565,14.9489711 C325.765264,17.6498197 326.952624,19.7007139 327.649644,21.1016539 C328.346664,22.5025938 329.006659,24.1646969 329.62963,26.087963 L314.827444,23.3191911 L305.007937,23.3191911 C299.200176,23.9964926 296.296296,24.3351434 296.296296,24.3351434 Z" id="Path-4" fill="#FFFFFF"></path>
                            <path d="M218.971667,119.964843 C223.219036,121.926489 225.34272,122.907312 225.34272,122.907312 C225.34272,122.907312 226.304703,124.030134 228.228668,126.275778 L228.228668,130.107387 L228.228668,132.25181 L225.34272,136.516546 L221.159406,140.24993 L216.366774,140.24993 L211.795451,136.516546 L209.714665,130.107387 L209.714665,126.275778 L211.795451,122.907312 L216.366774,119.964843 L218.971667,119.964843 Z" id="Path-6" fill="#193541"></path>
                        </g>
                        <path d="M234.507937,152.949405 C239.772537,152.393708 243.764938,148.013475 243.764938,142.793155 C243.764938,137.572835 239.772537,133.192602 234.507937,132.636905 C229.243336,133.192602 225.250935,137.572835 225.250935,142.793155 C225.250935,148.013475 229.243336,152.393708 234.507937,152.949405 L234.507937,152.949405 Z" id="Path" fill="#193541" fill-rule="nonzero"></path>
                        <path d="M362.592593,237.797619 C366.407959,223.67191 372.234405,210.150574 379.898148,197.636905 C398.616402,161.53869 419.806878,120.681548 401.088624,100.833333 C399.02405,98.6391799 395.878367,97.7851429 392.965608,98.6279762 L365.771164,106.520833 C371.186508,58.6994048 365.771164,26.7797619 347.876984,11.4583333 C339.365239,3.77038251 327.649359,0.537733865 316.32672,2.75297619 C313.78374,3.38617085 311.716653,5.20741131 310.793651,7.62797619 C310.793651,7.62797619 291.839947,56.9583333 266.882275,74.485119 C253.465829,83.4355318 238.379825,89.6692489 222.5,92.8244048 C211.440082,95.1107348 201.699892,101.512995 195.305556,110.699405 C183.533069,127.297619 162.107143,159.449405 145.272487,189.97619 L66.4156798,217.206682 C65.8362905,219.271977 59.6086762,226.700549 80.4271234,237.797619 C87.4184346,248.261904 103.370383,249.731199 114.075397,256.485119 C83.3492063,293.16369 3.53174603,393.217262 3.53174603,442.199405 C3.53174603,446.526457 7.08948329,450.034226 11.4781746,450.034226 C15.8668659,450.034226 19.4246032,446.526457 19.4246032,442.199405 C19.4246032,407.377976 71.223545,332.627976 122.551587,270.994048 C123.493386,308.020833 128.320106,357.699405 147.03836,357.699405 C151.000951,357.700843 154.368339,354.843747 154.957593,350.980248 C155.546846,347.116749 153.180629,343.409566 149.392857,342.261905 C145.743386,337.03869 139.503968,311.85119 138.444444,267.744048 C149.205283,271.216521 160.438985,273.055986 171.760582,273.199405 C175.777275,272.716483 178.796875,269.354198 178.796875,265.364583 C178.796875,261.374969 175.777275,258.012684 171.760582,257.529762 C146.552863,257.836084 103.523071,239.686349 86.7868817,221.0984 L188.124339,184.28869 C190.626852,182.961704 192.221246,180.419194 192.306928,177.6189 C192.39261,174.818605 190.956563,172.185958 188.539732,170.71265 C186.122901,169.239342 183.09246,169.149204 180.589947,170.47619 L171.171958,175.583333 C184.828042,153.065476 199.190476,131.824405 207.784392,119.404762 C211.852416,113.460967 218.096704,109.30111 225.207672,107.797619 C243.613556,104.337599 261.115532,97.229798 276.653439,86.9047619 C279.007937,172.449405 308.674603,238.494048 346.582011,242.092262 C347.406085,248.360119 367.897512,264.86892 370.958359,278.217134 C372.757417,286.230494 353.877463,294.744548 354.791308,304.316929 C355.727393,314.122264 366.360443,317.822348 368.069846,329.249791 C369.330618,337.678118 357.949855,348.971851 358.472222,357.699405 C358.992706,366.395487 382.824543,388.12215 384.045765,396.344866 C385.095115,403.410332 370.25769,409.110086 368.069846,413.802374 C363.393014,423.832812 378.760847,428.031914 375.424603,438.159761 C374.103564,442.259032 368.820307,448.596808 372.952381,449.97619 C373.771483,450.102407 372.133278,452.507169 372.952381,452.380952 C380.486772,452.438988 381.649337,449.97619 388.013822,449.97619 C394.378307,449.97619 407.317695,452.380952 401.088624,446.428571 C394.859553,440.47619 385.67014,425.298613 387.675807,418.146043 C392.392619,401.325037 402.645288,407.856311 401.088624,396.344866 C400.698098,393.456944 399.3944,387.731186 394.378307,381.487165 C387.19752,372.548539 375.611883,362.49156 375.424603,357.699405 C375.051043,348.140677 391.55291,342.261905 387.675807,329.249791 C385.982508,323.566835 375.524052,315.734112 375.424603,309.337798 C375.324468,302.897349 392.965608,293.442499 394.378307,280.404227 C391.162668,259.731178 362.945767,242.672619 362.592593,237.797619 Z M323.743386,17.8422619 C328.794302,18.0093594 333.609128,19.9908005 337.281746,23.4136905 C341.939141,27.7853561 345.384017,33.2597028 347.28836,39.3154762 C336.964684,35.520245 325.713924,34.912978 315.031746,37.5744048 C319.034392,28.8690476 322.212963,22.2529762 323.743386,17.8422619 Z M292.546296,75.8779762 C292.388895,74.3916336 292.153445,73.3083002 291.839947,72.6279762 C293.60582,70.5386905 295.253968,68.5654762 296.902116,66.360119 C297.555541,65.9818716 298.150276,65.5127656 298.667989,64.9672619 C311.858711,49.8053966 334.711186,47.3188107 350.937831,59.2797619 C352.409322,78.4261095 351.539762,97.6774636 348.347884,116.619048 C347.943989,119.263717 348.946758,121.927465 351.002924,123.671875 C353.05909,125.416284 355.880132,125.996582 358.472222,125.208333 L391.55291,115.574405 C396.732804,130.779762 378.25,166.41369 365.653439,190.672619 C359.288695,202.133428 353.704061,213.998897 348.936508,226.190476 C322.095238,224.449405 292.781746,163.16369 292.781746,75.297619 L292.546296,75.8779762 Z" id="Shape" fill="#193541" fill-rule="nonzero"></path>
                        <path d="M268.749096,93.5510706 L291.839947,72.6279762 C294.901249,69.3761772 296.993282,73.1179393 298.116048,83.8532624 C299.238814,94.5885856 299.238814,110.8498 298.116048,132.636905 L312.84165,181.651928 L331.160053,213.779026 L347.28836,225.924185 L345.098263,235.119048 L344.391914,241.76908 C342.825126,242.824615 340.3521,242.824615 336.972837,241.76908 C333.593574,240.713546 328.969973,238.496868 323.102033,235.119048 L310.904334,225.924185 L281.910084,162.430375 L274.520309,106.553819 L268.749096,93.5510706 Z" id="Path-5" fill="#FFFFFF"></path>
                    </g>
                </g>
                <text id="TravelPak" font-family="MoonFlowerBold, Moon Flower Bold" font-size="300" font-weight="bold" fill="#FFFFFF">
                    <tspan x="85.7421875" y="844">TravelPak</tspan>
                </text>
            </g>
            <path d="M562.415762,232.439959 L585.506614,211.516865 C588.567915,208.265066 590.659949,212.006828 591.782715,222.742151 C592.905481,233.477474 592.905481,249.738689 591.782715,271.525794 L606.508316,320.540817 L624.82672,352.667914 L642.603175,365.079365 C641.78196,366.727014 641.232577,368.077094 640.955026,369.129605 C640.677475,370.182116 640.442026,371.808226 640.248677,374.007937 L640.248677,380.981151 C637.221825,381.821231 634.018767,381.713504 630.639504,380.657969 C627.260241,379.602434 622.636639,377.385757 616.768699,374.007937 L604.571001,364.813074 L575.576751,301.319264 L568.186976,245.442708 L562.415762,232.439959 Z" id="Path-5" fill="#FFFFFF"></path>
        </g>
    </g>
</svg>