<?xml version="1.0" encoding="UTF-8"?>
<svg width="196px" height="187px" viewBox="0 0 196 187" version="1.1" xmlns="http://www.w3.org/2000/svg" xmlns:xlink="http://www.w3.org/1999/xlink">
    <!-- Generator: Sketch 55.2 (78181) - https://sketchapp.com -->
    <title>Logo</title>
    <desc>Created with Sketch.</desc>
    <g id="Style-Guide" stroke="none" stroke-width="1" fill="none" fill-rule="evenodd">
        <g transform="translate(-102.000000, -1544.000000)" id="Logo-Color">
            <g transform="translate(0.000000, 1439.000000)">
                <g id="Logo" transform="translate(92.000000, 105.000000)">
                    <g>
                        <ellipse id="Oval" fill="#D3E6EE" cx="107.5" cy="63" rx="65.5" ry="63"></ellipse>
                        <g id="whitewolf" transform="translate(63.000000, 30.000000)">
                            <g id="noun_Wolf_1080124">
                                <g id="Group" transform="translate(3.814286, 2.857143)">
                                    <path d="M0,94.2353819 L0,92.6471298 C0.936504901,89.0687543 2.11294882,85.8241364 3.52933175,82.9132761 C4.94571469,80.0024158 7.47905267,75.6229253 11.1293457,69.7748048 C13.78949,66.1245885 15.7906346,63.416767 17.1327794,61.6513403 C18.4749242,59.8859136 20.2384002,57.871131 22.4232073,55.6069925 C22.9645578,59.3225011 23.235233,61.9535451 23.235233,63.5001245 C23.235233,65.046704 23.235233,65.9006473 23.235233,66.0619545 L25.6166535,72.8606959 L27.4729392,74.3100752 L29.1834935,72.8606959 L29.1834935,71.7569986 C28.6218021,71.6173744 28.2211411,71.3584 27.9815106,70.9800752 C27.7418801,70.6017504 27.4324578,69.7396568 27.0532436,68.3937944 C26.7466591,67.0026151 26.4619121,65.3713918 26.1990025,63.5001245 C25.9360929,61.6288573 25.7419766,58.7641291 25.6166535,54.9059398 L33.401695,55.6069925 L34.3335379,54.9059398 C34.467133,54.3845113 34.467133,53.9958091 34.3335379,53.7398335 C34.1999429,53.4838578 33.8080019,53.1215788 33.1577148,52.6529965 L31.7875767,52.6529965 C30.2282115,52.5585407 29.0648047,52.4222785 28.2973563,52.2442101 C27.5299079,52.0661417 26.4689356,51.6862887 25.1144392,51.1046512 C22.969094,50.473974 21.48783,49.8940831 20.6706473,49.3649785 C19.8534646,48.8358738 17.9404758,47.3475849 14.9316807,44.9001116 L36.3475106,36.9039098 L37.2153599,35.1308068 L36.6704398,33.9754423 L36.4372356,33.9754423 L35.8175502,34.4421735 L32.5367885,35.4997907 C35.8227285,30.1318426 38.2079877,26.3907445 39.6925659,24.2764963 C41.1771442,22.1622482 42.0127091,21.2189067 42.1992606,21.4464719 C42.7063628,21.0608628 43.2385045,20.7803411 43.7956857,20.6049068 C46.4231654,19.5062204 50.3145356,17.9370409 55.4697963,15.8973684 L56.8306222,25.7924286 L59.9213484,37.7731236 L65.171889,46.6428571 L67.585927,48.3334961 C68.2673917,48.7567205 68.7986539,49.0197076 69.1797137,49.1224574 C69.5607734,49.2252071 70.0256581,49.3060475 70.5743677,49.3649785 C70.7966395,49.3080932 70.9543265,49.3313623 71.0474286,49.4347857 C72.9616174,51.5611826 74.2964062,53.4809004 75.1429496,54.3831961 C75.6333932,54.9059398 76.1019531,55.2520535 76.3785261,55.6069925 C76.6550991,55.9619315 77.2715183,56.7865752 77.2774286,57.7101702 C77.2780857,57.8128628 77.2634445,58.0661332 77.177437,58.3020979 C77.0587425,58.6277406 76.8451808,58.954646 76.7187326,59.1161063 C76.4452807,59.4652737 76.729752,59.1040213 76.3785261,59.4278826 C76.0273002,59.7517439 75.7963767,59.9225951 75.6478271,60.0617153 C75.3859947,60.3069275 75.3016074,60.373245 75.1429496,60.5466832 C74.5538921,61.1906166 74.2052762,61.2941971 74.0469012,61.6513403 C73.6126419,62.6306153 73.6331735,62.7761895 73.6157143,62.7712577 C73.601445,62.7672269 73.5003338,62.6527347 73.6157143,62.8932059 C74.1917476,64.09375 74.8691185,65.1499995 75.6478271,66.0619545 C76.5268023,67.1505576 76.8837708,67.9278376 76.7187326,68.3937944 C76.6022753,68.7225913 76.8300136,68.5202775 76.7187326,68.8616071 C76.6382548,69.1084547 76.5872861,69.5908959 76.3785261,70.0552717 C76.0674566,70.7472296 75.565474,71.457262 75.378704,71.7569986 C75.1735407,72.0862534 74.6054792,73.2726179 74.6054792,73.4668719 C74.6054792,73.5456612 74.2799767,74.4442881 74.6054792,75.2016602 C75.0824984,76.3115779 76.3683663,77.5108885 77.2774286,78.6133859 C77.6755138,79.0961778 78.8024674,80.4460824 79.3121861,81.3533761 C79.5135605,81.7118204 79.756379,82.2221592 79.8770499,82.4349016 C80.05049,82.9084337 79.9842957,82.9959712 79.9842957,83.1188398 C79.9842957,84.035178 78.6687996,84.6849173 78.6396885,84.7245309 C78.5466132,84.8511857 77.7782345,85.2238555 77.177437,85.8537685 C77.0110535,86.0282152 76.858152,86.3351785 76.7187326,86.7746582 C76.6889545,87.1279782 76.6889545,87.5301825 76.7187326,87.9812709 C76.7285747,88.1303629 77.3021432,89.3120292 77.5241621,89.6315744 C77.5829516,89.7987752 78.2391854,90.5231445 78.2391854,91.5065482 C78.3082819,91.7694521 78.1329987,91.8251002 78.129534,92.2066429 C78.1268085,92.5067948 77.8427733,92.9617234 77.2774286,93.5714286 L76.7187326,94.594805 L76.7187326,94.8571429" id="Path-2" fill="#FFFFFF"></path>
                                    <path d="M58.750082,12.8177444 C59.7333201,11.7160902 60.2249392,11.1652632 60.2249392,11.1652632 C60.2249392,11.1652632 60.9974355,10.5371716 62.5424282,9.2809886 L65.6545724,8.30820359 L68.216054,8.30820359 C68.9761029,8.40657022 69.5214657,8.5144593 69.8521424,8.63187081 C70.1828191,8.74928233 70.5507037,8.96565493 70.9557963,9.2809886 L72.2485561,9.75668771 L72.346664,14.7391096 L72.1312099,19.0785261 L71.8853603,22.1216779 L71.6662319,22.9869123 L72.2485561,23.9777384 L73.1426535,24.1597744 L74.5373448,23.7368983 L76.2975098,23.2940336 L78.129534,22.8163266 L79.9472796,22.3069925 C80.4764596,21.9608606 80.8121007,21.8574427 80.9542028,21.996739 C81.0963049,22.1360352 81.0963049,22.5684668 80.9542028,23.2940336 L80.9542028,24.1597744 L80.7731166,25.8064924 C80.6746549,26.4455041 80.4450813,27.2724694 80.0843959,28.2873884 C79.7237105,29.3023074 79.0720899,30.7163466 78.129534,32.5295061 L76.2975098,36.7181222 C75.623799,38.1005672 75.0370773,39.2213121 74.5373448,40.0803571 C74.0376123,40.9394022 73.2746827,42.3370865 72.2485561,44.2734101 L71.6662319,46.1428571 L70.9557963,45.8279157 C70.2010605,45.783661 69.6713731,45.6919038 69.3667341,45.5526442 C68.9106988,45.3441766 68.5469008,44.930578 68.216054,44.6906015 C67.5536906,44.2101628 66.6998635,43.345726 65.6545724,42.0972911 C65.0427219,41.234799 64.4970257,40.3142273 64.017484,39.3355761 C63.5379422,38.3569248 62.8962267,36.8542209 62.0923375,34.8274644 L60.2249392,27.1253424 L59.1670585,21.1050779 L59.1670585,17.2812823 L58.750082,12.8177444 Z" id="Path-3" fill="#FFFFFF"></path>
                                    <path d="M64,5.25639098 C64,5.25639098 64.2693461,4.71136175 64.8080382,3.62130329 C64.9422842,3.34965275 65.1598204,2.85114326 65.4606467,2.12577483 L65.8817143,1 C66.3258964,0.925173736 66.6749511,0.924102307 66.9288783,0.996785714 C67.1828056,1.06946912 67.4764051,1.1534083 67.8096767,1.24860326 L68.9142909,2.01791818 L70.002914,3.22897775 C70.3652971,3.81236105 70.6217669,4.25535421 70.7723232,4.55795724 C70.9228795,4.86056027 71.0654384,5.21957452 71.2,5.635 L68.0027278,5.03694527 L65.8817143,5.03694527 C64.6272381,5.18324241 64,5.25639098 64,5.25639098 Z" id="Path-4" fill="#FFFFFF"></path>
                                    <path d="M47.29788,25.912406 C48.2153117,26.3361217 48.6740276,26.5479795 48.6740276,26.5479795 C48.6740276,26.5479795 48.8818158,26.790509 49.2973922,27.275568 L49.2973922,28.1031955 L49.2973922,28.566391 L48.6740276,29.4875739 L47.7704317,30.293985 L46.7352232,30.293985 L45.7478173,29.4875739 L45.2983677,28.1031955 L45.2983677,27.275568 L45.7478173,26.5479795 L46.7352232,25.912406 L47.29788,25.912406 Z" id="Path-6" fill="#193541"></path>
                                </g>
                                <path d="M50.6537143,33.0370714 C51.7908679,32.9170409 52.6532265,31.9709106 52.6532265,30.8433214 C52.6532265,29.7157323 51.7908679,28.769602 50.6537143,28.6495714 C49.5165607,28.769602 48.6542021,29.7157323 48.6542021,30.8433214 C48.6542021,31.9709106 49.5165607,32.9170409 50.6537143,33.0370714 L50.6537143,33.0370714 Z" id="Path" fill="#193541" fill-rule="nonzero"></path>
                                <path d="M78.32,51.3642857 C79.1441192,48.3131325 80.4026315,45.392524 82.058,42.6895714 C86.1011429,34.8923571 90.6782857,26.0672143 86.6351429,21.78 C86.1891949,21.3060629 85.5097272,21.1215909 84.8805714,21.3036429 L79.0065714,23.0085 C80.1762857,12.6790714 79.0065714,5.78442857 75.1414286,2.475 C73.3028917,0.814402622 70.7722616,0.116150515 68.3265714,0.594642857 C67.7772879,0.731412904 67.3307971,1.12480084 67.1314286,1.64764286 C67.1314286,1.64764286 63.0374286,12.303 57.6465714,16.0887857 C54.7486192,18.0220749 51.4900422,19.3685578 48.06,20.0500714 C45.6710577,20.5439187 43.5671767,21.9268068 42.186,23.9110714 C39.6431429,27.4962857 35.0151429,34.4410714 31.3788571,41.0348571 L14.3457868,46.9166434 C14.2206387,47.3627471 12.8754741,48.9673185 17.3722586,51.3642857 C18.8823819,53.6245712 22.3280028,53.9419389 24.6402857,55.4007857 C18.0034286,63.3233571 0.762857143,84.9349286 0.762857143,95.5150714 C0.762857143,96.4497147 1.53132839,97.2073929 2.47928571,97.2073929 C3.42724304,97.2073929 4.19571429,96.4497147 4.19571429,95.5150714 C4.19571429,87.9936429 15.3842857,71.8476429 26.4711429,58.5347143 C26.6745714,66.5325 27.7171429,77.2630714 31.7602857,77.2630714 C32.6162055,77.2633821 33.3435613,76.6462493 33.47084,75.8117335 C33.5981187,74.9772177 33.0870159,74.1764662 32.2688571,73.9285714 C31.4805714,72.8003571 30.1328571,67.3598571 29.904,57.8327143 C32.2283412,58.5827685 34.6548209,58.9800929 37.1002857,59.0110714 C37.9678915,58.9067604 38.620125,58.1805067 38.620125,57.31875 C38.620125,56.4569933 37.9678915,55.7307396 37.1002857,55.6264286 C31.6554185,55.6925942 22.3609832,51.7722514 18.7459664,47.7572545 L40.6348571,39.8063571 C41.1754,39.5197281 41.5197891,38.9705459 41.5382965,38.3656823 C41.5568038,37.7608187 41.2466177,37.1921668 40.7245822,36.8739323 C40.2025467,36.5556978 39.5479714,36.536228 39.0074286,36.8228571 L36.9731429,37.926 C39.9228571,33.0621429 43.0251429,28.4740714 44.8814286,25.7914286 C45.7601218,24.5075689 47.1088882,23.6090398 48.6448571,23.2842857 C52.620528,22.5369214 56.4009548,21.0016364 59.7571429,18.7714286 C60.2657143,37.2490714 66.6737143,51.5147143 74.8617143,52.2919286 C75.0397143,53.6457857 79.4658626,57.2116867 80.1270054,60.0949009 C80.515602,61.8257867 76.437532,63.6648223 76.6349226,65.7324568 C76.8371169,67.8504091 79.1338557,68.6496271 79.5030866,71.1179548 C79.7754135,72.9384735 77.3171687,75.3779197 77.43,77.2630714 C77.5424245,79.1414251 82.6901013,83.8343845 82.9538853,85.6104911 C83.1805449,87.1366317 79.9756611,88.3677786 79.5030866,89.3813128 C78.492891,91.5478874 81.8123429,92.4548935 81.0917143,94.6425084 C80.8063698,95.5279509 79.6651863,96.8969106 80.5577143,97.1948571 C80.7346404,97.2221199 80.3807881,97.7415485 80.5577143,97.7142857 C82.1851429,97.7268214 82.4362567,97.1948571 83.8109855,97.1948571 C85.1857143,97.1948571 87.9806222,97.7142857 86.6351429,96.4285714 C85.2896635,95.1428571 83.3047503,91.8645005 83.7379743,90.3195452 C84.7568058,86.6862079 86.9713822,88.0969632 86.6351429,85.6104911 C86.5507891,84.9866999 86.2691904,83.7499362 85.1857143,82.4012277 C83.6346644,80.4704845 81.1321668,78.298177 81.0917143,77.2630714 C81.0110253,75.1983863 84.5754286,73.9285714 83.7379743,71.1179548 C83.3722216,69.8904363 81.1131953,68.1985683 81.0917143,66.8169643 C81.0700851,65.4258274 84.8805714,63.3835798 85.1857143,60.5673131 C84.4911364,56.1019344 78.3962857,52.4172857 78.32,51.3642857 Z M69.9285714,3.85392857 C71.0195692,3.89002162 72.0595717,4.3180129 72.8528571,5.05735714 C73.8588545,6.00163692 74.6029476,7.1840958 75.0142857,8.49214286 C72.7843718,7.67237293 70.3542075,7.54120325 68.0468571,8.11607143 C68.9114286,6.23571429 69.598,4.80664286 69.9285714,3.85392857 Z M63.19,16.3896429 C63.1560013,16.0685928 63.1051442,15.8345928 63.0374286,15.6876429 C63.4188571,15.2363571 63.7748571,14.8101429 64.1308571,14.3337857 C64.2719968,14.2520843 64.4004597,14.1507574 64.5122857,14.0329286 C67.3614815,10.7579657 72.2976162,10.2208631 75.8025714,12.8044286 C76.1204136,16.9400397 75.9325885,21.0983321 75.2431429,25.1897143 C75.1559016,25.7609629 75.3724997,26.3363324 75.8166315,26.7131249 C76.2607633,27.0899174 76.8701085,27.2152617 77.43,27.045 L84.5754286,24.9640714 C85.6942857,28.2484286 81.702,35.9453571 78.9811429,41.1852857 C77.6063581,43.6608205 76.4000773,46.2237617 75.3702857,48.8571429 C69.5725714,48.4810714 63.2408571,35.2433571 63.2408571,16.2642857 L63.19,16.3896429 Z" id="Shape" fill="#193541" fill-rule="nonzero"></path>
                                <path d="M58.0498047,20.2070312 L63.0374286,15.6876429 C63.6986697,14.9852543 64.150549,15.7934749 64.3930664,18.1123047 C64.6355838,20.4311345 64.6355838,23.9435567 64.3930664,28.6495714 L67.5737963,39.2368164 L71.5305714,46.1762695 L75.0142857,48.7996241 L74.5412249,50.7857143 L74.3886535,52.2221213 C74.0502272,52.4501168 73.5160536,52.4501168 72.7861328,52.2221213 C72.056212,51.9941258 71.0575141,51.5153235 69.7900391,50.7857143 L67.1553362,48.7996241 L60.8925781,35.0849609 L59.2963867,23.015625 L58.0498047,20.2070312 Z" id="Path-5" fill="#FFFFFF"></path>
                            </g>
                        </g>
                        <text id="TravelPak" font-family="MoonFlowerBold, Moon Flower Bold" font-size="72" font-weight="bold" fill="#FFFFFF">
                            <tspan x="8.578125" y="186">TravelPak</tspan>
                        </text>
                    </g>
                    <path d="M121.049805,50.2070312 L126.037429,45.6876429 C126.69867,44.9852543 127.150549,45.7934749 127.393066,48.1123047 C127.635584,50.4311345 127.635584,53.9435567 127.393066,58.6495714 L130.573796,69.2368164 L134.530571,76.1762695 L138.370286,78.8571429 C138.192903,79.213035 138.074237,79.5046523 138.014286,79.7319946 C137.954335,79.959337 137.903478,80.3105769 137.861714,80.7857143 L137.861714,82.2919286 C137.207914,82.4733859 136.516054,82.4501168 135.786133,82.2221213 C135.056212,81.9941258 134.057514,81.5153235 132.790039,80.7857143 L130.155336,78.7996241 L123.892578,65.0849609 L122.296387,53.015625 L121.049805,50.2070312 Z" id="Path-5" fill="#FFFFFF"></path>
                </g>
            </g>
        </g>
    </g>
</svg>