<svg width="350" height="201" viewBox="0 0 350 201" fill="none" xmlns="http://www.w3.org/2000/svg">
<path d="M350 148.953H174V200.318H350V148.953Z" fill="#B8D31C"/>
<path opacity="0.5" d="M175 148.953H0V200.318H175V148.953Z" fill="#F0F7C5"/>
<path d="M350 0H0V148.953H350V0Z" fill="#CCE53D"/>
<path d="M143.046 72.3535L142.562 74.8496H144.936V76.3262H142.272L141.569 80H140.005L140.708 76.3262H138.528L137.825 80H136.296L136.964 76.3262H134.767V74.8496H137.254L137.755 72.3535H135.435V70.877H138.01L138.713 67.168H140.295L139.592 70.877H141.807L142.51 67.168H144.039L143.336 70.877H145.551V72.3535H143.046ZM138.801 74.8496H140.998L141.499 72.3535H139.302L138.801 74.8496ZM153.153 68.7676C151.946 68.7676 150.997 69.1953 150.306 70.0508C149.614 70.9062 149.269 72.0869 149.269 73.5928C149.269 75.1689 149.6 76.3613 150.262 77.1699C150.93 77.9785 151.894 78.3828 153.153 78.3828C153.698 78.3828 154.226 78.3301 154.735 78.2246C155.245 78.1133 155.775 77.9727 156.326 77.8027V79.6045C155.318 79.9854 154.176 80.1758 152.898 80.1758C151.018 80.1758 149.573 79.6074 148.565 78.4707C147.558 77.3281 147.054 75.6963 147.054 73.5752C147.054 72.2393 147.297 71.0703 147.783 70.0684C148.275 69.0664 148.984 68.2988 149.91 67.7656C150.836 67.2324 151.923 66.9658 153.171 66.9658C154.483 66.9658 155.696 67.2412 156.81 67.792L156.054 69.541C155.62 69.3359 155.16 69.1572 154.674 69.0049C154.193 68.8467 153.687 68.7676 153.153 68.7676ZM164.562 68.7676C163.354 68.7676 162.405 69.1953 161.714 70.0508C161.022 70.9062 160.677 72.0869 160.677 73.5928C160.677 75.1689 161.008 76.3613 161.67 77.1699C162.338 77.9785 163.302 78.3828 164.562 78.3828C165.106 78.3828 165.634 78.3301 166.144 78.2246C166.653 78.1133 167.184 77.9727 167.734 77.8027V79.6045C166.727 79.9854 165.584 80.1758 164.307 80.1758C162.426 80.1758 160.981 79.6074 159.974 78.4707C158.966 77.3281 158.462 75.6963 158.462 73.5752C158.462 72.2393 158.705 71.0703 159.191 70.0684C159.684 69.0664 160.393 68.2988 161.318 67.7656C162.244 67.2324 163.331 66.9658 164.579 66.9658C165.892 66.9658 167.104 67.2412 168.218 67.792L167.462 69.541C167.028 69.3359 166.568 69.1572 166.082 69.0049C165.602 68.8467 165.095 68.7676 164.562 68.7676ZM177.771 80H170.503V67.1504H177.771V68.9258H172.604V72.4238H177.446V74.1816H172.604V78.2158H177.771V80ZM184.012 71.9756C185.307 71.9756 186.332 72.3184 187.088 73.0039C187.844 73.6895 188.222 74.624 188.222 75.8076C188.222 77.1787 187.791 78.251 186.93 79.0244C186.074 79.792 184.855 80.1758 183.273 80.1758C181.838 80.1758 180.71 79.9443 179.89 79.4814V77.6094C180.364 77.8789 180.909 78.0869 181.524 78.2334C182.14 78.3799 182.711 78.4531 183.238 78.4531C184.17 78.4531 184.879 78.2451 185.365 77.8291C185.852 77.4131 186.095 76.8037 186.095 76.001C186.095 74.4658 185.116 73.6982 183.159 73.6982C182.884 73.6982 182.544 73.7275 182.14 73.7861C181.735 73.8389 181.381 73.9004 181.076 73.9707L180.153 73.4258L180.646 67.1504H187.325V68.9873H182.465L182.175 72.1689C182.38 72.1338 182.629 72.0928 182.922 72.0459C183.221 71.999 183.584 71.9756 184.012 71.9756ZM198.162 70.1035C198.162 70.918 197.925 71.5977 197.45 72.1426C196.976 72.6816 196.308 73.0449 195.446 73.2324V73.3027C196.478 73.4316 197.251 73.7539 197.767 74.2695C198.282 74.7793 198.54 75.459 198.54 76.3086C198.54 77.5449 198.104 78.5 197.23 79.1738C196.357 79.8418 195.115 80.1758 193.504 80.1758C192.08 80.1758 190.879 79.9443 189.9 79.4814V77.6445C190.445 77.9141 191.022 78.1221 191.632 78.2686C192.241 78.415 192.827 78.4883 193.39 78.4883C194.386 78.4883 195.13 78.3037 195.622 77.9346C196.114 77.5654 196.36 76.9941 196.36 76.2207C196.36 75.5352 196.088 75.0312 195.543 74.709C194.998 74.3867 194.143 74.2256 192.977 74.2256H191.86V72.5469H192.994C195.045 72.5469 196.07 71.8379 196.07 70.4199C196.07 69.8691 195.892 69.4443 195.534 69.1455C195.177 68.8467 194.649 68.6973 193.952 68.6973C193.466 68.6973 192.997 68.7676 192.546 68.9082C192.095 69.043 191.562 69.3096 190.946 69.708L189.936 68.2666C191.113 67.3994 192.481 66.9658 194.04 66.9658C195.335 66.9658 196.346 67.2441 197.072 67.8008C197.799 68.3574 198.162 69.125 198.162 70.1035ZM211.574 73.4521C211.574 75.5732 210.985 77.1963 209.808 78.3213C208.63 79.4404 206.934 80 204.719 80H201.124V67.1504H205.097C207.142 67.1504 208.732 67.7012 209.869 68.8027C211.006 69.9043 211.574 71.4541 211.574 73.4521ZM209.359 73.5225C209.359 70.4463 207.921 68.9082 205.044 68.9082H203.225V78.2334H204.719C207.812 78.2334 209.359 76.6631 209.359 73.5225Z" fill="#72830E"/>
</svg>
