<svg width="411" height="160" viewBox="0 0 411 160" fill="none" xmlns="http://www.w3.org/2000/svg">
<g clip-path="url(#clip0)">
<rect width="411" height="160" fill="#E5E5E5"/>
<rect x="19" y="-66" width="178" height="165" rx="10" fill="white"/>
<rect x="212" y="-66" width="178" height="165" rx="10" fill="white"/>
<path d="M60.1748 62L69.0518 42.8252H57.377V40.584H71.6299V42.5322L62.8701 62H60.1748ZM81.3066 62V55.7686C81.3066 54.9834 81.1279 54.3975 80.7705 54.0107C80.4131 53.624 79.8535 53.4307 79.0918 53.4307C78.0781 53.4307 77.3369 53.7061 76.8682 54.2568C76.4053 54.8076 76.1738 55.71 76.1738 56.9639V62H74.7148V48.3242H76.1738V52.4639C76.1738 52.9619 76.1504 53.375 76.1035 53.7031H76.1914C76.4785 53.2402 76.8857 52.877 77.4131 52.6133C77.9463 52.3438 78.5527 52.209 79.2324 52.209C80.4102 52.209 81.292 52.4902 81.8779 53.0527C82.4697 53.6094 82.7656 54.4971 82.7656 55.7158V62H81.3066ZM90.166 52.1914C90.5938 52.1914 90.9775 52.2266 91.3174 52.2969L91.1152 53.6504C90.7168 53.5625 90.3652 53.5186 90.0605 53.5186C89.2812 53.5186 88.6133 53.835 88.0566 54.4678C87.5059 55.1006 87.2305 55.8887 87.2305 56.832V62H85.7715V52.3672H86.9756L87.1426 54.1514H87.2129C87.5703 53.5244 88.001 53.041 88.5049 52.7012C89.0088 52.3613 89.5625 52.1914 90.166 52.1914ZM106.722 62H104.349V46.7363C104.349 45.4668 104.388 44.2656 104.466 43.1328C104.261 43.3379 104.031 43.5527 103.777 43.7773C103.523 44.002 102.361 44.9541 100.291 46.6338L99.002 44.9639L104.671 40.584H106.722V62ZM121.575 48.9189C123.831 48.9189 125.604 49.4805 126.893 50.6035C128.191 51.7168 128.841 53.2451 128.841 55.1885C128.841 57.4053 128.133 59.1436 126.717 60.4033C125.311 61.6631 123.367 62.293 120.887 62.293C118.475 62.293 116.634 61.9072 115.364 61.1357V58.792C116.048 59.2314 116.897 59.5781 117.913 59.832C118.929 60.0762 119.93 60.1982 120.916 60.1982C122.635 60.1982 123.968 59.793 124.915 58.9824C125.872 58.1719 126.351 57 126.351 55.4668C126.351 52.4785 124.52 50.9844 120.857 50.9844C119.93 50.9844 118.689 51.126 117.137 51.4092L115.877 50.6035L116.683 40.584H127.332V42.8252H118.763L118.221 49.2559C119.344 49.0312 120.462 48.9189 121.575 48.9189ZM144.409 62V55.7334C144.409 54.9658 144.245 54.3916 143.917 54.0107C143.589 53.624 143.079 53.4307 142.388 53.4307C141.479 53.4307 140.809 53.6914 140.375 54.2129C139.941 54.7344 139.725 55.5371 139.725 56.6211V62H138.266V55.7334C138.266 54.9658 138.102 54.3916 137.773 54.0107C137.445 53.624 136.933 53.4307 136.235 53.4307C135.321 53.4307 134.65 53.7061 134.223 54.2568C133.801 54.8018 133.59 55.6982 133.59 56.9463V62H132.131V52.3672H133.317L133.555 53.6855H133.625C133.9 53.2168 134.287 52.8506 134.785 52.5869C135.289 52.3232 135.852 52.1914 136.473 52.1914C137.979 52.1914 138.963 52.7363 139.426 53.8262H139.496C139.783 53.3223 140.199 52.9238 140.744 52.6309C141.289 52.3379 141.91 52.1914 142.607 52.1914C143.697 52.1914 144.512 52.4727 145.051 53.0352C145.596 53.5918 145.868 54.4854 145.868 55.7158V62H144.409ZM150.342 62H148.883V52.3672H150.342V62ZM148.76 49.7568C148.76 49.4229 148.842 49.1797 149.006 49.0273C149.17 48.8691 149.375 48.79 149.621 48.79C149.855 48.79 150.058 48.8691 150.228 49.0273C150.397 49.1855 150.482 49.4287 150.482 49.7568C150.482 50.085 150.397 50.3311 150.228 50.4951C150.058 50.6533 149.855 50.7324 149.621 50.7324C149.375 50.7324 149.17 50.6533 149.006 50.4951C148.842 50.3311 148.76 50.085 148.76 49.7568ZM160.027 62V55.7686C160.027 54.9834 159.849 54.3975 159.491 54.0107C159.134 53.624 158.574 53.4307 157.812 53.4307C156.805 53.4307 156.066 53.7031 155.598 54.248C155.129 54.793 154.895 55.6924 154.895 56.9463V62H153.436V52.3672H154.622L154.859 53.6855H154.93C155.229 53.2109 155.647 52.8447 156.187 52.5869C156.726 52.3232 157.326 52.1914 157.988 52.1914C159.148 52.1914 160.021 52.4727 160.607 53.0352C161.193 53.5918 161.486 54.4854 161.486 55.7158V62H160.027Z" fill="#050921"/>
<path d="M289.611 -11.4299L292.442 19.766C292.674 23.8262 289.953 26 286.265 26C282.576 26 279.854 23.8262 280.088 19.7653L282.919 -11.4299C279.032 -13.1005 275 -17.8545 275 -25.5803C275.001 -33.9114 279.944 -41 286.265 -41C292.586 -41 297.529 -33.9114 297.529 -25.5803C297.529 -17.8545 293.497 -13.1005 289.611 -11.4299Z" fill="#050921"/>
<path d="M324.952 -21.3861L323.429 -39.3697C323.326 -40.3985 322.807 -40.9985 321.843 -40.9985C320.876 -40.9985 320.254 -40.3598 320.254 -39.3697V-24.3133C320.254 -23.2673 319.597 -22.5929 318.578 -22.5929H318.502C317.483 -22.5929 316.825 -23.2673 316.825 -24.3133V-39.3697C316.825 -40.3598 316.202 -40.9985 315.237 -40.9985C314.271 -40.9985 313.648 -40.3598 313.648 -39.3697L313.648 -24.3133C313.648 -23.2673 312.991 -22.5929 311.971 -22.5929H311.896C310.877 -22.5929 310.22 -23.2673 310.22 -24.3133V-39.3697C310.22 -40.3598 309.597 -40.9985 308.631 -41C307.666 -41 307.147 -40.3985 307.043 -39.3704L305.52 -21.3876C305.106 -16.4974 307.399 -12.5228 311.891 -11.4307L309.06 19.7645C308.826 23.8262 311.548 26 315.237 26C318.925 26 321.646 23.8262 321.413 19.766L318.583 -11.4299C323.074 -12.522 325.366 -16.4966 324.952 -21.3861Z" fill="#050921"/>
<path d="M272.964 46H271.47V39.9531H264.702V46H263.208V33.1504H264.702V38.6172H271.47V33.1504H272.964V46ZM282.201 46L281.911 44.6289H281.841C281.36 45.2324 280.88 45.6426 280.399 45.8594C279.925 46.0703 279.33 46.1758 278.615 46.1758C277.66 46.1758 276.91 45.9297 276.365 45.4375C275.826 44.9453 275.557 44.2451 275.557 43.3369C275.557 41.3916 277.112 40.3721 280.224 40.2783L281.858 40.2256V39.6279C281.858 38.8721 281.694 38.3154 281.366 37.958C281.044 37.5947 280.525 37.4131 279.811 37.4131C279.008 37.4131 278.1 37.6592 277.086 38.1514L276.638 37.0352C277.112 36.7773 277.631 36.5752 278.193 36.4287C278.762 36.2822 279.33 36.209 279.898 36.209C281.047 36.209 281.896 36.4639 282.447 36.9736C283.004 37.4834 283.282 38.3008 283.282 39.4258V46H282.201ZM278.905 44.9717C279.813 44.9717 280.525 44.7227 281.041 44.2246C281.562 43.7266 281.823 43.0293 281.823 42.1328V41.2627L280.364 41.3242C279.204 41.3652 278.366 41.5469 277.851 41.8691C277.341 42.1855 277.086 42.6807 277.086 43.3545C277.086 43.8818 277.244 44.2832 277.561 44.5586C277.883 44.834 278.331 44.9717 278.905 44.9717ZM288.406 46L284.75 36.3672H286.314L288.389 42.0801C288.857 43.416 289.133 44.2832 289.215 44.6816H289.285C289.35 44.3711 289.552 43.7295 289.892 42.7568C290.237 41.7783 291.008 39.6484 292.203 36.3672H293.768L290.111 46H288.406ZM299.384 46.1758C297.96 46.1758 296.835 45.7422 296.009 44.875C295.188 44.0078 294.778 42.8037 294.778 41.2627C294.778 39.71 295.159 38.4766 295.921 37.5625C296.688 36.6484 297.717 36.1914 299.006 36.1914C300.213 36.1914 301.168 36.5898 301.871 37.3867C302.574 38.1777 302.926 39.2236 302.926 40.5244V41.4473H296.29C296.319 42.5781 296.604 43.4365 297.143 44.0225C297.688 44.6084 298.452 44.9014 299.437 44.9014C300.474 44.9014 301.499 44.6846 302.513 44.251V45.5518C301.997 45.7744 301.508 45.9326 301.045 46.0264C300.588 46.126 300.034 46.1758 299.384 46.1758ZM298.988 37.4131C298.215 37.4131 297.597 37.665 297.134 38.1689C296.677 38.6729 296.407 39.3701 296.325 40.2607H301.361C301.361 39.3408 301.156 38.6377 300.746 38.1514C300.336 37.6592 299.75 37.4131 298.988 37.4131ZM308.568 36.3672H310.133L312.242 41.8604C312.705 43.1143 312.992 44.0195 313.104 44.5762H313.174C313.25 44.2773 313.408 43.7676 313.648 43.0469C313.895 42.3203 314.691 40.0938 316.039 36.3672H317.604L313.464 47.3359C313.054 48.4199 312.573 49.1875 312.022 49.6387C311.478 50.0957 310.807 50.3242 310.01 50.3242C309.564 50.3242 309.125 50.2744 308.691 50.1748V49.0059C309.014 49.0762 309.374 49.1113 309.772 49.1113C310.774 49.1113 311.489 48.5488 311.917 47.4238L312.453 46.0527L308.568 36.3672ZM327.482 41.1748C327.482 42.7451 327.087 43.9727 326.296 44.8574C325.505 45.7363 324.412 46.1758 323.018 46.1758C322.156 46.1758 321.392 45.9736 320.724 45.5693C320.056 45.165 319.54 44.585 319.177 43.8291C318.813 43.0732 318.632 42.1885 318.632 41.1748C318.632 39.6045 319.024 38.3828 319.81 37.5098C320.595 36.6309 321.685 36.1914 323.079 36.1914C324.427 36.1914 325.496 36.6396 326.287 37.5361C327.084 38.4326 327.482 39.6455 327.482 41.1748ZM320.144 41.1748C320.144 42.4053 320.39 43.3428 320.882 43.9873C321.374 44.6318 322.098 44.9541 323.053 44.9541C324.008 44.9541 324.731 44.6348 325.224 43.9961C325.722 43.3516 325.971 42.4111 325.971 41.1748C325.971 39.9502 325.722 39.0215 325.224 38.3887C324.731 37.75 324.002 37.4307 323.035 37.4307C322.08 37.4307 321.359 37.7441 320.873 38.3711C320.387 38.998 320.144 39.9326 320.144 41.1748ZM331.42 36.3672V42.6162C331.42 43.4014 331.599 43.9873 331.956 44.374C332.313 44.7607 332.873 44.9541 333.635 44.9541C334.643 44.9541 335.378 44.6787 335.841 44.1279C336.31 43.5771 336.544 42.6777 336.544 41.4297V36.3672H338.003V46H336.799L336.588 44.708H336.509C336.21 45.1826 335.794 45.5459 335.261 45.7979C334.733 46.0498 334.13 46.1758 333.45 46.1758C332.278 46.1758 331.399 45.8975 330.813 45.3408C330.233 44.7842 329.943 43.8936 329.943 42.6689V36.3672H331.42ZM252.934 70.1758C251.51 70.1758 250.385 69.7422 249.559 68.875C248.738 68.0078 248.328 66.8037 248.328 65.2627C248.328 63.71 248.709 62.4766 249.471 61.5625C250.238 60.6484 251.267 60.1914 252.556 60.1914C253.763 60.1914 254.718 60.5898 255.421 61.3867C256.124 62.1777 256.476 63.2236 256.476 64.5244V65.4473H249.84C249.869 66.5781 250.153 67.4365 250.692 68.0225C251.237 68.6084 252.002 68.9014 252.986 68.9014C254.023 68.9014 255.049 68.6846 256.062 68.251V69.5518C255.547 69.7744 255.058 69.9326 254.595 70.0264C254.138 70.126 253.584 70.1758 252.934 70.1758ZM252.538 61.4131C251.765 61.4131 251.146 61.665 250.684 62.1689C250.227 62.6729 249.957 63.3701 249.875 64.2607H254.911C254.911 63.3408 254.706 62.6377 254.296 62.1514C253.886 61.6592 253.3 61.4131 252.538 61.4131ZM264.896 70L264.605 68.6289H264.535C264.055 69.2324 263.574 69.6426 263.094 69.8594C262.619 70.0703 262.024 70.1758 261.31 70.1758C260.354 70.1758 259.604 69.9297 259.06 69.4375C258.521 68.9453 258.251 68.2451 258.251 67.3369C258.251 65.3916 259.807 64.3721 262.918 64.2783L264.553 64.2256V63.6279C264.553 62.8721 264.389 62.3154 264.061 61.958C263.738 61.5947 263.22 61.4131 262.505 61.4131C261.702 61.4131 260.794 61.6592 259.78 62.1514L259.332 61.0352C259.807 60.7773 260.325 60.5752 260.888 60.4287C261.456 60.2822 262.024 60.209 262.593 60.209C263.741 60.209 264.591 60.4639 265.142 60.9736C265.698 61.4834 265.977 62.3008 265.977 63.4258V70H264.896ZM261.6 68.9717C262.508 68.9717 263.22 68.7227 263.735 68.2246C264.257 67.7266 264.518 67.0293 264.518 66.1328V65.2627L263.059 65.3242C261.898 65.3652 261.061 65.5469 260.545 65.8691C260.035 66.1855 259.78 66.6807 259.78 67.3545C259.78 67.8818 259.938 68.2832 260.255 68.5586C260.577 68.834 261.025 68.9717 261.6 68.9717ZM272.103 68.9717C272.36 68.9717 272.609 68.9541 272.85 68.9189C273.09 68.8779 273.28 68.8369 273.421 68.7959V69.9121C273.263 69.9883 273.028 70.0498 272.718 70.0967C272.413 70.1494 272.138 70.1758 271.892 70.1758C270.028 70.1758 269.097 69.1943 269.097 67.2314V61.501H267.717V60.7979L269.097 60.1914L269.712 58.1348H270.556V60.3672H273.351V61.501H270.556V67.1699C270.556 67.75 270.693 68.1953 270.969 68.5059C271.244 68.8164 271.622 68.9717 272.103 68.9717ZM279.424 70.1758C278 70.1758 276.875 69.7422 276.049 68.875C275.229 68.0078 274.818 66.8037 274.818 65.2627C274.818 63.71 275.199 62.4766 275.961 61.5625C276.729 60.6484 277.757 60.1914 279.046 60.1914C280.253 60.1914 281.208 60.5898 281.911 61.3867C282.614 62.1777 282.966 63.2236 282.966 64.5244V65.4473H276.33C276.359 66.5781 276.644 67.4365 277.183 68.0225C277.728 68.6084 278.492 68.9014 279.477 68.9014C280.514 68.9014 281.539 68.6846 282.553 68.251V69.5518C282.037 69.7744 281.548 69.9326 281.085 70.0264C280.628 70.126 280.074 70.1758 279.424 70.1758ZM279.028 61.4131C278.255 61.4131 277.637 61.665 277.174 62.1689C276.717 62.6729 276.447 63.3701 276.365 64.2607H281.401C281.401 63.3408 281.196 62.6377 280.786 62.1514C280.376 61.6592 279.79 61.4131 279.028 61.4131ZM292.054 70V63.7686C292.054 62.9834 291.875 62.3975 291.518 62.0107C291.16 61.624 290.601 61.4307 289.839 61.4307C288.831 61.4307 288.093 61.7031 287.624 62.248C287.155 62.793 286.921 63.6924 286.921 64.9463V70H285.462V60.3672H286.648L286.886 61.6855H286.956C287.255 61.2109 287.674 60.8447 288.213 60.5869C288.752 60.3232 289.353 60.1914 290.015 60.1914C291.175 60.1914 292.048 60.4727 292.634 61.0352C293.22 61.5918 293.513 62.4854 293.513 63.7158V70H292.054ZM302.653 70H301.194V56.3242H302.653V70ZM307.118 60.3672V66.6162C307.118 67.4014 307.297 67.9873 307.654 68.374C308.012 68.7607 308.571 68.9541 309.333 68.9541C310.341 68.9541 311.076 68.6787 311.539 68.1279C312.008 67.5771 312.242 66.6777 312.242 65.4297V60.3672H313.701V70H312.497L312.286 68.708H312.207C311.908 69.1826 311.492 69.5459 310.959 69.7979C310.432 70.0498 309.828 70.1758 309.148 70.1758C307.977 70.1758 307.098 69.8975 306.512 69.3408C305.932 68.7842 305.642 67.8936 305.642 66.6689V60.3672H307.118ZM323.396 70V63.7686C323.396 62.9834 323.217 62.3975 322.859 62.0107C322.502 61.624 321.942 61.4307 321.181 61.4307C320.173 61.4307 319.435 61.7031 318.966 62.248C318.497 62.793 318.263 63.6924 318.263 64.9463V70H316.804V60.3672H317.99L318.228 61.6855H318.298C318.597 61.2109 319.016 60.8447 319.555 60.5869C320.094 60.3232 320.694 60.1914 321.356 60.1914C322.517 60.1914 323.39 60.4727 323.976 61.0352C324.562 61.5918 324.854 62.4854 324.854 63.7158V70H323.396ZM331.71 70.1758C330.315 70.1758 329.234 69.748 328.467 68.8926C327.705 68.0312 327.324 66.8154 327.324 65.2451C327.324 63.6338 327.711 62.3887 328.484 61.5098C329.264 60.6309 330.371 60.1914 331.807 60.1914C332.27 60.1914 332.732 60.2412 333.195 60.3408C333.658 60.4404 334.021 60.5576 334.285 60.6924L333.837 61.9316C333.515 61.8027 333.163 61.6973 332.782 61.6152C332.401 61.5273 332.064 61.4834 331.771 61.4834C329.814 61.4834 328.836 62.7314 328.836 65.2275C328.836 66.4111 329.073 67.3193 329.548 67.9521C330.028 68.585 330.737 68.9014 331.675 68.9014C332.478 68.9014 333.301 68.7285 334.145 68.3828V69.6748C333.5 70.0088 332.688 70.1758 331.71 70.1758ZM343.03 70V63.7686C343.03 62.9834 342.852 62.3975 342.494 62.0107C342.137 61.624 341.577 61.4307 340.815 61.4307C339.802 61.4307 339.061 61.7061 338.592 62.2568C338.129 62.8076 337.897 63.71 337.897 64.9639V70H336.438V56.3242H337.897V60.4639C337.897 60.9619 337.874 61.375 337.827 61.7031H337.915C338.202 61.2402 338.609 60.877 339.137 60.6133C339.67 60.3438 340.276 60.209 340.956 60.209C342.134 60.209 343.016 60.4902 343.602 61.0527C344.193 61.6094 344.489 62.4971 344.489 63.7158V70H343.03ZM348.488 66.458V65.9834C348.488 65.2979 348.594 64.7354 348.805 64.2959C349.016 63.8506 349.408 63.3818 349.982 62.8896C350.779 62.2158 351.28 61.709 351.485 61.3691C351.696 61.0293 351.802 60.6191 351.802 60.1387C351.802 59.541 351.608 59.0811 351.222 58.7588C350.841 58.4307 350.29 58.2666 349.569 58.2666C349.106 58.2666 348.655 58.3223 348.216 58.4336C347.776 58.5391 347.272 58.7354 346.704 59.0225L346.186 57.8359C347.293 57.2559 348.45 56.9658 349.657 56.9658C350.776 56.9658 351.646 57.2412 352.268 57.792C352.889 58.3428 353.199 59.1191 353.199 60.1211C353.199 60.5488 353.141 60.9268 353.023 61.2549C352.912 61.5771 352.745 61.8848 352.522 62.1777C352.3 62.4648 351.819 62.9307 351.081 63.5752C350.489 64.0791 350.097 64.498 349.903 64.832C349.716 65.166 349.622 65.6113 349.622 66.168V66.458H348.488ZM348.058 69.0684C348.058 68.2715 348.409 67.873 349.112 67.873C349.452 67.873 349.713 67.9756 349.895 68.1807C350.082 68.3857 350.176 68.6816 350.176 69.0684C350.176 69.4434 350.082 69.7363 349.895 69.9473C349.707 70.1523 349.446 70.2549 349.112 70.2549C348.808 70.2549 348.556 70.1641 348.356 69.9824C348.157 69.7949 348.058 69.4902 348.058 69.0684Z" fill="#050921"/>
<path d="M115.833 -23.957C115.453 -24.072 115.032 -23.948 114.775 -23.639C114.519 -23.33 114.472 -22.898 114.656 -22.541C116.061 -19.82 116.773 -16.897 116.773 -13.854C116.773 -3.37798 108.25 5.14602 97.7735 5.14602C95.9205 5.14602 94.0755 4.87402 92.2885 4.33402C91.9055 4.22002 91.4885 4.34502 91.2315 4.65202C90.9755 4.96102 90.9275 5.39302 91.1115 5.75002C94.7375 12.779 101.887 17.145 109.774 17.145C121.353 17.145 130.774 7.72402 130.774 -3.85498C130.774 -13.042 124.63 -21.309 115.833 -23.957Z" fill="#050921"/>
<circle cx="207" cy="47" r="30" fill="#277177"/>
<g clip-path="url(#clip1)">
<path d="M217.638 48.8722H208.209V58.3008H205.066V48.8722H195.638V45.7294H205.066V36.3008H208.209V45.7294H217.638V48.8722Z" fill="white"/>
</g>
<g filter="url(#filter0_i)">
<rect y="90" width="411" height="70" fill="white"/>
<g clip-path="url(#clip2)">
<path d="M373.719 117.109C373.719 123.521 368.521 128.719 362.109 128.719C355.698 128.719 350.5 123.521 350.5 117.109C350.5 110.698 355.698 105.5 362.109 105.5C368.521 105.5 373.719 110.698 373.719 117.109ZM364.277 110.148L359.265 114.922L359.265 114.922C359.032 115.144 358.868 115.427 358.793 115.739L357.164 122.467C356.766 124.112 358.757 125.2 359.942 124.071C359.942 124.071 359.942 124.071 359.942 124.071L364.954 119.296C365.186 119.075 365.35 118.791 365.426 118.479C365.426 118.479 365.426 118.479 365.426 118.479L367.055 111.752C367.446 110.135 365.482 109 364.277 110.148C364.277 110.148 364.277 110.148 364.277 110.148ZM361.047 117.109C361.047 116.523 361.523 116.047 362.109 116.047C362.696 116.047 363.172 116.523 363.172 117.109C363.172 117.696 362.696 118.172 362.109 118.172C361.523 118.172 361.047 117.696 361.047 117.109Z" stroke="#333333" stroke-opacity="0.6"/>
</g>
<path d="M28.8047 147H26.9883V139.945H24.6621V138.434H31.1309V139.945H28.8047V147ZM40.2246 142.705C40.2246 144.123 39.873 145.213 39.1699 145.975C38.4668 146.736 37.459 147.117 36.1465 147.117C34.834 147.117 33.8262 146.736 33.123 145.975C32.4199 145.213 32.0684 144.119 32.0684 142.693C32.0684 141.268 32.4199 140.18 33.123 139.43C33.8301 138.676 34.8418 138.299 36.1582 138.299C37.4746 138.299 38.4805 138.678 39.1758 139.436C39.875 140.193 40.2246 141.283 40.2246 142.705ZM33.9727 142.705C33.9727 143.662 34.1543 144.383 34.5176 144.867C34.8809 145.352 35.4238 145.594 36.1465 145.594C37.5957 145.594 38.3203 144.631 38.3203 142.705C38.3203 140.775 37.5996 139.811 36.1582 139.811C35.4355 139.811 34.8906 140.055 34.5234 140.543C34.1562 141.027 33.9727 141.748 33.9727 142.705ZM49.1074 142.635C49.1074 144.045 48.7051 145.125 47.9004 145.875C47.0996 146.625 45.9414 147 44.4258 147H42V138.434H44.6895C46.0879 138.434 47.1738 138.803 47.9473 139.541C48.7207 140.279 49.1074 141.311 49.1074 142.635ZM47.2207 142.682C47.2207 140.842 46.4082 139.922 44.7832 139.922H43.8164V145.5H44.5957C46.3457 145.5 47.2207 144.561 47.2207 142.682ZM56.127 147L55.5059 144.961H52.3828L51.7617 147H49.8047L52.8281 138.398H55.0488L58.084 147H56.127ZM55.0723 143.438C54.498 141.59 54.1738 140.545 54.0996 140.303C54.0293 140.061 53.9785 139.869 53.9473 139.729C53.8184 140.229 53.4492 141.465 52.8398 143.438H55.0723ZM61.834 141.961L63.6211 138.434H65.5781L62.7363 143.666V147H60.9316V143.725L58.0898 138.434H60.0586L61.834 141.961Z" fill="#050921"/>
<path d="M93.0977 147H91.2871V143.303H87.8945V147H86.0781V138.434H87.8945V141.791H91.2871V138.434H93.0977V147ZM100.199 147H95.2656V138.434H100.199V139.922H97.082V141.803H99.9824V143.291H97.082V145.5H100.199V147ZM107.236 147L106.615 144.961H103.492L102.871 147H100.914L103.938 138.398H106.158L109.193 147H107.236ZM106.182 143.438C105.607 141.59 105.283 140.545 105.209 140.303C105.139 140.061 105.088 139.869 105.057 139.729C104.928 140.229 104.559 141.465 103.949 143.438H106.182ZM110.277 147V138.434H112.094V145.5H115.568V147H110.277ZM120.367 147H118.551V139.945H116.225V138.434H122.693V139.945H120.367V147ZM131.031 147H129.221V143.303H125.828V147H124.012V138.434H125.828V141.791H129.221V138.434H131.031V147ZM143.424 142.635C143.424 144.045 143.021 145.125 142.217 145.875C141.416 146.625 140.258 147 138.742 147H136.316V138.434H139.006C140.404 138.434 141.49 138.803 142.264 139.541C143.037 140.279 143.424 141.311 143.424 142.635ZM141.537 142.682C141.537 140.842 140.725 139.922 139.1 139.922H138.133V145.5H138.912C140.662 145.5 141.537 144.561 141.537 142.682ZM150.443 147L149.822 144.961H146.699L146.078 147H144.121L147.145 138.398H149.365L152.4 147H150.443ZM149.389 143.438C148.814 141.59 148.49 140.545 148.416 140.303C148.346 140.061 148.295 139.869 148.264 139.729C148.135 140.229 147.766 141.465 147.156 143.438H149.389ZM156.789 147H154.973V139.945H152.646V138.434H159.115V139.945H156.789V147ZM165.678 147L165.057 144.961H161.934L161.312 147H159.355L162.379 138.398H164.6L167.635 147H165.678ZM164.623 143.438C164.049 141.59 163.725 140.545 163.65 140.303C163.58 140.061 163.529 139.869 163.498 139.729C163.369 140.229 163 141.465 162.391 143.438H164.623Z" fill="#333333" fill-opacity="0.6"/>
<path d="M189.33 142.189H192.729V146.631C192.178 146.811 191.658 146.936 191.17 147.006C190.686 147.08 190.189 147.117 189.682 147.117C188.389 147.117 187.4 146.738 186.717 145.98C186.037 145.219 185.697 144.127 185.697 142.705C185.697 141.322 186.092 140.244 186.881 139.471C187.674 138.697 188.771 138.311 190.174 138.311C191.053 138.311 191.9 138.486 192.717 138.838L192.113 140.291C191.488 139.979 190.838 139.822 190.162 139.822C189.377 139.822 188.748 140.086 188.275 140.613C187.803 141.141 187.566 141.85 187.566 142.74C187.566 143.67 187.756 144.381 188.135 144.873C188.518 145.361 189.072 145.605 189.799 145.605C190.178 145.605 190.562 145.566 190.953 145.488V143.701H189.33V142.189ZM202.549 142.705C202.549 144.123 202.197 145.213 201.494 145.975C200.791 146.736 199.783 147.117 198.471 147.117C197.158 147.117 196.15 146.736 195.447 145.975C194.744 145.213 194.393 144.119 194.393 142.693C194.393 141.268 194.744 140.18 195.447 139.43C196.154 138.676 197.166 138.299 198.482 138.299C199.799 138.299 200.805 138.678 201.5 139.436C202.199 140.193 202.549 141.283 202.549 142.705ZM196.297 142.705C196.297 143.662 196.479 144.383 196.842 144.867C197.205 145.352 197.748 145.594 198.471 145.594C199.92 145.594 200.645 144.631 200.645 142.705C200.645 140.775 199.924 139.811 198.482 139.811C197.76 139.811 197.215 140.055 196.848 140.543C196.48 141.027 196.297 141.748 196.297 142.705ZM209.568 147L208.947 144.961H205.824L205.203 147H203.246L206.27 138.398H208.49L211.525 147H209.568ZM208.514 143.438C207.939 141.59 207.615 140.545 207.541 140.303C207.471 140.061 207.42 139.869 207.389 139.729C207.26 140.229 206.891 141.465 206.281 143.438H208.514ZM212.609 147V138.434H214.426V145.5H217.9V147H212.609ZM224.451 144.621C224.451 145.395 224.172 146.004 223.613 146.449C223.059 146.895 222.285 147.117 221.293 147.117C220.379 147.117 219.57 146.945 218.867 146.602V144.914C219.445 145.172 219.934 145.354 220.332 145.459C220.734 145.564 221.102 145.617 221.434 145.617C221.832 145.617 222.137 145.541 222.348 145.389C222.562 145.236 222.67 145.01 222.67 144.709C222.67 144.541 222.623 144.393 222.529 144.264C222.436 144.131 222.297 144.004 222.113 143.883C221.934 143.762 221.564 143.568 221.006 143.303C220.482 143.057 220.09 142.82 219.828 142.594C219.566 142.367 219.357 142.104 219.201 141.803C219.045 141.502 218.967 141.15 218.967 140.748C218.967 139.99 219.223 139.395 219.734 138.961C220.25 138.527 220.961 138.311 221.867 138.311C222.312 138.311 222.736 138.363 223.139 138.469C223.545 138.574 223.969 138.723 224.41 138.914L223.824 140.326C223.367 140.139 222.988 140.008 222.688 139.934C222.391 139.859 222.098 139.822 221.809 139.822C221.465 139.822 221.201 139.902 221.018 140.062C220.834 140.223 220.742 140.432 220.742 140.689C220.742 140.85 220.779 140.99 220.854 141.111C220.928 141.229 221.045 141.344 221.205 141.457C221.369 141.566 221.754 141.766 222.359 142.055C223.16 142.438 223.709 142.822 224.006 143.209C224.303 143.592 224.451 144.062 224.451 144.621Z" fill="#333333" fill-opacity="0.6"/>
<path d="M244.717 139.822C244.033 139.822 243.504 140.08 243.129 140.596C242.754 141.107 242.566 141.822 242.566 142.74C242.566 144.65 243.283 145.605 244.717 145.605C245.318 145.605 246.047 145.455 246.902 145.154V146.678C246.199 146.971 245.414 147.117 244.547 147.117C243.301 147.117 242.348 146.74 241.688 145.986C241.027 145.229 240.697 144.143 240.697 142.729C240.697 141.838 240.859 141.059 241.184 140.391C241.508 139.719 241.973 139.205 242.578 138.85C243.188 138.49 243.9 138.311 244.717 138.311C245.549 138.311 246.385 138.512 247.225 138.914L246.639 140.391C246.318 140.238 245.996 140.105 245.672 139.992C245.348 139.879 245.029 139.822 244.717 139.822ZM256.506 142.705C256.506 144.123 256.154 145.213 255.451 145.975C254.748 146.736 253.74 147.117 252.428 147.117C251.115 147.117 250.107 146.736 249.404 145.975C248.701 145.213 248.35 144.119 248.35 142.693C248.35 141.268 248.701 140.18 249.404 139.43C250.111 138.676 251.123 138.299 252.439 138.299C253.756 138.299 254.762 138.678 255.457 139.436C256.156 140.193 256.506 141.283 256.506 142.705ZM250.254 142.705C250.254 143.662 250.436 144.383 250.799 144.867C251.162 145.352 251.705 145.594 252.428 145.594C253.877 145.594 254.602 144.631 254.602 142.705C254.602 140.775 253.881 139.811 252.439 139.811C251.717 139.811 251.172 140.055 250.805 140.543C250.438 141.027 250.254 141.748 250.254 142.705ZM261.908 147L259.846 140.279H259.793C259.867 141.646 259.904 142.559 259.904 143.016V147H258.281V138.434H260.754L262.781 144.984H262.816L264.967 138.434H267.439V147H265.746V142.945C265.746 142.754 265.748 142.533 265.752 142.283C265.76 142.033 265.787 141.369 265.834 140.291H265.781L263.572 147H261.908ZM273.229 147L271.166 140.279H271.113C271.188 141.646 271.225 142.559 271.225 143.016V147H269.602V138.434H272.074L274.102 144.984H274.137L276.287 138.434H278.76V147H277.066V142.945C277.066 142.754 277.068 142.533 277.072 142.283C277.08 142.033 277.107 141.369 277.154 140.291H277.102L274.893 147H273.229ZM287.895 138.434V143.977C287.895 144.609 287.752 145.164 287.467 145.641C287.186 146.117 286.777 146.482 286.242 146.736C285.707 146.99 285.074 147.117 284.344 147.117C283.242 147.117 282.387 146.836 281.777 146.273C281.168 145.707 280.863 144.934 280.863 143.953V138.434H282.674V143.678C282.674 144.338 282.807 144.822 283.072 145.131C283.338 145.439 283.777 145.594 284.391 145.594C284.984 145.594 285.414 145.439 285.68 145.131C285.949 144.818 286.084 144.33 286.084 143.666V138.434H287.895ZM297.592 147H295.283L291.557 140.52H291.504C291.578 141.664 291.615 142.48 291.615 142.969V147H289.992V138.434H292.283L296.004 144.85H296.045C295.986 143.736 295.957 142.949 295.957 142.488V138.434H297.592V147ZM299.754 147V138.434H301.57V147H299.754ZM307.031 147H305.215V139.945H302.889V138.434H309.357V139.945H307.031V147ZM313.342 141.961L315.129 138.434H317.086L314.244 143.666V147H312.439V143.725L309.598 138.434H311.566L313.342 141.961Z" fill="#333333" fill-opacity="0.6"/>
<path d="M338.186 142.635C338.186 144.045 337.783 145.125 336.979 145.875C336.178 146.625 335.02 147 333.504 147H331.078V138.434H333.768C335.166 138.434 336.252 138.803 337.025 139.541C337.799 140.279 338.186 141.311 338.186 142.635ZM336.299 142.682C336.299 140.842 335.486 139.922 333.861 139.922H332.895V145.5H333.674C335.424 145.5 336.299 144.561 336.299 142.682ZM339.961 147V138.434H341.777V147H339.961ZM348.99 144.621C348.99 145.395 348.711 146.004 348.152 146.449C347.598 146.895 346.824 147.117 345.832 147.117C344.918 147.117 344.109 146.945 343.406 146.602V144.914C343.984 145.172 344.473 145.354 344.871 145.459C345.273 145.564 345.641 145.617 345.973 145.617C346.371 145.617 346.676 145.541 346.887 145.389C347.102 145.236 347.209 145.01 347.209 144.709C347.209 144.541 347.162 144.393 347.068 144.264C346.975 144.131 346.836 144.004 346.652 143.883C346.473 143.762 346.104 143.568 345.545 143.303C345.021 143.057 344.629 142.82 344.367 142.594C344.105 142.367 343.896 142.104 343.74 141.803C343.584 141.502 343.506 141.15 343.506 140.748C343.506 139.99 343.762 139.395 344.273 138.961C344.789 138.527 345.5 138.311 346.406 138.311C346.852 138.311 347.275 138.363 347.678 138.469C348.084 138.574 348.508 138.723 348.949 138.914L348.363 140.326C347.906 140.139 347.527 140.008 347.227 139.934C346.93 139.859 346.637 139.822 346.348 139.822C346.004 139.822 345.74 139.902 345.557 140.062C345.373 140.223 345.281 140.432 345.281 140.689C345.281 140.85 345.318 140.99 345.393 141.111C345.467 141.229 345.584 141.344 345.744 141.457C345.908 141.566 346.293 141.766 346.898 142.055C347.699 142.438 348.248 142.822 348.545 143.209C348.842 143.592 348.99 144.062 348.99 144.621ZM354.182 139.822C353.498 139.822 352.969 140.08 352.594 140.596C352.219 141.107 352.031 141.822 352.031 142.74C352.031 144.65 352.748 145.605 354.182 145.605C354.783 145.605 355.512 145.455 356.367 145.154V146.678C355.664 146.971 354.879 147.117 354.012 147.117C352.766 147.117 351.812 146.74 351.152 145.986C350.492 145.229 350.162 144.143 350.162 142.729C350.162 141.838 350.324 141.059 350.648 140.391C350.973 139.719 351.438 139.205 352.043 138.85C352.652 138.49 353.365 138.311 354.182 138.311C355.014 138.311 355.85 138.512 356.689 138.914L356.104 140.391C355.783 140.238 355.461 140.105 355.137 139.992C354.812 139.879 354.494 139.822 354.182 139.822ZM365.971 142.705C365.971 144.123 365.619 145.213 364.916 145.975C364.213 146.736 363.205 147.117 361.893 147.117C360.58 147.117 359.572 146.736 358.869 145.975C358.166 145.213 357.814 144.119 357.814 142.693C357.814 141.268 358.166 140.18 358.869 139.43C359.576 138.676 360.588 138.299 361.904 138.299C363.221 138.299 364.227 138.678 364.922 139.436C365.621 140.193 365.971 141.283 365.971 142.705ZM359.719 142.705C359.719 143.662 359.9 144.383 360.264 144.867C360.627 145.352 361.17 145.594 361.893 145.594C363.342 145.594 364.066 144.631 364.066 142.705C364.066 140.775 363.346 139.811 361.904 139.811C361.182 139.811 360.637 140.055 360.27 140.543C359.902 141.027 359.719 141.748 359.719 142.705ZM372.633 138.434H374.467L371.555 147H369.574L366.668 138.434H368.502L370.113 143.531C370.203 143.832 370.295 144.184 370.389 144.586C370.486 144.984 370.547 145.262 370.57 145.418C370.613 145.059 370.76 144.43 371.01 143.531L372.633 138.434ZM380.484 147H375.551V138.434H380.484V139.922H377.367V141.803H380.268V143.291H377.367V145.5H380.484V147ZM384.094 142.236H384.68C385.254 142.236 385.678 142.141 385.951 141.949C386.225 141.758 386.361 141.457 386.361 141.047C386.361 140.641 386.221 140.352 385.939 140.18C385.662 140.008 385.23 139.922 384.645 139.922H384.094V142.236ZM384.094 143.713V147H382.277V138.434H384.773C385.938 138.434 386.799 138.646 387.357 139.072C387.916 139.494 388.195 140.137 388.195 141C388.195 141.504 388.057 141.953 387.779 142.348C387.502 142.738 387.109 143.045 386.602 143.268C387.891 145.193 388.73 146.438 389.121 147H387.105L385.061 143.713H384.094Z" fill="#333333" fill-opacity="0.6"/>
<path d="M135.5 108.571V110.804C135.5 111.041 135.327 111.379 134.738 111.777C134.166 112.163 133.307 112.53 132.2 112.846C129.994 113.477 126.917 113.875 123.5 113.875C120.083 113.875 117.006 113.477 114.8 112.846C113.693 112.53 112.834 112.163 112.262 111.777C111.673 111.379 111.5 111.041 111.5 110.804V108.571C111.5 108.334 111.673 107.996 112.262 107.598C112.834 107.212 113.693 106.845 114.8 106.529C117.006 105.898 120.083 105.5 123.5 105.5C126.917 105.5 129.994 105.898 132.2 106.529C133.307 106.845 134.166 107.212 134.738 107.598C135.327 107.996 135.5 108.334 135.5 108.571ZM135.5 114.431V118.616C135.5 118.854 135.327 119.192 134.738 119.59C134.166 119.975 133.307 120.342 132.2 120.659C129.994 121.29 126.917 121.688 123.5 121.688C120.083 121.688 117.006 121.29 114.8 120.659C113.693 120.342 112.834 119.975 112.262 119.59C111.673 119.192 111.5 118.854 111.5 118.616V114.431C112.826 115.074 114.498 115.55 116.332 115.879C118.543 116.275 121.027 116.465 123.5 116.465C125.973 116.465 128.457 116.275 130.668 115.879C132.502 115.55 134.174 115.074 135.5 114.431ZM130.668 123.691C132.502 123.362 134.174 122.886 135.5 122.244V126.429C135.5 126.666 135.327 127.004 134.738 127.402C134.166 127.788 133.307 128.155 132.2 128.471C129.994 129.102 126.917 129.5 123.5 129.5C120.083 129.5 117.006 129.102 114.8 128.471C113.693 128.155 112.834 127.788 112.262 127.402C111.673 127.004 111.5 126.666 111.5 126.429V122.244C112.826 122.886 114.498 123.362 116.332 123.691C118.543 124.088 121.027 124.278 123.5 124.278C125.973 124.278 128.457 124.088 130.668 123.691Z" stroke="#333333" stroke-opacity="0.6"/>
<mask id="path-18-inside-1" fill="white">
<path d="M266.045 114.496C268.143 114.496 269.85 112.59 269.85 110.247C269.85 107.905 268.143 106 266.045 106C263.947 106 262.241 107.905 262.241 110.247C262.241 112.59 263.947 114.496 266.045 114.496ZM266.045 107.26C267.52 107.26 268.721 108.6 268.721 110.247C268.721 111.895 267.52 113.236 266.045 113.236C264.57 113.236 263.37 111.895 263.37 110.247C263.37 108.6 264.57 107.26 266.045 107.26Z"/>
</mask>
<path d="M263.37 110.247L268.37 110.247L263.37 110.247ZM266.045 119.496C271.409 119.496 274.85 114.818 274.85 110.247H264.85C264.85 110.206 264.866 110.075 265.01 109.915C265.161 109.746 265.518 109.496 266.045 109.496V119.496ZM274.85 110.247C274.85 105.674 271.406 101 266.045 101V111C265.518 111 265.162 110.751 265.01 110.582C264.866 110.421 264.85 110.29 264.85 110.247H274.85ZM266.045 101C260.682 101 257.241 105.677 257.241 110.247H267.241C267.241 110.289 267.226 110.42 267.081 110.581C266.93 110.75 266.572 111 266.045 111V101ZM257.241 110.247C257.241 114.817 260.68 119.496 266.045 119.496V109.496C266.573 109.496 266.93 109.746 267.082 109.915C267.226 110.077 267.241 110.207 267.241 110.247H257.241ZM266.045 112.26C265.207 112.26 264.568 111.87 264.213 111.473C263.864 111.083 263.721 110.638 263.721 110.247H273.721C273.721 106.369 270.784 102.26 266.045 102.26V112.26ZM263.721 110.247C263.721 109.858 263.864 109.413 264.212 109.024C264.567 108.627 265.206 108.236 266.045 108.236V118.236C270.786 118.236 273.721 114.123 273.721 110.247H263.721ZM266.045 108.236C266.884 108.236 267.524 108.627 267.879 109.024C268.228 109.414 268.37 109.859 268.37 110.247H258.37C258.37 114.121 261.302 118.236 266.045 118.236V108.236ZM268.37 110.247C268.37 110.637 268.227 111.082 267.879 111.472C267.523 111.869 266.883 112.26 266.045 112.26V102.26C261.304 102.26 258.37 106.371 258.37 110.247L268.37 110.247Z" fill="#333333" fill-opacity="0.6" mask="url(#path-18-inside-1)"/>
<mask id="path-20-inside-2" fill="white">
<path d="M276.612 117.375C279.157 117.375 281.227 115.064 281.227 112.222C281.227 109.381 279.157 107.07 276.612 107.07C274.068 107.07 271.998 109.381 271.998 112.222C271.998 115.064 274.068 117.375 276.612 117.375ZM276.612 108.331C278.534 108.331 280.098 110.077 280.098 112.222C280.098 114.369 278.534 116.115 276.612 116.115C274.691 116.115 273.127 114.369 273.127 112.222C273.127 110.077 274.691 108.331 276.612 108.331Z"/>
</mask>
<path d="M276.612 122.375C282.422 122.375 286.227 117.293 286.227 112.222H276.227C276.227 112.324 276.209 112.4 276.189 112.452C276.168 112.507 276.148 112.53 276.149 112.528C276.151 112.527 276.185 112.49 276.269 112.45C276.359 112.407 276.48 112.375 276.612 112.375V122.375ZM286.227 112.222C286.227 107.151 282.421 102.07 276.612 102.07V112.07C276.48 112.07 276.359 112.038 276.269 111.995C276.185 111.956 276.151 111.919 276.15 111.917C276.148 111.916 276.169 111.939 276.189 111.993C276.209 112.045 276.227 112.121 276.227 112.222H286.227ZM276.612 102.07C270.801 102.07 266.998 107.153 266.998 112.222H276.998C276.998 112.12 277.016 112.044 277.036 111.992C277.057 111.938 277.077 111.915 277.076 111.916C277.074 111.918 277.04 111.955 276.956 111.995C276.866 112.038 276.744 112.07 276.612 112.07V102.07ZM266.998 112.222C266.998 117.291 270.8 122.375 276.612 122.375V112.375C276.744 112.375 276.866 112.407 276.956 112.45C277.041 112.49 277.075 112.528 277.076 112.529C277.077 112.531 277.057 112.508 277.036 112.453C277.016 112.401 276.998 112.324 276.998 112.222H266.998ZM276.612 113.331C275.997 113.331 275.561 113.041 275.352 112.808C275.15 112.583 275.098 112.363 275.098 112.222H285.098C285.098 107.846 281.797 103.331 276.612 103.331V113.331ZM275.098 112.222C275.098 112.082 275.149 111.863 275.352 111.637C275.561 111.404 275.997 111.115 276.612 111.115V121.115C281.8 121.115 285.098 116.598 285.098 112.222H275.098ZM276.612 111.115C277.228 111.115 277.665 111.405 277.874 111.638C278.076 111.864 278.127 112.083 278.127 112.222H268.127C268.127 116.595 271.423 121.115 276.612 121.115V111.115ZM278.127 112.222C278.127 112.363 278.075 112.582 277.874 112.807C277.665 113.04 277.228 113.331 276.612 113.331V103.331C271.425 103.331 268.127 107.848 268.127 112.222H278.127Z" fill="#333333" fill-opacity="0.6" mask="url(#path-20-inside-2)"/>
<mask id="path-22-inside-3" fill="white">
<path d="M287.043 116.063C283.875 116.063 281.142 117.728 280.338 120.035C279.182 119.587 277.879 119.333 276.499 119.333C275.12 119.333 273.817 119.587 272.661 120.035C271.856 117.728 269.123 116.063 265.955 116.063C262.12 116.063 259 118.479 259 121.449V122.637C259 124.296 260.209 125.647 261.695 125.647H267.955C267.951 125.734 267.947 125.82 267.947 125.909V127.395C267.947 129.383 269.395 131 271.175 131H281.824C283.605 131 285.053 129.383 285.053 127.395V125.909C285.053 125.822 285.048 125.734 285.045 125.647H291.305C292.79 125.647 294 124.298 294 122.637V121.449C293.999 118.479 290.879 116.063 287.043 116.063ZM268.467 123.649C268.467 123.65 268.467 123.65 268.466 123.65C268.423 123.744 268.381 123.838 268.342 123.932C268.292 124.053 268.247 124.176 268.207 124.3C268.197 124.329 268.183 124.357 268.175 124.386H261.695C260.832 124.386 260.129 123.601 260.129 122.637V121.449C260.129 119.175 262.743 117.323 265.955 117.323C268.676 117.323 271.004 118.659 271.621 120.499C270.157 121.276 269.066 122.379 268.467 123.649ZM281.824 129.739H271.175C270.017 129.739 269.076 128.687 269.076 127.395V125.908C269.076 125.556 269.127 125.212 269.218 124.879C269.231 124.833 269.248 124.787 269.262 124.741C269.292 124.644 269.328 124.55 269.365 124.455C269.404 124.359 269.446 124.265 269.491 124.172C269.52 124.113 269.55 124.054 269.582 123.995C269.664 123.844 269.755 123.697 269.856 123.552C269.861 123.545 269.865 123.538 269.869 123.532C270.464 122.691 271.369 121.965 272.51 121.438C272.514 121.436 272.517 121.432 272.52 121.431C273.672 120.904 275.035 120.595 276.499 120.595C277.963 120.595 279.327 120.904 280.478 121.431C280.482 121.432 280.485 121.436 280.488 121.438C281.629 121.965 282.534 122.691 283.128 123.532C283.133 123.538 283.136 123.545 283.141 123.552C283.243 123.697 283.334 123.845 283.416 123.995C283.448 124.054 283.477 124.113 283.506 124.172C283.552 124.266 283.594 124.36 283.632 124.455C283.67 124.55 283.705 124.645 283.736 124.741C283.75 124.787 283.766 124.833 283.78 124.879C283.871 125.213 283.921 125.556 283.921 125.908V127.395H283.922C283.923 128.687 282.982 129.739 281.824 129.739ZM291.304 124.387H284.824C284.816 124.357 284.802 124.329 284.792 124.3C284.752 124.176 284.707 124.053 284.656 123.931C284.617 123.836 284.576 123.743 284.532 123.65C284.532 123.65 284.532 123.65 284.532 123.649C283.933 122.378 282.841 121.275 281.378 120.498C281.995 118.659 284.322 117.322 287.043 117.322C290.256 117.322 292.869 119.174 292.869 121.448V122.637H292.87C292.87 123.602 292.167 124.387 291.304 124.387Z"/>
</mask>
<path d="M280.338 120.035L278.532 124.697L283.355 126.566L285.059 121.682L280.338 120.035ZM272.661 120.035L267.94 121.682L269.644 126.566L274.468 124.697L272.661 120.035ZM265.955 116.063V121.063V116.063ZM267.955 125.647L272.948 125.917L273.233 120.647H267.955V125.647ZM285.045 125.647V120.647H279.817L280.05 125.87L285.045 125.647ZM294 121.449L299 121.449L299 121.447L294 121.449ZM268.467 123.649L263.944 121.517L263.467 122.53V123.649H268.467ZM268.466 123.65V118.65H265.275L263.931 121.544L268.466 123.65ZM268.342 123.932L272.96 125.851L272.965 125.837L272.971 125.823L268.342 123.932ZM268.207 124.3L272.949 125.884L272.953 125.871L268.207 124.3ZM268.175 124.386V129.386H271.916L272.972 125.797L268.175 124.386ZM271.621 120.499L273.965 124.915L277.709 122.928L276.362 118.909L271.621 120.499ZM269.218 124.879L264.412 123.499L264.404 123.527L264.397 123.555L269.218 124.879ZM269.262 124.741L274.03 126.246L274.033 126.236L269.262 124.741ZM269.365 124.455L264.728 122.586L264.723 122.598L264.718 122.611L269.365 124.455ZM269.491 124.172L273.974 126.388L273.986 126.362L273.998 126.337L269.491 124.172ZM269.582 123.995L265.192 121.601L265.189 121.606L269.582 123.995ZM269.856 123.552L273.949 126.424L273.978 126.382L274.007 126.34L269.856 123.552ZM269.869 123.532L273.934 126.444L273.943 126.431L273.952 126.418L269.869 123.532ZM272.51 121.438L270.471 116.872L270.441 116.886L270.411 116.899L272.51 121.438ZM272.52 121.431L270.442 116.883L270.258 116.967L270.082 117.065L272.52 121.431ZM280.478 121.431L282.701 116.952L282.629 116.916L282.556 116.883L280.478 121.431ZM280.488 121.438L278.05 125.803L278.217 125.896L278.39 125.976L280.488 121.438ZM283.128 123.532L279.044 126.417L279.054 126.43L279.064 126.444L283.128 123.532ZM283.141 123.552L287.238 120.685L287.222 120.662L287.206 120.64L283.141 123.552ZM283.416 123.995L287.816 121.62L287.806 121.602L287.796 121.585L283.416 123.995ZM283.506 124.172L279.005 126.35L279.008 126.356L279.012 126.363L283.506 124.172ZM283.632 124.455L288.28 122.611L288.277 122.604L283.632 124.455ZM283.736 124.741L288.504 123.237L288.5 123.223L283.736 124.741ZM283.78 124.879L288.603 123.563L288.589 123.512L288.574 123.462L283.78 124.879ZM283.921 127.395H278.921V132.395H283.921V127.395ZM283.922 127.395L288.922 127.392L288.919 122.395H283.922V127.395ZM284.824 124.387L280.027 125.797L281.083 129.387H284.824V124.387ZM284.792 124.3L280.036 125.843L280.038 125.848L284.792 124.3ZM284.656 123.931L289.279 122.024L289.278 122.023L284.656 123.931ZM284.532 123.65L289.06 121.528L287.711 118.65H284.532V123.65ZM284.532 123.649H289.532V122.529L289.055 121.517L284.532 123.649ZM281.378 120.498L276.638 118.908L275.289 122.926L279.033 124.914L281.378 120.498ZM292.869 122.637H287.869V127.637H292.869V122.637ZM292.87 122.637L297.87 122.635L297.868 117.637H292.87V122.637ZM287.043 111.063C282.431 111.063 277.323 113.497 275.617 118.388L285.059 121.682C285.001 121.847 284.986 121.705 285.368 121.476C285.736 121.257 286.317 121.063 287.043 121.063V111.063ZM282.144 115.373C280.407 114.7 278.491 114.333 276.499 114.333V124.333C277.267 124.333 277.957 124.475 278.532 124.697L282.144 115.373ZM276.499 114.333C274.508 114.333 272.592 114.7 270.855 115.373L274.468 124.697C275.041 124.475 275.732 124.333 276.499 124.333V114.333ZM277.382 118.388C275.676 113.497 270.567 111.063 265.955 111.063V121.063C266.681 121.063 267.263 121.257 267.63 121.476C268.013 121.705 267.998 121.847 267.94 121.682L277.382 118.388ZM265.955 111.063C260.623 111.063 254 114.603 254 121.449H264C264 121.827 263.79 121.836 264.101 121.595C264.416 121.351 265.057 121.063 265.955 121.063V111.063ZM254 121.449V122.637H264V121.449H254ZM254 122.637C254 126.524 256.942 130.647 261.695 130.647V120.647C262.529 120.647 263.164 121.036 263.515 121.429C263.86 121.814 264 122.254 264 122.637H254ZM261.695 130.647H267.955V120.647H261.695V130.647ZM262.963 125.378C262.956 125.505 262.947 125.693 262.947 125.909H272.947C272.947 125.93 272.947 125.943 272.947 125.944C272.947 125.945 272.947 125.944 272.947 125.939C272.947 125.934 272.948 125.927 272.948 125.917L262.963 125.378ZM262.947 125.909V127.395H272.947V125.909H262.947ZM262.947 127.395C262.947 131.611 266.129 136 271.175 136V126C271.862 126 272.363 126.322 272.619 126.607C272.867 126.885 272.947 127.176 272.947 127.395H262.947ZM271.175 136H281.824V126H271.175V136ZM281.824 136C286.871 136 290.053 131.611 290.053 127.395H280.053C280.053 127.176 280.133 126.885 280.381 126.607C280.637 126.322 281.138 126 281.824 126V136ZM290.053 127.395V125.909H280.053V127.395H290.053ZM290.053 125.909C290.053 125.685 290.042 125.47 290.04 125.425L280.05 125.87C280.05 125.881 280.051 125.895 280.051 125.904C280.052 125.914 280.052 125.922 280.052 125.93C280.053 125.945 280.053 125.952 280.053 125.956C280.053 125.96 280.053 125.957 280.053 125.949C280.053 125.942 280.053 125.928 280.053 125.909H290.053ZM285.045 130.647H291.305V120.647H285.045V130.647ZM291.305 130.647C296.055 130.647 299 126.527 299 122.637H289C289 122.254 289.14 121.814 289.485 121.429C289.837 121.036 290.471 120.647 291.305 120.647V130.647ZM299 122.637V121.449H289V122.637H299ZM299 121.447C298.997 114.604 292.377 111.063 287.043 111.063V121.063C287.942 121.063 288.583 121.351 288.898 121.595C289.209 121.836 289 121.828 289 121.451L299 121.447ZM263.467 123.649C263.467 123.705 263.465 123.556 263.473 123.402C263.473 123.397 263.482 122.547 263.903 121.607C264.168 121.015 264.615 120.33 265.336 119.751C266.042 119.185 266.758 118.922 267.266 118.796C267.999 118.615 268.732 118.65 268.466 118.65V128.65C268.201 128.65 268.934 128.685 269.668 128.504C270.175 128.378 270.892 128.115 271.597 127.549C272.318 126.97 272.765 126.285 273.03 125.693C273.451 124.753 273.46 123.903 273.461 123.897C273.466 123.798 273.466 123.72 273.467 123.695C273.467 123.678 273.467 123.665 273.467 123.659C273.467 123.656 273.467 123.653 273.467 123.652C273.467 123.651 273.467 123.65 273.467 123.65C273.467 123.65 273.467 123.649 273.467 123.649C273.467 123.649 273.467 123.649 273.467 123.649C273.467 123.649 273.467 123.649 273.467 123.649C273.467 123.649 273.467 123.649 273.467 123.649H263.467ZM263.931 121.544C263.87 121.676 263.793 121.847 263.714 122.041L272.971 125.823C272.969 125.827 272.97 125.824 272.976 125.812C272.981 125.801 272.989 125.783 273.001 125.756L263.931 121.544ZM263.725 122.013C263.616 122.277 263.529 122.521 263.46 122.728L272.953 125.871C272.959 125.853 272.963 125.842 272.965 125.838C272.966 125.834 272.965 125.838 272.96 125.851L263.725 122.013ZM263.464 122.715C263.495 122.623 263.522 122.553 263.534 122.521C263.541 122.504 263.546 122.491 263.547 122.488C263.547 122.487 263.548 122.486 263.547 122.488C263.546 122.489 263.545 122.494 263.543 122.498C263.537 122.514 263.513 122.573 263.486 122.647C263.458 122.723 263.419 122.836 263.378 122.976L272.972 125.797C272.935 125.921 272.9 126.02 272.878 126.082C272.866 126.114 272.856 126.139 272.85 126.156C272.843 126.173 272.839 126.185 272.838 126.187C272.837 126.188 272.837 126.189 272.838 126.187C272.838 126.185 272.84 126.181 272.842 126.176C272.846 126.166 272.854 126.146 272.863 126.122C272.881 126.075 272.913 125.991 272.949 125.884L263.464 122.715ZM268.175 119.386H261.695V129.386H268.175V119.386ZM261.695 119.386C264.098 119.386 265.129 121.374 265.129 122.637H255.129C255.129 125.829 257.565 129.386 261.695 129.386V119.386ZM265.129 122.637V121.449H255.129V122.637H265.129ZM265.129 121.449C265.129 121.869 265.002 122.205 264.879 122.412C264.765 122.602 264.678 122.648 264.728 122.614C264.846 122.53 265.266 122.323 265.955 122.323V112.323C263.433 112.323 260.94 113.042 258.948 114.453C256.971 115.853 255.129 118.254 255.129 121.449H265.129ZM265.955 122.323C266.524 122.323 266.929 122.468 267.12 122.575C267.209 122.626 267.205 122.641 267.151 122.581C267.094 122.519 266.971 122.359 266.88 122.089L276.362 118.909C274.797 114.243 269.856 112.323 265.955 112.323V122.323ZM269.277 116.082C267.005 117.288 265.069 119.131 263.944 121.517L272.989 125.782C273.062 125.628 273.309 125.263 273.965 124.915L269.277 116.082ZM281.824 124.739H271.175V134.739H281.824V124.739ZM271.175 124.739C273.284 124.739 274.076 126.46 274.076 127.395H264.076C264.076 130.914 266.75 134.739 271.175 134.739V124.739ZM274.076 127.395V125.908H264.076V127.395H274.076ZM274.076 125.908C274.076 126.038 274.057 126.14 274.039 126.204L264.397 123.555C264.196 124.284 264.076 125.073 264.076 125.908H274.076ZM274.024 126.26C274.013 126.296 274.005 126.323 274 126.339C273.997 126.348 273.995 126.354 273.994 126.358C273.993 126.362 273.992 126.363 273.993 126.363C273.993 126.361 273.994 126.359 273.995 126.354C273.996 126.351 273.997 126.348 273.999 126.344C274 126.341 274.001 126.336 274.003 126.332C274.006 126.322 274.01 126.31 274.014 126.296C274.019 126.282 274.024 126.265 274.03 126.246L264.494 123.237C264.498 123.223 264.501 123.215 264.499 123.22C264.498 123.222 264.498 123.225 264.495 123.232C264.493 123.238 264.49 123.247 264.487 123.258C264.475 123.295 264.445 123.387 264.412 123.499L274.024 126.26ZM274.033 126.236C274.022 126.273 274.013 126.298 274.009 126.308C274.006 126.318 274.006 126.316 274.013 126.298L264.718 122.611C264.658 122.761 264.573 122.984 264.491 123.247L274.033 126.236ZM274.003 126.324C274.003 126.324 274.001 126.33 273.996 126.34C273.991 126.35 273.984 126.367 273.974 126.388L265.009 121.957C264.897 122.183 264.805 122.396 264.728 122.586L274.003 126.324ZM273.998 126.337C273.992 126.351 273.983 126.367 273.974 126.384L265.189 121.606C265.116 121.741 265.048 121.874 264.984 122.008L273.998 126.337ZM273.971 126.39C273.971 126.39 273.969 126.393 273.965 126.399C273.961 126.406 273.956 126.414 273.949 126.424L265.764 120.679C265.546 120.99 265.357 121.298 265.192 121.601L273.971 126.39ZM274.007 126.34C274.03 126.306 274.048 126.278 274.057 126.264C274.061 126.257 274.065 126.252 274.065 126.251C274.067 126.248 274.065 126.252 274.063 126.255C274.058 126.262 274.043 126.286 274.022 126.317C274.001 126.349 273.971 126.392 273.934 126.444L265.805 120.62C265.766 120.675 265.734 120.722 265.71 120.757C265.687 120.791 265.67 120.818 265.663 120.829C265.661 120.832 265.66 120.834 265.659 120.835C265.658 120.836 265.658 120.837 265.657 120.837C265.657 120.837 265.657 120.838 265.657 120.838C265.657 120.838 265.657 120.838 265.657 120.838C265.657 120.839 265.659 120.835 265.662 120.829C265.669 120.819 265.685 120.795 265.706 120.764L274.007 126.34ZM273.952 126.418C273.951 126.419 273.989 126.366 274.097 126.28C274.205 126.195 274.371 126.086 274.609 125.976L270.411 116.899C268.622 117.727 266.972 118.969 265.787 120.646L273.952 126.418ZM274.549 126.003C274.916 125.839 275.198 125.66 275.385 125.529C275.565 125.403 275.696 125.292 275.725 125.267C275.735 125.26 275.742 125.253 275.742 125.253C275.745 125.251 275.738 125.257 275.732 125.262C275.718 125.273 275.677 125.308 275.623 125.351C275.568 125.395 275.483 125.46 275.377 125.534C275.27 125.608 275.129 125.7 274.957 125.796L270.082 117.065C269.909 117.161 269.767 117.254 269.66 117.329C269.553 117.404 269.468 117.469 269.412 117.514C269.357 117.557 269.315 117.592 269.301 117.604C269.294 117.61 269.287 117.616 269.289 117.614C269.289 117.614 269.291 117.612 269.294 117.61C269.296 117.608 269.3 117.605 269.305 117.601C269.333 117.578 269.463 117.468 269.64 117.344C269.826 117.213 270.106 117.035 270.471 116.872L274.549 126.003ZM274.598 125.978C275.078 125.759 275.731 125.595 276.499 125.595V115.595C274.339 115.595 272.265 116.05 270.442 116.883L274.598 125.978ZM276.499 125.595C277.267 125.595 277.92 125.759 278.4 125.978L282.556 116.883C280.733 116.05 278.659 115.595 276.499 115.595V125.595ZM278.256 125.909C278.075 125.82 277.921 125.73 277.794 125.649C277.667 125.568 277.562 125.493 277.481 125.432C277.4 125.372 277.336 125.32 277.293 125.284C277.252 125.25 277.221 125.223 277.214 125.217C277.211 125.215 277.21 125.214 277.21 125.213C277.209 125.213 277.21 125.214 277.212 125.215C277.215 125.218 277.224 125.226 277.235 125.236C277.257 125.254 277.304 125.294 277.365 125.343C277.426 125.392 277.515 125.46 277.624 125.537C277.735 125.614 277.878 125.707 278.05 125.803L282.925 117.072C283.097 117.168 283.239 117.261 283.349 117.337C283.458 117.413 283.545 117.481 283.606 117.529C283.666 117.577 283.712 117.616 283.733 117.635C283.745 117.644 283.753 117.652 283.756 117.654C283.764 117.661 283.753 117.651 283.753 117.651C283.745 117.645 283.713 117.617 283.671 117.582C283.628 117.546 283.562 117.493 283.481 117.432C283.323 117.314 283.058 117.129 282.701 116.952L278.256 125.909ZM278.39 125.976C278.627 126.086 278.793 126.195 278.901 126.28C279.009 126.366 279.046 126.419 279.044 126.417L287.212 120.647C286.027 118.969 284.376 117.727 282.586 116.899L278.39 125.976ZM279.064 126.444C279.036 126.405 279.011 126.369 278.99 126.338C278.969 126.308 278.952 126.281 278.938 126.26C278.925 126.239 278.914 126.222 278.908 126.212C278.904 126.207 278.902 126.203 278.9 126.201C278.899 126.199 278.898 126.197 278.899 126.198C278.899 126.198 278.9 126.201 278.902 126.203C278.904 126.207 278.907 126.211 278.911 126.217C278.918 126.229 278.93 126.247 278.944 126.27C278.959 126.292 278.978 126.321 279 126.353C279.022 126.386 279.047 126.423 279.076 126.463L287.206 120.64C287.234 120.679 287.258 120.714 287.279 120.745C287.3 120.776 287.317 120.802 287.331 120.823C287.345 120.844 287.355 120.861 287.362 120.871C287.365 120.876 287.367 120.88 287.369 120.882C287.37 120.885 287.371 120.886 287.371 120.885C287.371 120.885 287.369 120.883 287.367 120.88C287.365 120.877 287.362 120.872 287.358 120.866C287.351 120.854 287.339 120.836 287.325 120.814C287.31 120.791 287.292 120.763 287.27 120.73C287.248 120.698 287.222 120.661 287.193 120.62L279.064 126.444ZM279.044 126.418C279.037 126.407 279.032 126.4 279.031 126.398C279.03 126.396 279.031 126.398 279.035 126.406L287.796 121.585C287.64 121.301 287.456 120.996 287.238 120.685L279.044 126.418ZM279.016 126.371C279.005 126.349 279 126.339 279.005 126.35L288.007 121.995C287.955 121.887 287.891 121.76 287.816 121.62L279.016 126.371ZM279.012 126.363C279.013 126.366 279.003 126.346 278.987 126.306L288.277 122.604C288.185 122.374 288.09 122.165 288.001 121.982L279.012 126.363ZM278.984 126.298C278.99 126.314 278.991 126.317 278.989 126.311C278.987 126.305 278.98 126.287 278.972 126.26L288.5 123.223C288.422 122.979 288.342 122.768 288.28 122.611L278.984 126.298ZM278.967 126.246C278.977 126.277 278.986 126.303 278.991 126.32C278.994 126.329 278.997 126.337 278.998 126.342C279 126.348 279.001 126.351 279.002 126.353C279.004 126.359 279.002 126.355 279 126.346C278.997 126.338 278.992 126.32 278.985 126.297L288.574 123.462C288.548 123.373 288.524 123.299 288.514 123.267C288.511 123.258 288.508 123.25 288.506 123.244C288.504 123.238 288.503 123.234 288.502 123.231C288.5 123.225 288.501 123.229 288.504 123.237L278.967 126.246ZM278.956 126.196C278.941 126.139 278.921 126.04 278.921 125.908H288.921C288.921 125.073 288.801 124.286 288.603 123.563L278.956 126.196ZM278.921 125.908V127.395H288.921V125.908H278.921ZM283.921 132.395H283.922V122.395H283.921V132.395ZM278.922 127.398C278.922 126.459 279.716 124.739 281.824 124.739V134.739C286.247 134.739 288.924 130.915 288.922 127.392L278.922 127.398ZM291.304 119.387H284.824V129.387H291.304V119.387ZM289.621 122.976C289.578 122.831 289.537 122.713 289.509 122.637C289.482 122.563 289.458 122.504 289.453 122.491C289.452 122.489 289.451 122.487 289.451 122.486C289.449 122.481 289.451 122.486 289.45 122.483C289.449 122.482 289.45 122.484 289.451 122.486C289.453 122.491 289.459 122.506 289.467 122.527C289.481 122.565 289.512 122.646 289.546 122.752L280.038 125.848C280.058 125.91 280.077 125.964 280.093 126.008C280.108 126.052 280.123 126.089 280.133 126.117C280.144 126.144 280.153 126.166 280.157 126.179C280.16 126.185 280.162 126.19 280.163 126.193C280.163 126.193 280.164 126.194 280.164 126.194C280.164 126.195 280.164 126.195 280.164 126.195C280.164 126.196 280.164 126.196 280.164 126.195C280.164 126.194 280.159 126.183 280.153 126.167C280.147 126.151 280.137 126.125 280.125 126.093C280.113 126.061 280.098 126.019 280.082 125.971C280.065 125.922 280.047 125.864 280.027 125.797L289.621 122.976ZM289.548 122.757C289.467 122.508 289.377 122.264 289.279 122.024L280.034 125.838C280.036 125.842 280.036 125.843 280.036 125.843L289.548 122.757ZM289.278 122.023C289.21 121.859 289.138 121.694 289.06 121.528L280.005 125.772C280.014 125.791 280.024 125.814 280.035 125.84L289.278 122.023ZM284.532 118.65C284.267 118.65 284.999 118.614 285.733 118.796C286.241 118.922 286.957 119.184 287.663 119.751C288.384 120.33 288.83 121.014 289.095 121.606C289.516 122.546 289.526 123.397 289.526 123.402C289.534 123.555 289.532 123.704 289.532 123.649H279.532C279.532 123.649 279.532 123.649 279.532 123.649C279.532 123.649 279.532 123.649 279.532 123.649C279.532 123.649 279.532 123.649 279.532 123.649C279.532 123.649 279.532 123.649 279.532 123.649C279.532 123.65 279.532 123.65 279.532 123.651C279.532 123.653 279.532 123.655 279.532 123.659C279.532 123.665 279.532 123.678 279.532 123.694C279.532 123.72 279.533 123.797 279.538 123.897C279.538 123.902 279.548 124.753 279.969 125.693C280.234 126.285 280.68 126.969 281.401 127.548C282.107 128.115 282.823 128.378 283.331 128.503C284.065 128.685 284.797 128.65 284.532 128.65V118.65ZM289.055 121.517C287.93 119.13 285.993 117.287 283.722 116.082L279.033 124.914C279.69 125.263 279.937 125.627 280.009 125.781L289.055 121.517ZM286.118 122.088C286.027 122.359 285.904 122.519 285.848 122.581C285.794 122.641 285.79 122.625 285.88 122.575C286.071 122.467 286.475 122.322 287.043 122.322V112.322C283.141 112.322 278.202 114.244 276.638 118.908L286.118 122.088ZM287.043 122.322C287.734 122.322 288.153 122.529 288.271 122.612C288.32 122.647 288.233 122.6 288.12 122.411C287.996 122.204 287.869 121.867 287.869 121.448H297.869C297.869 118.253 296.029 115.853 294.051 114.452C292.059 113.041 289.566 112.322 287.043 112.322V122.322ZM287.869 121.448V122.637H297.869V121.448H287.869ZM292.869 127.637H292.87V117.637H292.869V127.637ZM287.87 122.639C287.869 121.373 288.902 119.387 291.304 119.387V129.387C295.432 129.387 297.871 125.831 297.87 122.635L287.87 122.639Z" fill="#333333" fill-opacity="0.6" mask="url(#path-22-inside-3)"/>
<mask id="path-24-inside-4" fill="white">
<path d="M287.134 114.496C289.233 114.496 290.939 112.59 290.939 110.247C290.939 107.905 289.232 106 287.134 106C285.036 106 283.33 107.905 283.33 110.247C283.329 112.59 285.036 114.496 287.134 114.496ZM287.134 107.26C288.61 107.26 289.811 108.6 289.811 110.247C289.811 111.895 288.61 113.236 287.134 113.236C285.659 113.236 284.458 111.895 284.458 110.247C284.458 108.6 285.659 107.26 287.134 107.26Z"/>
</mask>
<path d="M283.33 110.247L288.33 110.249V110.247H283.33ZM287.134 119.496C292.499 119.496 295.939 114.818 295.939 110.247H285.939C285.939 110.206 285.955 110.076 286.099 109.915C286.25 109.746 286.607 109.496 287.134 109.496V119.496ZM295.939 110.247C295.939 105.674 292.495 101 287.134 101V111C286.608 111 286.251 110.751 286.1 110.582C285.955 110.421 285.939 110.29 285.939 110.247H295.939ZM287.134 101C281.77 101 278.33 105.677 278.33 110.247H288.33C288.33 110.289 288.314 110.42 288.17 110.581C288.018 110.751 287.661 111 287.134 111V101ZM278.33 110.246C278.328 114.819 281.77 119.496 287.134 119.496V109.496C287.661 109.496 288.018 109.746 288.17 109.915C288.315 110.077 288.33 110.207 288.33 110.249L278.33 110.246ZM287.134 112.26C286.297 112.26 285.658 111.87 285.302 111.473C284.954 111.084 284.811 110.638 284.811 110.247H294.811C294.811 106.369 291.873 102.26 287.134 102.26V112.26ZM284.811 110.247C284.811 109.858 284.953 109.412 285.302 109.024C285.657 108.627 286.296 108.236 287.134 108.236V118.236C291.876 118.236 294.811 114.124 294.811 110.247H284.811ZM287.134 108.236C287.973 108.236 288.612 108.627 288.968 109.024C289.317 109.413 289.458 109.859 289.458 110.247H279.458C279.458 114.122 282.391 118.236 287.134 118.236V108.236ZM289.458 110.247C289.458 110.637 289.316 111.082 288.967 111.472C288.611 111.87 287.972 112.26 287.134 112.26V102.26C282.393 102.26 279.458 106.371 279.458 110.247H289.458Z" fill="#333333" fill-opacity="0.6" mask="url(#path-24-inside-4)"/>
<mask id="path-26-inside-5" fill="white">
<path d="M215.787 125.841L212.346 129.433L210.896 127.793C210.645 127.509 210.209 127.481 209.924 127.73C209.637 127.98 209.609 128.412 209.86 128.696L211.597 130.659C211.779 130.866 212.041 130.988 212.315 130.993C212.322 130.994 212.328 130.994 212.335 130.994C212.602 130.994 212.86 130.883 213.047 130.688L216.786 126.784C217.048 126.511 217.037 126.077 216.762 125.817C216.486 125.557 216.049 125.568 215.787 125.841Z"/>
</mask>
<path d="M215.787 125.841L213.623 123.764L213.621 123.766L215.787 125.841ZM212.346 129.433L210.098 131.42L212.257 133.862L214.512 131.509L212.346 129.433ZM210.896 127.793L213.144 125.806L213.143 125.806L210.896 127.793ZM209.924 127.73L207.953 125.469L207.952 125.469L209.924 127.73ZM209.86 128.696L212.107 126.708L212.105 126.705L209.86 128.696ZM211.597 130.659L213.848 128.676L213.844 128.672L211.597 130.659ZM212.315 130.993L212.627 128.01L212.502 127.997L212.377 127.994L212.315 130.993ZM213.047 130.688L210.88 128.613L210.876 128.617L213.047 130.688ZM216.786 126.784L214.621 124.707L214.619 124.709L216.786 126.784ZM216.762 125.817L214.7 127.997L214.703 128L216.762 125.817ZM213.621 123.766L210.18 127.358L214.512 131.509L217.954 127.916L213.621 123.766ZM214.593 127.446L213.144 125.806L208.648 129.78L210.098 131.42L214.593 127.446ZM213.143 125.806C211.799 124.285 209.479 124.138 207.953 125.469L211.894 129.992C210.939 130.824 209.491 130.733 208.649 129.781L213.143 125.806ZM207.952 125.469C206.415 126.809 206.253 129.149 207.615 130.686L212.105 126.705C212.964 127.674 212.859 129.151 211.895 129.992L207.952 125.469ZM207.613 130.683L209.349 132.647L213.844 128.672L212.107 126.708L207.613 130.683ZM209.345 132.642C210.083 133.479 211.139 133.97 212.253 133.993L212.377 127.994C212.943 128.006 213.475 128.253 213.848 128.676L209.345 132.642ZM212.003 133.977C212.108 133.988 212.194 133.991 212.248 133.993C212.275 133.994 212.297 133.994 212.311 133.994C212.318 133.994 212.324 133.994 212.328 133.994C212.331 133.994 212.334 133.994 212.335 133.994V127.994C212.324 127.994 212.36 127.994 212.402 127.995C212.449 127.996 212.529 127.999 212.627 128.01L212.003 133.977ZM212.335 133.994C213.427 133.994 214.468 133.544 215.217 132.759L210.876 128.617C211.252 128.223 211.777 127.994 212.335 127.994V133.994ZM215.213 132.763L218.952 128.859L214.619 124.709L210.88 128.613L215.213 132.763ZM218.951 128.861C220.367 127.384 220.307 125.037 218.82 123.635L214.703 128C213.767 127.116 213.728 125.637 214.621 124.707L218.951 128.861ZM218.823 123.637C217.347 122.243 215.024 122.303 213.623 123.764L217.952 127.918C217.075 128.832 215.624 128.871 214.7 127.997L218.823 123.637Z" fill="#333333" fill-opacity="0.6" mask="url(#path-26-inside-5)"/>
<mask id="path-28-inside-6" fill="white">
<path d="M205.721 123.123H200.336C199.955 123.123 199.646 123.429 199.646 123.807C199.646 124.185 199.955 124.491 200.336 124.491H205.72C206.101 124.491 206.41 124.185 206.41 123.807C206.409 123.429 206.101 123.123 205.721 123.123Z"/>
</mask>
<path d="M206.41 123.807L209.41 123.807L209.41 123.804L206.41 123.807ZM205.721 120.123H200.336V126.123H205.721V120.123ZM200.336 120.123C198.32 120.123 196.646 121.751 196.646 123.807H202.646C202.646 125.107 201.59 126.123 200.336 126.123V120.123ZM196.646 123.807C196.646 125.863 198.32 127.491 200.336 127.491V121.491C201.59 121.491 202.646 122.507 202.646 123.807H196.646ZM200.336 127.491H205.72V121.491H200.336V127.491ZM205.72 127.491C207.738 127.491 209.41 125.862 209.41 123.807H203.41C203.41 122.508 204.465 121.491 205.72 121.491V127.491ZM209.41 123.804C209.408 121.754 207.741 120.123 205.721 120.123V126.123C204.461 126.123 203.411 125.104 203.41 123.809L209.41 123.804Z" fill="#333333" fill-opacity="0.6" mask="url(#path-28-inside-6)"/>
<mask id="path-30-inside-7" fill="white">
<path d="M200.336 114.123H209.246C209.626 114.123 209.935 113.817 209.935 113.439C209.935 113.061 209.626 112.754 209.246 112.754H200.336C199.955 112.754 199.646 113.061 199.646 113.439C199.646 113.817 199.955 114.123 200.336 114.123Z"/>
</mask>
<path d="M200.336 117.123H209.246V111.123H200.336V117.123ZM209.246 117.123C211.265 117.123 212.935 115.491 212.935 113.439H206.935C206.935 112.142 207.987 111.123 209.246 111.123V117.123ZM212.935 113.439C212.935 111.386 211.265 109.754 209.246 109.754V115.754C207.987 115.754 206.935 114.735 206.935 113.439H212.935ZM209.246 109.754H200.336V115.754H209.246V109.754ZM200.336 109.754C198.319 109.754 196.646 111.383 196.646 113.439H202.646C202.646 114.738 201.591 115.754 200.336 115.754V109.754ZM196.646 113.439C196.646 115.495 198.32 117.123 200.336 117.123V111.123C201.591 111.123 202.646 112.138 202.646 113.439H196.646Z" fill="#333333" fill-opacity="0.6" mask="url(#path-30-inside-7)"/>
<mask id="path-32-inside-8" fill="white">
<path d="M209.934 118.494C209.934 118.116 209.626 117.81 209.246 117.81H200.336C199.955 117.81 199.646 118.116 199.646 118.494C199.646 118.872 199.955 119.178 200.336 119.178H209.246C209.626 119.178 209.934 118.872 209.934 118.494Z"/>
</mask>
<path d="M212.934 118.494C212.934 116.443 211.266 114.81 209.246 114.81V120.81C207.986 120.81 206.934 119.79 206.934 118.494H212.934ZM209.246 114.81H200.336V120.81H209.246V114.81ZM200.336 114.81C198.318 114.81 196.646 116.44 196.646 118.494H202.646C202.646 119.793 201.592 120.81 200.336 120.81V114.81ZM196.646 118.494C196.646 120.549 198.319 122.178 200.336 122.178V116.178C201.591 116.178 202.646 117.195 202.646 118.494H196.646ZM200.336 122.178H209.246V116.178H200.336V122.178ZM209.246 122.178C211.266 122.178 212.934 120.546 212.934 118.494H206.934C206.934 117.198 207.986 116.178 209.246 116.178V122.178Z" fill="#333333" fill-opacity="0.6" mask="url(#path-32-inside-8)"/>
<mask id="path-34-inside-9" fill="white">
<path d="M197.349 110.912L195.664 112.672L195.184 111.957C194.973 111.643 194.545 111.558 194.229 111.767C193.912 111.977 193.827 112.401 194.038 112.716L194.724 113.738C194.913 114.018 195.206 114.195 195.53 114.222C195.56 114.225 195.589 114.226 195.619 114.226C195.912 114.226 196.196 114.103 196.408 113.882L198.348 111.855C198.61 111.581 198.599 111.148 198.323 110.888C198.048 110.628 197.612 110.639 197.349 110.912Z"/>
</mask>
<path d="M197.349 110.912L195.186 108.834L195.182 108.838L197.349 110.912ZM195.664 112.672L193.173 114.344L195.252 117.44L197.831 114.747L195.664 112.672ZM195.184 111.957L197.675 110.285L197.674 110.283L195.184 111.957ZM194.229 111.767L192.574 109.264L192.571 109.266L194.229 111.767ZM194.038 112.716L191.545 114.386L191.547 114.388L194.038 112.716ZM194.724 113.738L192.233 115.41L192.234 115.412L194.724 113.738ZM195.53 114.222L195.8 111.234L195.793 111.234L195.786 111.233L195.53 114.222ZM196.408 113.882L198.573 115.958L198.575 115.956L196.408 113.882ZM198.348 111.855L196.182 109.779L196.181 109.781L198.348 111.855ZM198.323 110.888L200.383 108.707L200.383 108.707L198.323 110.888ZM195.182 108.838L193.497 110.597L197.831 114.747L199.516 112.987L195.182 108.838ZM198.155 111L197.675 110.285L192.693 113.629L193.173 114.344L198.155 111ZM197.674 110.283C196.54 108.596 194.26 108.15 192.574 109.264L195.883 114.27C194.831 114.965 193.407 114.69 192.694 113.63L197.674 110.283ZM192.571 109.266C190.875 110.391 190.405 112.684 191.545 114.386L196.53 111.046C197.249 112.119 196.949 113.563 195.886 114.268L192.571 109.266ZM191.547 114.388L192.233 115.41L197.214 112.065L196.528 111.043L191.547 114.388ZM192.234 115.412C192.907 116.413 194.006 117.103 195.275 117.211L195.786 111.233C196.407 111.286 196.918 111.624 197.213 112.064L192.234 115.412ZM195.26 117.21C195.401 117.223 195.524 117.226 195.619 117.226V111.226C195.654 111.226 195.718 111.227 195.8 111.234L195.26 117.21ZM195.619 117.226C196.762 117.226 197.818 116.746 198.573 115.958L194.243 111.805C194.573 111.461 195.062 111.226 195.619 111.226V117.226ZM198.575 115.956L200.515 113.929L196.181 109.781L194.241 111.807L198.575 115.956ZM200.514 113.931C201.93 112.453 201.868 110.109 200.383 108.707L196.264 113.069C195.33 112.188 195.29 110.71 196.182 109.779L200.514 113.931ZM200.383 108.707C198.907 107.313 196.587 107.376 195.186 108.834L199.513 112.991C198.637 113.902 197.188 113.943 196.264 113.069L200.383 108.707Z" fill="#333333" fill-opacity="0.6" mask="url(#path-34-inside-9)"/>
<path d="M197.292 117.033L197.295 117.036L197.292 117.033Z" stroke="#333333" stroke-opacity="0.6" stroke-width="3"/>
<mask id="path-37-inside-10" fill="white">
<path d="M197.349 121.282L195.665 123.04L195.184 122.325C194.973 122.011 194.546 121.925 194.229 122.135C193.912 122.345 193.827 122.769 194.038 123.084L194.723 124.106C194.912 124.386 195.206 124.563 195.53 124.591C195.56 124.593 195.59 124.595 195.62 124.595C195.912 124.595 196.196 124.472 196.408 124.25L198.348 122.225C198.61 121.952 198.599 121.518 198.323 121.258C198.048 120.997 197.612 121.008 197.349 121.282Z"/>
</mask>
<path d="M197.349 121.282L195.183 119.206L195.183 119.207L197.349 121.282ZM195.665 123.04L193.174 124.713L195.253 127.807L197.831 125.116L195.665 123.04ZM195.184 122.325L192.693 123.996L192.694 123.998L195.184 122.325ZM194.229 122.135L192.573 119.634L192.573 119.634L194.229 122.135ZM194.038 123.084L191.545 124.753L191.547 124.756L194.038 123.084ZM194.723 124.106L192.233 125.778L192.234 125.78L194.723 124.106ZM195.53 124.591L195.8 121.603L195.789 121.602L195.53 124.591ZM196.408 124.25L194.242 122.175L194.241 122.175L196.408 124.25ZM198.348 122.225L196.182 120.149L196.181 120.15L198.348 122.225ZM198.323 121.258L196.258 123.434L196.266 123.442L198.323 121.258ZM195.183 119.207L193.498 120.965L197.831 125.116L199.516 123.357L195.183 119.207ZM198.155 121.368L197.675 120.652L192.694 123.998L193.174 124.713L198.155 121.368ZM197.676 120.654C196.541 118.963 194.259 118.517 192.573 119.634L195.884 124.637C194.832 125.333 193.405 125.058 192.693 123.996L197.676 120.654ZM192.573 119.634C190.873 120.759 190.406 123.053 191.545 124.753L196.53 121.415C197.247 122.486 196.951 123.931 195.884 124.637L192.573 119.634ZM191.547 124.756L192.233 125.778L197.214 122.433L196.528 121.412L191.547 124.756ZM192.234 125.78C192.908 126.782 194.006 127.47 195.271 127.58L195.789 121.602C196.406 121.655 196.916 121.991 197.213 122.432L192.234 125.78ZM195.26 127.579C195.382 127.59 195.502 127.595 195.62 127.595V121.595C195.678 121.595 195.737 121.597 195.8 121.603L195.26 127.579ZM195.62 127.595C196.762 127.595 197.819 127.114 198.575 126.325L194.241 122.175C194.572 121.83 195.062 121.595 195.62 121.595V127.595ZM198.575 126.325L200.514 124.3L196.181 120.15L194.242 122.175L198.575 126.325ZM200.514 124.301C201.927 122.826 201.871 120.479 200.38 119.075L196.266 123.442C195.327 122.557 195.292 121.078 196.182 120.149L200.514 124.301ZM200.389 119.082C198.914 117.683 196.587 117.742 195.183 119.206L199.515 123.357C198.637 124.274 197.182 124.311 196.258 123.434L200.389 119.082Z" fill="#333333" fill-opacity="0.6" mask="url(#path-37-inside-10)"/>
<mask id="path-39-inside-11" fill="white">
<path d="M213.856 121.786V108.288C213.856 106.475 212.371 105 210.545 105H199.815H199.235H193.311C191.485 105 190 106.475 190 108.288V128.221C190 130.033 191.485 131.508 193.311 131.508H207.458C208.584 133.585 210.794 135 213.332 135C217.009 135 220 132.03 220 128.38C220 124.905 217.288 122.053 213.856 121.786ZM206.911 130.14H193.312C192.245 130.14 191.378 129.279 191.378 128.221V108.288C191.378 107.229 192.245 106.368 193.312 106.368H199.235H199.815H210.545C211.611 106.368 212.478 107.229 212.478 108.288V121.82C209.204 122.239 206.664 125.018 206.664 128.38C206.664 128.991 206.755 129.579 206.911 130.14ZM213.332 133.632C210.415 133.632 208.042 131.276 208.042 128.38C208.042 125.484 210.414 123.128 213.332 123.128C216.249 123.128 218.622 125.484 218.622 128.38C218.622 131.276 216.249 133.632 213.332 133.632Z"/>
</mask>
<path d="M213.856 121.786H210.856V124.562L213.623 124.777L213.856 121.786ZM213.856 108.288L210.856 108.287V108.288H213.856ZM207.458 131.508L210.094 130.077L209.243 128.508H207.458V131.508ZM220 128.38L217 128.38V128.38H220ZM206.911 130.14V133.14H210.857L209.801 129.338L206.911 130.14ZM212.478 121.82L212.858 124.796L215.478 124.461V121.82H212.478ZM206.664 128.38L209.664 128.382V128.38H206.664ZM216.856 121.786V108.288H210.856V121.786H216.856ZM216.856 108.288C216.857 104.798 214.007 102 210.545 102V108C210.734 108 210.856 108.152 210.856 108.287L216.856 108.288ZM210.545 102H199.815V108H210.545V102ZM199.815 102H199.235V108H199.815V102ZM199.235 102H193.311V108H199.235V102ZM193.311 102C189.849 102 187 104.798 187 108.288H193C193 108.152 193.122 108 193.311 108V102ZM187 108.288V128.221H193V108.288H187ZM187 128.221C187 131.711 189.85 134.508 193.311 134.508V128.508C193.121 128.508 193 128.355 193 128.221H187ZM193.311 134.508H207.458V128.508H193.311V134.508ZM204.821 132.938C206.453 135.946 209.654 138 213.332 138V132C211.935 132 210.716 131.223 210.094 130.077L204.821 132.938ZM213.332 138C218.645 138 223 133.708 223 128.38H217C217 130.353 215.372 132 213.332 132V138ZM223 128.381C223 123.303 219.047 119.181 214.089 118.795L213.623 124.777C215.53 124.926 217 126.508 217 128.38L223 128.381ZM206.911 127.14H193.312V133.14H206.911V127.14ZM193.312 127.14C193.882 127.14 194.378 127.602 194.378 128.221H188.378C188.378 130.956 190.609 133.14 193.312 133.14V127.14ZM194.378 128.221V108.288H188.378V128.221H194.378ZM194.378 108.288C194.378 108.906 193.882 109.368 193.312 109.368V103.368C190.609 103.368 188.378 105.552 188.378 108.288H194.378ZM193.312 109.368H199.235V103.368H193.312V109.368ZM199.235 109.368H199.815V103.368H199.235V109.368ZM199.815 109.368H210.545V103.368H199.815V109.368ZM210.545 109.368C209.974 109.368 209.478 108.906 209.478 108.288H215.478C215.478 105.553 213.248 103.368 210.545 103.368V109.368ZM209.478 108.288V121.82H215.478V108.288H209.478ZM212.098 118.845C207.368 119.449 203.664 123.467 203.664 128.38H209.664C209.664 126.57 211.04 125.028 212.858 124.796L212.098 118.845ZM203.664 128.379C203.664 129.29 203.8 130.149 204.02 130.942L209.801 129.338C209.71 129.009 209.664 128.692 209.664 128.382L203.664 128.379ZM213.332 130.632C212.051 130.632 211.042 129.599 211.042 128.38H205.042C205.042 132.954 208.779 136.632 213.332 136.632V130.632ZM211.042 128.38C211.042 127.161 212.051 126.128 213.332 126.128V120.128C208.778 120.128 205.042 123.807 205.042 128.38H211.042ZM213.332 126.128C214.613 126.128 215.622 127.16 215.622 128.38H221.622C221.622 123.807 217.886 120.128 213.332 120.128V126.128ZM215.622 128.38C215.622 129.599 214.613 130.632 213.332 130.632V136.632C217.886 136.632 221.622 132.953 221.622 128.38H215.622Z" fill="#333333" fill-opacity="0.6" mask="url(#path-39-inside-11)"/>
<path d="M55.3304 113.812H31.6696C31.3013 113.812 31 113.549 31 113.227V111.469C31 110.175 32.1998 109.125 33.6786 109.125H36.3571V106.586C36.3571 106.264 36.6585 106 37.0268 106H39.2589C39.6272 106 39.9286 106.264 39.9286 106.586V109.125H47.0714V106.586C47.0714 106.264 47.3728 106 47.7411 106H49.9732C50.3415 106 50.6429 106.264 50.6429 106.586V109.125H53.3214C54.8002 109.125 56 110.175 56 111.469V113.227C56 113.549 55.6987 113.812 55.3304 113.812ZM31.6696 115.375H55.3304C55.6987 115.375 56 115.639 56 115.961V128.656C56 129.95 54.8002 131 53.3214 131H33.6786C32.1998 131 31 129.95 31 128.656V115.961C31 115.639 31.3013 115.375 31.6696 115.375ZM38.1429 125.336C38.1429 125.014 37.8415 124.75 37.4732 124.75H35.2411C34.8728 124.75 34.5714 125.014 34.5714 125.336V127.289C34.5714 127.611 34.8728 127.875 35.2411 127.875H37.4732C37.8415 127.875 38.1429 127.611 38.1429 127.289V125.336ZM38.1429 119.086C38.1429 118.764 37.8415 118.5 37.4732 118.5H35.2411C34.8728 118.5 34.5714 118.764 34.5714 119.086V121.039C34.5714 121.361 34.8728 121.625 35.2411 121.625H37.4732C37.8415 121.625 38.1429 121.361 38.1429 121.039V119.086ZM45.2857 125.336C45.2857 125.014 44.9844 124.75 44.6161 124.75H42.3839C42.0156 124.75 41.7143 125.014 41.7143 125.336V127.289C41.7143 127.611 42.0156 127.875 42.3839 127.875H44.6161C44.9844 127.875 45.2857 127.611 45.2857 127.289V125.336ZM45.2857 119.086C45.2857 118.764 44.9844 118.5 44.6161 118.5H42.3839C42.0156 118.5 41.7143 118.764 41.7143 119.086V121.039C41.7143 121.361 42.0156 121.625 42.3839 121.625H44.6161C44.9844 121.625 45.2857 121.361 45.2857 121.039V119.086ZM52.4286 125.336C52.4286 125.014 52.1272 124.75 51.7589 124.75H49.5268C49.1585 124.75 48.8571 125.014 48.8571 125.336V127.289C48.8571 127.611 49.1585 127.875 49.5268 127.875H51.7589C52.1272 127.875 52.4286 127.611 52.4286 127.289V125.336ZM52.4286 119.086C52.4286 118.764 52.1272 118.5 51.7589 118.5H49.5268C49.1585 118.5 48.8571 118.764 48.8571 119.086V121.039C48.8571 121.361 49.1585 121.625 49.5268 121.625H51.7589C52.1272 121.625 52.4286 121.361 52.4286 121.039V119.086Z" fill="#050921"/>
</g>
</g>
<defs>
<filter id="filter0_i" x="0" y="90" width="411" height="74" filterUnits="userSpaceOnUse" color-interpolation-filters="sRGB">
<feFlood flood-opacity="0" result="BackgroundImageFix"/>
<feBlend mode="normal" in="SourceGraphic" in2="BackgroundImageFix" result="shape"/>
<feColorMatrix in="SourceAlpha" type="matrix" values="0 0 0 0 0 0 0 0 0 0 0 0 0 0 0 0 0 0 127 0" result="hardAlpha"/>
<feOffset dy="4"/>
<feGaussianBlur stdDeviation="2"/>
<feComposite in2="hardAlpha" operator="arithmetic" k2="-1" k3="1"/>
<feColorMatrix type="matrix" values="0 0 0 0 0.0196078 0 0 0 0 0.0352941 0 0 0 0 0.129412 0 0 0 0.3 0"/>
<feBlend mode="normal" in2="shape" result="effect1_innerShadow"/>
</filter>
<clipPath id="clip0">
<rect width="411" height="160" fill="white"/>
</clipPath>
<clipPath id="clip1">
<rect width="40" height="40" fill="white" transform="translate(187 27)"/>
</clipPath>
<clipPath id="clip2">
<rect width="25" height="25" fill="white" transform="translate(349 105)"/>
</clipPath>
</defs>
</svg>
