<svg width="411" height="160" viewBox="0 0 411 160" fill="none" xmlns="http://www.w3.org/2000/svg">
<g clip-path="url(#clip0)">
<rect width="411" height="160" fill="white"/>
<rect x="48.5" y="-1.5" width="154" height="93" fill="#EAEAEA" stroke="#C4C4C4"/>
<path d="M48.6514 -1.6051L201.698 91.21" stroke="#C4C4C4"/>
<path d="M48.6514 91.2101L201.698 -1.60504" stroke="#C4C4C4"/>
<rect x="214.5" y="0.5" width="155" height="93" fill="#EAEAEA" stroke="#C4C4C4"/>
<path d="M214.656 0.394897L368.689 93.21" stroke="#C4C4C4"/>
<path d="M214.656 93.2101L368.689 0.394955" stroke="#C4C4C4"/>
<circle cx="206" cy="60" r="30" fill="#3FA2F7"/>
<line x1="205.5" y1="49" x2="205.5" y2="72" stroke="black" stroke-width="3"/>
<line x1="216" y1="59.5" x2="196" y2="59.5" stroke="black" stroke-width="3"/>
<rect y="90" width="411" height="70" fill="#C4C4C4"/>
<path d="M36.0312 141.664H33.3711V149H31.9004V141.664H29.2637V140.469H36.0312V141.664ZM43.8008 144.957C43.8008 145.793 43.6562 146.527 43.3672 147.16C43.0781 147.789 42.6641 148.273 42.125 148.613C41.5898 148.949 40.9727 149.117 40.2734 149.117C39.582 149.117 38.9648 148.949 38.4219 148.613C37.8828 148.273 37.4648 147.791 37.168 147.166C36.875 146.541 36.7266 145.82 36.7227 145.004V144.523C36.7227 143.691 36.8691 142.957 37.1621 142.32C37.459 141.684 37.875 141.197 38.4102 140.861C38.9492 140.521 39.5664 140.352 40.2617 140.352C40.957 140.352 41.5723 140.52 42.1074 140.855C42.6465 141.188 43.0625 141.668 43.3555 142.297C43.6484 142.922 43.7969 143.65 43.8008 144.482V144.957ZM42.3184 144.512C42.3184 143.566 42.1387 142.842 41.7793 142.338C41.4238 141.834 40.918 141.582 40.2617 141.582C39.6211 141.582 39.1191 141.834 38.7559 142.338C38.3965 142.838 38.2129 143.547 38.2051 144.465V144.957C38.2051 145.895 38.3867 146.619 38.75 147.131C39.1172 147.643 39.625 147.898 40.2734 147.898C40.9297 147.898 41.4336 147.648 41.7852 147.148C42.1406 146.648 42.3184 145.918 42.3184 144.957V144.512ZM45.2773 149V140.469H47.7969C48.5508 140.469 49.2188 140.637 49.8008 140.973C50.3867 141.309 50.8398 141.785 51.1602 142.402C51.4805 143.02 51.6406 143.727 51.6406 144.523V144.951C51.6406 145.76 51.4785 146.471 51.1543 147.084C50.834 147.697 50.375 148.17 49.7773 148.502C49.1836 148.834 48.502 149 47.7324 149H45.2773ZM46.7598 141.664V147.816H47.7266C48.5039 147.816 49.0996 147.574 49.5137 147.09C49.9316 146.602 50.1445 145.902 50.1523 144.992V144.518C50.1523 143.592 49.9512 142.885 49.5488 142.396C49.1465 141.908 48.5625 141.664 47.7969 141.664H46.7598ZM57.7637 147.014H54.459L53.7676 149H52.2266L55.4492 140.469H56.7793L60.0078 149H58.4609L57.7637 147.014ZM54.875 145.818H57.3477L56.1113 142.279L54.875 145.818ZM62.8848 144.512L64.8477 140.469H66.4883L63.6289 145.859V149H62.1406V145.859L59.2754 140.469H60.9219L62.8848 144.512Z" fill="black"/>
<path d="M99.6406 149H98.1641V145.209H94.3496V149H92.8672V140.469H94.3496V144.02H98.1641V140.469H99.6406V149ZM106.385 145.191H102.881V147.816H106.977V149H101.398V140.469H106.936V141.664H102.881V144.02H106.385V145.191ZM112.959 147.014H109.654L108.963 149H107.422L110.645 140.469H111.975L115.203 149H113.656L112.959 147.014ZM110.07 145.818H112.543L111.307 142.279L110.07 145.818ZM117.658 147.816H121.531V149H116.176V140.469H117.658V147.816ZM127.625 141.664H124.965V149H123.494V141.664H120.857V140.469H127.625V141.664ZM135.523 149H134.047V145.209H130.232V149H128.75V140.469H130.232V144.02H134.047V140.469H135.523V149ZM140.27 149V140.469H142.789C143.543 140.469 144.211 140.637 144.793 140.973C145.379 141.309 145.832 141.785 146.152 142.402C146.473 143.02 146.633 143.727 146.633 144.523V144.951C146.633 145.76 146.471 146.471 146.146 147.084C145.826 147.697 145.367 148.17 144.77 148.502C144.176 148.834 143.494 149 142.725 149H140.27ZM141.752 141.664V147.816H142.719C143.496 147.816 144.092 147.574 144.506 147.09C144.924 146.602 145.137 145.902 145.145 144.992V144.518C145.145 143.592 144.943 142.885 144.541 142.396C144.139 141.908 143.555 141.664 142.789 141.664H141.752ZM152.756 147.014H149.451L148.76 149H147.219L150.441 140.469H151.771L155 149H153.453L152.756 147.014ZM149.867 145.818H152.34L151.104 142.279L149.867 145.818ZM161.434 141.664H158.773V149H157.303V141.664H154.666V140.469H161.434V141.664ZM166.631 147.014H163.326L162.635 149H161.094L164.316 140.469H165.646L168.875 149H167.328L166.631 147.014ZM163.742 145.818H166.215L164.979 142.279L163.742 145.818Z" fill="black"/>
<path d="M195.406 147.893C195.098 148.295 194.67 148.6 194.123 148.807C193.576 149.014 192.955 149.117 192.26 149.117C191.545 149.117 190.912 148.955 190.361 148.631C189.811 148.307 189.385 147.844 189.084 147.242C188.787 146.637 188.633 145.932 188.621 145.127V144.459C188.621 143.17 188.93 142.164 189.547 141.441C190.164 140.715 191.025 140.352 192.131 140.352C193.08 140.352 193.834 140.586 194.393 141.055C194.951 141.523 195.287 142.199 195.4 143.082H193.947C193.783 142.055 193.188 141.541 192.16 141.541C191.496 141.541 190.99 141.781 190.643 142.262C190.299 142.738 190.121 143.439 190.109 144.365V145.021C190.109 145.943 190.303 146.66 190.689 147.172C191.08 147.68 191.621 147.934 192.312 147.934C193.07 147.934 193.609 147.762 193.93 147.418V145.748H192.172V144.623H195.406V147.893ZM203.844 144.957C203.844 145.793 203.699 146.527 203.41 147.16C203.121 147.789 202.707 148.273 202.168 148.613C201.633 148.949 201.016 149.117 200.316 149.117C199.625 149.117 199.008 148.949 198.465 148.613C197.926 148.273 197.508 147.791 197.211 147.166C196.918 146.541 196.77 145.82 196.766 145.004V144.523C196.766 143.691 196.912 142.957 197.205 142.32C197.502 141.684 197.918 141.197 198.453 140.861C198.992 140.521 199.609 140.352 200.305 140.352C201 140.352 201.615 140.52 202.15 140.855C202.689 141.188 203.105 141.668 203.398 142.297C203.691 142.922 203.84 143.65 203.844 144.482V144.957ZM202.361 144.512C202.361 143.566 202.182 142.842 201.822 142.338C201.467 141.834 200.961 141.582 200.305 141.582C199.664 141.582 199.162 141.834 198.799 142.338C198.439 142.838 198.256 143.547 198.248 144.465V144.957C198.248 145.895 198.43 146.619 198.793 147.131C199.16 147.643 199.668 147.898 200.316 147.898C200.973 147.898 201.477 147.648 201.828 147.148C202.184 146.648 202.361 145.918 202.361 144.957V144.512ZM209.967 147.014H206.662L205.971 149H204.43L207.652 140.469H208.982L212.211 149H210.664L209.967 147.014ZM207.078 145.818H209.551L208.314 142.279L207.078 145.818ZM214.666 147.816H218.539V149H213.184V140.469H214.666V147.816ZM224.135 146.803C224.135 146.428 224.002 146.139 223.736 145.936C223.475 145.732 223 145.527 222.312 145.32C221.625 145.113 221.078 144.883 220.672 144.629C219.895 144.141 219.506 143.504 219.506 142.719C219.506 142.031 219.785 141.465 220.344 141.02C220.906 140.574 221.635 140.352 222.529 140.352C223.123 140.352 223.652 140.461 224.117 140.68C224.582 140.898 224.947 141.211 225.213 141.617C225.479 142.02 225.611 142.467 225.611 142.959H224.135C224.135 142.514 223.994 142.166 223.713 141.916C223.436 141.662 223.037 141.535 222.518 141.535C222.033 141.535 221.656 141.639 221.387 141.846C221.121 142.053 220.988 142.342 220.988 142.713C220.988 143.025 221.133 143.287 221.422 143.498C221.711 143.705 222.188 143.908 222.852 144.107C223.516 144.303 224.049 144.527 224.451 144.781C224.854 145.031 225.148 145.32 225.336 145.648C225.523 145.973 225.617 146.354 225.617 146.791C225.617 147.502 225.344 148.068 224.797 148.49C224.254 148.908 223.516 149.117 222.582 149.117C221.965 149.117 221.396 149.004 220.877 148.777C220.361 148.547 219.959 148.23 219.67 147.828C219.385 147.426 219.242 146.957 219.242 146.422H220.725C220.725 146.906 220.885 147.281 221.205 147.547C221.525 147.812 221.984 147.945 222.582 147.945C223.098 147.945 223.484 147.842 223.742 147.635C224.004 147.424 224.135 147.146 224.135 146.803Z" fill="black"/>
<path d="M249.377 146.223C249.291 147.133 248.955 147.844 248.369 148.355C247.783 148.863 247.004 149.117 246.031 149.117C245.352 149.117 244.752 148.957 244.232 148.637C243.717 148.312 243.318 147.854 243.037 147.26C242.756 146.666 242.609 145.977 242.598 145.191V144.395C242.598 143.59 242.74 142.881 243.025 142.268C243.311 141.654 243.719 141.182 244.25 140.85C244.785 140.518 245.402 140.352 246.102 140.352C247.043 140.352 247.801 140.607 248.375 141.119C248.949 141.631 249.283 142.354 249.377 143.287H247.9C247.83 142.674 247.65 142.232 247.361 141.963C247.076 141.689 246.656 141.553 246.102 141.553C245.457 141.553 244.961 141.789 244.613 142.262C244.27 142.73 244.094 143.42 244.086 144.33V145.086C244.086 146.008 244.25 146.711 244.578 147.195C244.91 147.68 245.395 147.922 246.031 147.922C246.613 147.922 247.051 147.791 247.344 147.529C247.637 147.268 247.822 146.832 247.9 146.223H249.377ZM257.516 144.957C257.516 145.793 257.371 146.527 257.082 147.16C256.793 147.789 256.379 148.273 255.84 148.613C255.305 148.949 254.688 149.117 253.988 149.117C253.297 149.117 252.68 148.949 252.137 148.613C251.598 148.273 251.18 147.791 250.883 147.166C250.59 146.541 250.441 145.82 250.438 145.004V144.523C250.438 143.691 250.584 142.957 250.877 142.32C251.174 141.684 251.59 141.197 252.125 140.861C252.664 140.521 253.281 140.352 253.977 140.352C254.672 140.352 255.287 140.52 255.822 140.855C256.361 141.188 256.777 141.668 257.07 142.297C257.363 142.922 257.512 143.65 257.516 144.482V144.957ZM256.033 144.512C256.033 143.566 255.854 142.842 255.494 142.338C255.139 141.834 254.633 141.582 253.977 141.582C253.336 141.582 252.834 141.834 252.471 142.338C252.111 142.838 251.928 143.547 251.92 144.465V144.957C251.92 145.895 252.102 146.619 252.465 147.131C252.832 147.643 253.34 147.898 253.988 147.898C254.645 147.898 255.148 147.648 255.5 147.148C255.855 146.648 256.033 145.918 256.033 144.957V144.512ZM260.914 140.469L263.375 147.008L265.83 140.469H267.746V149H266.27V146.188L266.416 142.426L263.896 149H262.836L260.322 142.432L260.469 146.188V149H258.992V140.469H260.914ZM271.426 140.469L273.887 147.008L276.342 140.469H278.258V149H276.781V146.188L276.928 142.426L274.408 149H273.348L270.834 142.432L270.98 146.188V149H269.504V140.469H271.426ZM286.256 140.469V146.17C286.256 147.076 285.965 147.795 285.383 148.326C284.805 148.854 284.033 149.117 283.068 149.117C282.092 149.117 281.316 148.857 280.742 148.338C280.168 147.814 279.881 147.09 279.881 146.164V140.469H281.357V146.176C281.357 146.746 281.502 147.182 281.791 147.482C282.08 147.783 282.506 147.934 283.068 147.934C284.209 147.934 284.779 147.332 284.779 146.129V140.469H286.256ZM294.611 149H293.129L289.326 142.947V149H287.844V140.469H289.326L293.141 146.545V140.469H294.611V149ZM297.928 149H296.451V140.469H297.928V149ZM305.738 141.664H303.078V149H301.607V141.664H298.971V140.469H305.738V141.664ZM309.74 144.512L311.703 140.469H313.344L310.484 145.859V149H308.996V145.859L306.131 140.469H307.777L309.74 144.512Z" fill="black"/>
<path d="M332.867 149V140.469H335.387C336.141 140.469 336.809 140.637 337.391 140.973C337.977 141.309 338.43 141.785 338.75 142.402C339.07 143.02 339.23 143.727 339.23 144.523V144.951C339.23 145.76 339.068 146.471 338.744 147.084C338.424 147.697 337.965 148.17 337.367 148.502C336.773 148.834 336.092 149 335.322 149H332.867ZM334.35 141.664V147.816H335.316C336.094 147.816 336.689 147.574 337.104 147.09C337.521 146.602 337.734 145.902 337.742 144.992V144.518C337.742 143.592 337.541 142.885 337.139 142.396C336.736 141.908 336.152 141.664 335.387 141.664H334.35ZM342.271 149H340.795V140.469H342.271V149ZM348.553 146.803C348.553 146.428 348.42 146.139 348.154 145.936C347.893 145.732 347.418 145.527 346.73 145.32C346.043 145.113 345.496 144.883 345.09 144.629C344.312 144.141 343.924 143.504 343.924 142.719C343.924 142.031 344.203 141.465 344.762 141.02C345.324 140.574 346.053 140.352 346.947 140.352C347.541 140.352 348.07 140.461 348.535 140.68C349 140.898 349.365 141.211 349.631 141.617C349.896 142.02 350.029 142.467 350.029 142.959H348.553C348.553 142.514 348.412 142.166 348.131 141.916C347.854 141.662 347.455 141.535 346.936 141.535C346.451 141.535 346.074 141.639 345.805 141.846C345.539 142.053 345.406 142.342 345.406 142.713C345.406 143.025 345.551 143.287 345.84 143.498C346.129 143.705 346.605 143.908 347.27 144.107C347.934 144.303 348.467 144.527 348.869 144.781C349.271 145.031 349.566 145.32 349.754 145.648C349.941 145.973 350.035 146.354 350.035 146.791C350.035 147.502 349.762 148.068 349.215 148.49C348.672 148.908 347.934 149.117 347 149.117C346.383 149.117 345.814 149.004 345.295 148.777C344.779 148.547 344.377 148.23 344.088 147.828C343.803 147.426 343.66 146.957 343.66 146.422H345.143C345.143 146.906 345.303 147.281 345.623 147.547C345.943 147.812 346.402 147.945 347 147.945C347.516 147.945 347.902 147.842 348.16 147.635C348.422 147.424 348.553 147.146 348.553 146.803ZM357.846 146.223C357.76 147.133 357.424 147.844 356.838 148.355C356.252 148.863 355.473 149.117 354.5 149.117C353.82 149.117 353.221 148.957 352.701 148.637C352.186 148.312 351.787 147.854 351.506 147.26C351.225 146.666 351.078 145.977 351.066 145.191V144.395C351.066 143.59 351.209 142.881 351.494 142.268C351.779 141.654 352.188 141.182 352.719 140.85C353.254 140.518 353.871 140.352 354.57 140.352C355.512 140.352 356.27 140.607 356.844 141.119C357.418 141.631 357.752 142.354 357.846 143.287H356.369C356.299 142.674 356.119 142.232 355.83 141.963C355.545 141.689 355.125 141.553 354.57 141.553C353.926 141.553 353.43 141.789 353.082 142.262C352.738 142.73 352.562 143.42 352.555 144.33V145.086C352.555 146.008 352.719 146.711 353.047 147.195C353.379 147.68 353.863 147.922 354.5 147.922C355.082 147.922 355.52 147.791 355.812 147.529C356.105 147.268 356.291 146.832 356.369 146.223H357.846ZM365.984 144.957C365.984 145.793 365.84 146.527 365.551 147.16C365.262 147.789 364.848 148.273 364.309 148.613C363.773 148.949 363.156 149.117 362.457 149.117C361.766 149.117 361.148 148.949 360.605 148.613C360.066 148.273 359.648 147.791 359.352 147.166C359.059 146.541 358.91 145.82 358.906 145.004V144.523C358.906 143.691 359.053 142.957 359.346 142.32C359.643 141.684 360.059 141.197 360.594 140.861C361.133 140.521 361.75 140.352 362.445 140.352C363.141 140.352 363.756 140.52 364.291 140.855C364.83 141.188 365.246 141.668 365.539 142.297C365.832 142.922 365.98 143.65 365.984 144.482V144.957ZM364.502 144.512C364.502 143.566 364.322 142.842 363.963 142.338C363.607 141.834 363.102 141.582 362.445 141.582C361.805 141.582 361.303 141.834 360.939 142.338C360.58 142.838 360.396 143.547 360.389 144.465V144.957C360.389 145.895 360.57 146.619 360.934 147.131C361.301 147.643 361.809 147.898 362.457 147.898C363.113 147.898 363.617 147.648 363.969 147.148C364.324 146.648 364.502 145.918 364.502 144.957V144.512ZM370.338 147.143L372.506 140.469H374.135L371.064 149H369.629L366.57 140.469H368.193L370.338 147.143ZM380.088 145.191H376.584V147.816H380.68V149H375.102V140.469H380.639V141.664H376.584V144.02H380.088V145.191ZM385.021 145.713H383.369V149H381.887V140.469H384.887C385.871 140.469 386.631 140.689 387.166 141.131C387.701 141.572 387.969 142.211 387.969 143.047C387.969 143.617 387.83 144.096 387.553 144.482C387.279 144.865 386.896 145.16 386.404 145.367L388.32 148.924V149H386.732L385.021 145.713ZM383.369 144.523H384.893C385.393 144.523 385.783 144.398 386.064 144.148C386.346 143.895 386.486 143.549 386.486 143.111C386.486 142.654 386.355 142.301 386.094 142.051C385.836 141.801 385.449 141.672 384.934 141.664H383.369V144.523Z" fill="black"/>
<path d="M143 106.571V109.429C143 111.946 136.281 114 128 114C119.719 114 113 111.946 113 109.429V106.571C113 104.054 119.719 102 128 102C136.281 102 143 104.054 143 106.571ZM143 113V119.429C143 121.946 136.281 124 128 124C119.719 124 113 121.946 113 119.429V113C116.223 115.071 122.121 116.036 128 116.036C133.879 116.036 139.777 115.071 143 113ZM143 123V129.429C143 131.946 136.281 134 128 134C119.719 134 113 131.946 113 129.429V123C116.223 125.071 122.121 126.036 128 126.036C133.879 126.036 139.777 125.071 143 123Z" fill="black"/>
<path d="M63.1429 111.375H32.8571C32.3857 111.375 32 111.059 32 110.672V108.562C32 107.01 33.5357 105.75 35.4286 105.75H38.8571V102.703C38.8571 102.316 39.2429 102 39.7143 102H42.5714C43.0429 102 43.4286 102.316 43.4286 102.703V105.75H52.5714V102.703C52.5714 102.316 52.9571 102 53.4286 102H56.2857C56.7571 102 57.1429 102.316 57.1429 102.703V105.75H60.5714C62.4643 105.75 64 107.01 64 108.562V110.672C64 111.059 63.6143 111.375 63.1429 111.375ZM32.8571 113.25H63.1429C63.6143 113.25 64 113.566 64 113.953V129.188C64 130.74 62.4643 132 60.5714 132H35.4286C33.5357 132 32 130.74 32 129.188V113.953C32 113.566 32.3857 113.25 32.8571 113.25ZM41.1429 125.203C41.1429 124.816 40.7571 124.5 40.2857 124.5H37.4286C36.9571 124.5 36.5714 124.816 36.5714 125.203V127.547C36.5714 127.934 36.9571 128.25 37.4286 128.25H40.2857C40.7571 128.25 41.1429 127.934 41.1429 127.547V125.203ZM41.1429 117.703C41.1429 117.316 40.7571 117 40.2857 117H37.4286C36.9571 117 36.5714 117.316 36.5714 117.703V120.047C36.5714 120.434 36.9571 120.75 37.4286 120.75H40.2857C40.7571 120.75 41.1429 120.434 41.1429 120.047V117.703ZM50.2857 125.203C50.2857 124.816 49.9 124.5 49.4286 124.5H46.5714C46.1 124.5 45.7143 124.816 45.7143 125.203V127.547C45.7143 127.934 46.1 128.25 46.5714 128.25H49.4286C49.9 128.25 50.2857 127.934 50.2857 127.547V125.203ZM50.2857 117.703C50.2857 117.316 49.9 117 49.4286 117H46.5714C46.1 117 45.7143 117.316 45.7143 117.703V120.047C45.7143 120.434 46.1 120.75 46.5714 120.75H49.4286C49.9 120.75 50.2857 120.434 50.2857 120.047V117.703ZM59.4286 125.203C59.4286 124.816 59.0429 124.5 58.5714 124.5H55.7143C55.2429 124.5 54.8571 124.816 54.8571 125.203V127.547C54.8571 127.934 55.2429 128.25 55.7143 128.25H58.5714C59.0429 128.25 59.4286 127.934 59.4286 127.547V125.203ZM59.4286 117.703C59.4286 117.316 59.0429 117 58.5714 117H55.7143C55.2429 117 54.8571 117.316 54.8571 117.703V120.047C54.8571 120.434 55.2429 120.75 55.7143 120.75H58.5714C59.0429 120.75 59.4286 120.434 59.4286 120.047V117.703Z" fill="black"/>
<path d="M218.188 105.125H193.812C192.259 105.125 191 106.552 191 108.312V131.688C191 133.448 192.259 134.875 193.812 134.875H218.188C219.741 134.875 221 133.448 221 131.688V108.312C221 106.552 219.741 105.125 218.188 105.125ZM217.836 131.688H194.164C194.071 131.688 193.981 131.646 193.915 131.571C193.85 131.496 193.812 131.395 193.812 131.289V108.711C193.812 108.605 193.85 108.504 193.915 108.429C193.981 108.354 194.071 108.312 194.164 108.312H217.836C217.929 108.312 218.019 108.354 218.085 108.429C218.15 108.504 218.188 108.605 218.188 108.711V131.289C218.188 131.395 218.15 131.496 218.085 131.571C218.019 131.646 217.929 131.688 217.836 131.688ZM215.375 125.578V127.172C215.375 127.612 215.06 127.969 214.672 127.969H202.953C202.565 127.969 202.25 127.612 202.25 127.172V125.578C202.25 125.138 202.565 124.781 202.953 124.781H214.672C215.06 124.781 215.375 125.138 215.375 125.578ZM215.375 119.203V120.797C215.375 121.237 215.06 121.594 214.672 121.594H202.953C202.565 121.594 202.25 121.237 202.25 120.797V119.203C202.25 118.763 202.565 118.406 202.953 118.406H214.672C215.06 118.406 215.375 118.763 215.375 119.203ZM215.375 112.828V114.422C215.375 114.862 215.06 115.219 214.672 115.219H202.953C202.565 115.219 202.25 114.862 202.25 114.422V112.828C202.25 112.388 202.565 112.031 202.953 112.031H214.672C215.06 112.031 215.375 112.388 215.375 112.828ZM200.609 113.625C200.609 114.945 199.665 116.016 198.5 116.016C197.335 116.016 196.391 114.945 196.391 113.625C196.391 112.305 197.335 111.234 198.5 111.234C199.665 111.234 200.609 112.305 200.609 113.625ZM200.609 120C200.609 121.32 199.665 122.391 198.5 122.391C197.335 122.391 196.391 121.32 196.391 120C196.391 118.68 197.335 117.609 198.5 117.609C199.665 117.609 200.609 118.68 200.609 120ZM200.609 126.375C200.609 127.695 199.665 128.766 198.5 128.766C197.335 128.766 196.391 127.695 196.391 126.375C196.391 125.055 197.335 123.984 198.5 123.984C199.665 123.984 200.609 125.055 200.609 126.375Z" fill="black"/>
<path d="M288.604 117.287C290.625 117.287 292.27 115.255 292.27 112.757C292.27 110.259 290.625 108.227 288.604 108.227C286.582 108.227 284.938 110.259 284.938 112.757C284.938 115.255 286.582 117.287 288.604 117.287Z" fill="black"/>
<path d="M259.075 118.819C257.276 118.819 256.102 120.128 256.009 122.235C256.008 122.258 256.005 122.28 256 122.302V131.604H267.509V122.217C267.509 122.179 267.515 122.144 267.525 122.11C267.588 121 267.92 120.066 268.493 119.38C268.004 119.013 267.396 118.821 266.717 118.821L259.075 118.819Z" fill="black"/>
<path d="M262.895 117.287C264.917 117.287 266.562 115.255 266.562 112.757C266.562 110.259 264.917 108.227 262.895 108.227C260.874 108.227 259.23 110.259 259.23 112.757C259.229 115.255 260.874 117.287 262.895 117.287Z" fill="black"/>
<path d="M279.571 119.438H271.929C270.131 119.438 268.957 120.746 268.863 122.852C268.862 122.875 268.859 122.896 268.854 122.917L268.854 132.222H282.645H282.646V122.92C282.64 122.899 282.637 122.876 282.636 122.853C282.543 120.746 281.369 119.438 279.571 119.438Z" fill="black"/>
<path d="M275.75 118.08C278.446 118.08 280.638 115.369 280.638 112.04C280.638 108.71 278.446 106 275.75 106C273.055 106 270.862 108.711 270.862 112.04C270.862 115.37 273.054 118.08 275.75 118.08Z" fill="black"/>
<path d="M295.491 122.234C295.397 120.129 294.223 118.819 292.424 118.819L284.784 118.821C284.104 118.821 283.497 119.013 283.006 119.38C283.579 120.067 283.913 121.005 283.976 122.119C283.986 122.15 283.99 122.183 283.99 122.217V131.605H295.5V122.3C295.495 122.279 295.492 122.257 295.491 122.234Z" fill="black"/>
<path d="M375.516 118.5C375.516 127.328 368.793 134.484 360.5 134.484C352.207 134.484 345.484 127.328 345.484 118.5C345.484 109.672 352.207 102.516 360.5 102.516C368.793 102.516 375.516 109.672 375.516 118.5ZM363.615 109.789L357.4 116.091C357.198 116.296 357.056 116.558 356.99 116.847L354.97 125.727C354.627 127.239 356.35 128.261 357.385 127.211L363.6 120.909C363.802 120.704 363.944 120.442 364.01 120.153L366.029 111.273C366.37 109.778 364.662 108.727 363.615 109.789ZM360.5 116.438C359.43 116.438 358.562 117.361 358.562 118.5C358.562 119.639 359.43 120.562 360.5 120.562C361.57 120.562 362.438 119.639 362.438 118.5C362.438 117.361 361.57 116.438 360.5 116.438Z" fill="black"/>
</g>
<defs>
<clipPath id="clip0">
<rect width="411" height="160" fill="white"/>
</clipPath>
</defs>
</svg>
