<svg width="1201" height="161" viewBox="0 0 1201 161" fill="none" xmlns="http://www.w3.org/2000/svg">
<path d="M122.5 48C122.5 57.7753 116.03 66.8659 105.057 73.5912C94.1091 80.301 78.89 84.5 62 84.5C45.11 84.5 29.8909 80.301 18.9432 73.5912C7.97047 66.8659 1.5 57.7753 1.5 48C1.5 38.2247 7.97047 29.1341 18.9432 22.4088C29.8909 15.699 45.11 11.5 62 11.5C78.89 11.5 94.1091 15.699 105.057 22.4088C116.03 29.1341 122.5 38.2247 122.5 48Z" fill="#F9F9F9" stroke="#98B6CC" stroke-width="3"/>
<path d="M33.4531 48.9072C33.4531 50.5524 32.9837 51.8125 32.0449 52.6875C31.1107 53.5625 29.7594 54 27.9912 54H25.1611V44.0059H28.2988C29.9303 44.0059 31.1973 44.4365 32.0996 45.2979C33.002 46.1592 33.4531 47.3623 33.4531 48.9072ZM31.252 48.9619C31.252 46.8154 30.304 45.7422 28.4082 45.7422H27.2803V52.25H28.1895C30.2311 52.25 31.252 51.154 31.252 48.9619ZM40.2139 54L39.8105 52.9609H39.7559C39.4049 53.403 39.0426 53.7106 38.6689 53.8838C38.2998 54.0524 37.8167 54.1367 37.2197 54.1367C36.486 54.1367 35.9072 53.9271 35.4834 53.5078C35.0641 53.0885 34.8545 52.4915 34.8545 51.7168C34.8545 50.9056 35.137 50.3086 35.7021 49.9258C36.2718 49.5384 37.1286 49.3242 38.2725 49.2832L39.5986 49.2422V48.9072C39.5986 48.1325 39.2021 47.7451 38.4092 47.7451C37.7985 47.7451 37.0807 47.9297 36.2559 48.2988L35.5654 46.8906C36.445 46.4303 37.4202 46.2002 38.4912 46.2002C39.5166 46.2002 40.3027 46.4235 40.8496 46.8701C41.3965 47.3167 41.6699 47.9958 41.6699 48.9072V54H40.2139ZM39.5986 50.459L38.792 50.4863C38.1859 50.5046 37.7347 50.6139 37.4385 50.8145C37.1423 51.015 36.9941 51.3203 36.9941 51.7305C36.9941 52.3184 37.3314 52.6123 38.0059 52.6123C38.4889 52.6123 38.874 52.4733 39.1611 52.1953C39.4528 51.9173 39.5986 51.5482 39.5986 51.0879V50.459ZM49.1553 51.7305C49.1553 52.5143 48.8818 53.1113 48.335 53.5215C47.7926 53.9316 46.9792 54.1367 45.8945 54.1367C45.3385 54.1367 44.8646 54.098 44.4727 54.0205C44.0807 53.9476 43.7139 53.8382 43.3721 53.6924V51.9697C43.7594 52.152 44.1947 52.3047 44.6777 52.4277C45.1654 52.5508 45.5938 52.6123 45.9629 52.6123C46.7194 52.6123 47.0977 52.3936 47.0977 51.9561C47.0977 51.792 47.0475 51.6598 46.9473 51.5596C46.847 51.4548 46.6738 51.3385 46.4277 51.2109C46.1816 51.0788 45.8535 50.9261 45.4434 50.7529C44.8555 50.5068 44.4225 50.279 44.1445 50.0693C43.8711 49.8597 43.6706 49.6204 43.543 49.3516C43.4199 49.0781 43.3584 48.7432 43.3584 48.3467C43.3584 47.6676 43.6204 47.1436 44.1445 46.7744C44.6732 46.4007 45.4206 46.2139 46.3867 46.2139C47.3073 46.2139 48.2028 46.4144 49.0732 46.8154L48.4443 48.3193C48.0615 48.1553 47.7038 48.0208 47.3711 47.916C47.0384 47.8112 46.6989 47.7588 46.3525 47.7588C45.7373 47.7588 45.4297 47.9251 45.4297 48.2578C45.4297 48.4447 45.5277 48.6064 45.7236 48.7432C45.9242 48.8799 46.3594 49.0827 47.0293 49.3516C47.6263 49.5931 48.0638 49.8187 48.3418 50.0283C48.6198 50.238 48.8249 50.4795 48.957 50.7529C49.0892 51.0264 49.1553 51.3522 49.1553 51.7305ZM57.8369 54H55.752V49.5361C55.752 48.4333 55.3418 47.8818 54.5215 47.8818C53.9382 47.8818 53.5166 48.0801 53.2568 48.4766C52.9971 48.873 52.8672 49.5156 52.8672 50.4043V54H50.7822V43.3633H52.8672V45.5303C52.8672 45.6989 52.8512 46.0954 52.8193 46.7197L52.7715 47.335H52.8809C53.3457 46.5876 54.084 46.2139 55.0957 46.2139C55.9935 46.2139 56.6748 46.4554 57.1396 46.9385C57.6045 47.4215 57.8369 48.1143 57.8369 49.0166V54ZM64.2354 46.2139C65.1377 46.2139 65.8441 46.5671 66.3545 47.2734C66.8649 47.9753 67.1201 48.9391 67.1201 50.165C67.1201 51.4274 66.8558 52.4049 66.3271 53.0977C65.8031 53.7904 65.0876 54.1367 64.1807 54.1367C63.2829 54.1367 62.5788 53.8109 62.0684 53.1592H61.9248L61.5762 54H59.9834V43.3633H62.0684V45.8379C62.0684 46.1523 62.041 46.6559 61.9863 47.3486H62.0684C62.556 46.5921 63.2783 46.2139 64.2354 46.2139ZM63.5654 47.8818C63.0505 47.8818 62.6745 48.0413 62.4375 48.3604C62.2005 48.6748 62.0775 49.1966 62.0684 49.9258V50.1514C62.0684 50.9717 62.1891 51.5596 62.4307 51.915C62.6768 52.2705 63.0641 52.4482 63.5928 52.4482C64.0212 52.4482 64.3607 52.2523 64.6113 51.8604C64.8665 51.4639 64.9941 50.8896 64.9941 50.1377C64.9941 49.3857 64.8665 48.8229 64.6113 48.4492C64.3561 48.071 64.0075 47.8818 63.5654 47.8818ZM70.5039 50.165C70.5039 50.9215 70.627 51.4935 70.873 51.8809C71.1237 52.2682 71.5293 52.4619 72.0898 52.4619C72.6458 52.4619 73.0446 52.2705 73.2861 51.8877C73.5322 51.5003 73.6553 50.9261 73.6553 50.165C73.6553 49.4085 73.5322 48.8411 73.2861 48.4629C73.04 48.0846 72.6367 47.8955 72.0762 47.8955C71.5202 47.8955 71.1191 48.0846 70.873 48.4629C70.627 48.8366 70.5039 49.404 70.5039 50.165ZM75.7881 50.165C75.7881 51.4092 75.46 52.3822 74.8037 53.084C74.1475 53.7858 73.2337 54.1367 72.0625 54.1367C71.3288 54.1367 70.6816 53.9772 70.1211 53.6582C69.5605 53.3346 69.1299 52.8721 68.8291 52.2705C68.5283 51.6689 68.3779 50.9671 68.3779 50.165C68.3779 48.9163 68.7038 47.9456 69.3555 47.2529C70.0072 46.5602 70.9232 46.2139 72.1035 46.2139C72.8372 46.2139 73.4844 46.3734 74.0449 46.6924C74.6055 47.0114 75.0361 47.4694 75.3369 48.0664C75.6377 48.6634 75.7881 49.363 75.7881 50.165ZM82.3643 54L81.9609 52.9609H81.9062C81.5553 53.403 81.193 53.7106 80.8193 53.8838C80.4502 54.0524 79.9671 54.1367 79.3701 54.1367C78.6364 54.1367 78.0576 53.9271 77.6338 53.5078C77.2145 53.0885 77.0049 52.4915 77.0049 51.7168C77.0049 50.9056 77.2874 50.3086 77.8525 49.9258C78.4222 49.5384 79.279 49.3242 80.4229 49.2832L81.749 49.2422V48.9072C81.749 48.1325 81.3525 47.7451 80.5596 47.7451C79.9489 47.7451 79.2311 47.9297 78.4062 48.2988L77.7158 46.8906C78.5954 46.4303 79.5706 46.2002 80.6416 46.2002C81.667 46.2002 82.4531 46.4235 83 46.8701C83.5469 47.3167 83.8203 47.9958 83.8203 48.9072V54H82.3643ZM81.749 50.459L80.9424 50.4863C80.3363 50.5046 79.8851 50.6139 79.5889 50.8145C79.2926 51.015 79.1445 51.3203 79.1445 51.7305C79.1445 52.3184 79.4818 52.6123 80.1562 52.6123C80.6393 52.6123 81.0244 52.4733 81.3115 52.1953C81.6032 51.9173 81.749 51.5482 81.749 51.0879V50.459ZM90.2393 46.2139C90.5218 46.2139 90.7565 46.2344 90.9434 46.2754L90.7861 48.2305C90.6175 48.1849 90.4124 48.1621 90.1709 48.1621C89.5055 48.1621 88.986 48.333 88.6123 48.6748C88.2432 49.0166 88.0586 49.4951 88.0586 50.1104V54H85.9736V46.3574H87.5527L87.8604 47.6426H87.9629C88.1999 47.2142 88.5189 46.8701 88.9199 46.6104C89.3255 46.346 89.7653 46.2139 90.2393 46.2139ZM94.751 54.1367C93.8532 54.1367 93.1468 53.7881 92.6318 53.0908C92.1214 52.3936 91.8662 51.4274 91.8662 50.1924C91.8662 48.9391 92.126 47.9639 92.6455 47.2666C93.1696 46.5648 93.8896 46.2139 94.8057 46.2139C95.7673 46.2139 96.501 46.5876 97.0068 47.335H97.0752C96.9704 46.7653 96.918 46.2572 96.918 45.8105V43.3633H99.0098V54H97.4102L97.0068 53.0088H96.918C96.444 53.7607 95.7217 54.1367 94.751 54.1367ZM95.4824 52.4756C96.0156 52.4756 96.4053 52.3206 96.6514 52.0107C96.902 51.7008 97.0387 51.1745 97.0615 50.4316V50.2061C97.0615 49.3857 96.9339 48.7979 96.6787 48.4424C96.4281 48.0869 96.0179 47.9092 95.4482 47.9092C94.9834 47.9092 94.6211 48.1074 94.3613 48.5039C94.1061 48.8958 93.9785 49.4678 93.9785 50.2197C93.9785 50.9717 94.1084 51.5368 94.3682 51.915C94.6279 52.2887 94.9993 52.4756 95.4824 52.4756Z" fill="#1F3948"/>
<path d="M1199.5 48C1199.5 57.7753 1193.03 66.8659 1182.06 73.5912C1171.11 80.301 1155.89 84.5 1139 84.5C1122.11 84.5 1106.89 80.301 1095.94 73.5912C1084.97 66.8659 1078.5 57.7753 1078.5 48C1078.5 38.2247 1084.97 29.1341 1095.94 22.4088C1106.89 15.699 1122.11 11.5 1139 11.5C1155.89 11.5 1171.11 15.699 1182.06 22.4088C1193.03 29.1341 1199.5 38.2247 1199.5 48Z" fill="#F9F9F9" stroke="#98B6CC" stroke-width="3"/>
<path d="M1129.95 51.2246C1129.95 52.127 1129.62 52.8379 1128.97 53.3574C1128.32 53.877 1127.42 54.1367 1126.26 54.1367C1125.2 54.1367 1124.25 53.9362 1123.43 53.5352V51.5664C1124.11 51.8672 1124.68 52.0791 1125.14 52.2021C1125.61 52.3252 1126.04 52.3867 1126.43 52.3867C1126.89 52.3867 1127.25 52.2979 1127.5 52.1201C1127.75 51.9424 1127.87 51.6781 1127.87 51.3271C1127.87 51.1312 1127.82 50.958 1127.71 50.8076C1127.6 50.6527 1127.44 50.5046 1127.22 50.3633C1127.01 50.222 1126.58 49.9964 1125.93 49.6865C1125.32 49.3994 1124.86 49.1237 1124.56 48.8594C1124.25 48.5951 1124.01 48.2874 1123.82 47.9365C1123.64 47.5856 1123.55 47.1755 1123.55 46.7061C1123.55 45.8219 1123.85 45.127 1124.45 44.6211C1125.05 44.1152 1125.88 43.8623 1126.93 43.8623C1127.45 43.8623 1127.95 43.9238 1128.42 44.0469C1128.89 44.1699 1129.39 44.3431 1129.9 44.5664L1129.22 46.2139C1128.68 45.9951 1128.24 45.8424 1127.89 45.7559C1127.55 45.6693 1127.2 45.626 1126.87 45.626C1126.47 45.626 1126.16 45.7194 1125.94 45.9062C1125.73 46.0931 1125.62 46.3369 1125.62 46.6377C1125.62 46.8245 1125.67 46.9886 1125.75 47.1299C1125.84 47.2666 1125.98 47.401 1126.16 47.5332C1126.35 47.6608 1126.8 47.8932 1127.51 48.2305C1128.44 48.6771 1129.08 49.126 1129.43 49.5771C1129.78 50.0238 1129.95 50.5729 1129.95 51.2246ZM1136.45 54L1136.05 52.9609H1135.99C1135.64 53.403 1135.28 53.7106 1134.91 53.8838C1134.54 54.0524 1134.05 54.1367 1133.46 54.1367C1132.72 54.1367 1132.14 53.9271 1131.72 53.5078C1131.3 53.0885 1131.09 52.4915 1131.09 51.7168C1131.09 50.9056 1131.37 50.3086 1131.94 49.9258C1132.51 49.5384 1133.36 49.3242 1134.51 49.2832L1135.83 49.2422V48.9072C1135.83 48.1325 1135.44 47.7451 1134.65 47.7451C1134.03 47.7451 1133.32 47.9297 1132.49 48.2988L1131.8 46.8906C1132.68 46.4303 1133.66 46.2002 1134.73 46.2002C1135.75 46.2002 1136.54 46.4235 1137.09 46.8701C1137.63 47.3167 1137.91 47.9958 1137.91 48.9072V54H1136.45ZM1135.83 50.459L1135.03 50.4863C1134.42 50.5046 1133.97 50.6139 1133.67 50.8145C1133.38 51.015 1133.23 51.3203 1133.23 51.7305C1133.23 52.3184 1133.57 52.6123 1134.24 52.6123C1134.73 52.6123 1135.11 52.4733 1135.4 52.1953C1135.69 51.9173 1135.83 51.5482 1135.83 51.0879V50.459ZM1141.88 54L1138.97 46.3574H1141.15L1142.62 50.7119C1142.79 51.2633 1142.89 51.7852 1142.93 52.2773H1142.97C1142.99 51.8398 1143.1 51.318 1143.28 50.7119L1144.75 46.3574H1146.93L1144.02 54H1141.88ZM1151.2 47.6973C1150.75 47.6973 1150.41 47.8385 1150.16 48.1211C1149.91 48.3991 1149.76 48.7956 1149.73 49.3105H1152.65C1152.64 48.7956 1152.51 48.3991 1152.25 48.1211C1151.99 47.8385 1151.64 47.6973 1151.2 47.6973ZM1151.49 54.1367C1150.26 54.1367 1149.3 53.7972 1148.6 53.1182C1147.91 52.4391 1147.57 51.4775 1147.57 50.2334C1147.57 48.9528 1147.88 47.9639 1148.52 47.2666C1149.17 46.5648 1150.05 46.2139 1151.18 46.2139C1152.26 46.2139 1153.1 46.5215 1153.7 47.1367C1154.31 47.752 1154.61 48.6019 1154.61 49.6865V50.6982H1149.68C1149.7 51.2907 1149.88 51.7533 1150.2 52.0859C1150.53 52.4186 1150.99 52.585 1151.58 52.585C1152.05 52.585 1152.48 52.5371 1152.89 52.4414C1153.3 52.3457 1153.73 52.193 1154.18 51.9834V53.5967C1153.81 53.779 1153.42 53.9134 1153.01 54C1152.59 54.0911 1152.09 54.1367 1151.49 54.1367Z" fill="#1F3948"/>
<rect x="195.5" y="11.5" width="135" height="73" fill="#F9F9F9" stroke="#DADADA" stroke-width="3"/>
<path d="M251.246 42.2246C251.246 43.127 250.92 43.8379 250.269 44.3574C249.621 44.877 248.719 45.1367 247.562 45.1367C246.495 45.1367 245.552 44.9362 244.731 44.5352V42.5664C245.406 42.8672 245.976 43.0791 246.44 43.2021C246.91 43.3252 247.338 43.3867 247.726 43.3867C248.19 43.3867 248.546 43.2979 248.792 43.1201C249.043 42.9424 249.168 42.6781 249.168 42.3271C249.168 42.1312 249.113 41.958 249.004 41.8076C248.895 41.6527 248.733 41.5046 248.519 41.3633C248.309 41.222 247.878 40.9964 247.227 40.6865C246.616 40.3994 246.158 40.1237 245.853 39.8594C245.547 39.5951 245.303 39.2874 245.121 38.9365C244.939 38.5856 244.848 38.1755 244.848 37.7061C244.848 36.8219 245.146 36.127 245.743 35.6211C246.345 35.1152 247.174 34.8623 248.231 34.8623C248.751 34.8623 249.245 34.9238 249.715 35.0469C250.189 35.1699 250.683 35.3431 251.198 35.5664L250.515 37.2139C249.981 36.9951 249.539 36.8424 249.188 36.7559C248.842 36.6693 248.5 36.626 248.163 36.626C247.762 36.626 247.454 36.7194 247.24 36.9062C247.026 37.0931 246.919 37.3369 246.919 37.6377C246.919 37.8245 246.962 37.9886 247.049 38.1299C247.135 38.2666 247.272 38.401 247.459 38.5332C247.65 38.6608 248.099 38.8932 248.806 39.2305C249.74 39.6771 250.38 40.126 250.727 40.5771C251.073 41.0238 251.246 41.5729 251.246 42.2246ZM256.059 38.6973C255.617 38.6973 255.27 38.8385 255.02 39.1211C254.769 39.3991 254.625 39.7956 254.589 40.3105H257.515C257.506 39.7956 257.371 39.3991 257.111 39.1211C256.852 38.8385 256.501 38.6973 256.059 38.6973ZM256.353 45.1367C255.122 45.1367 254.16 44.7972 253.468 44.1182C252.775 43.4391 252.429 42.4775 252.429 41.2334C252.429 39.9528 252.748 38.9639 253.386 38.2666C254.028 37.5648 254.915 37.2139 256.045 37.2139C257.125 37.2139 257.966 37.5215 258.567 38.1367C259.169 38.752 259.47 39.6019 259.47 40.6865V41.6982H254.541C254.564 42.2907 254.739 42.7533 255.067 43.0859C255.396 43.4186 255.856 43.585 256.448 43.585C256.909 43.585 257.344 43.5371 257.754 43.4414C258.164 43.3457 258.592 43.193 259.039 42.9834V44.5967C258.674 44.779 258.285 44.9134 257.87 45C257.455 45.0911 256.95 45.1367 256.353 45.1367ZM263.25 45H261.165V34.3633H263.25V45ZM268.609 38.6973C268.167 38.6973 267.821 38.8385 267.57 39.1211C267.32 39.3991 267.176 39.7956 267.14 40.3105H270.065C270.056 39.7956 269.922 39.3991 269.662 39.1211C269.402 38.8385 269.051 38.6973 268.609 38.6973ZM268.903 45.1367C267.673 45.1367 266.711 44.7972 266.019 44.1182C265.326 43.4391 264.979 42.4775 264.979 41.2334C264.979 39.9528 265.299 38.9639 265.937 38.2666C266.579 37.5648 267.465 37.2139 268.596 37.2139C269.676 37.2139 270.517 37.5215 271.118 38.1367C271.72 38.752 272.021 39.6019 272.021 40.6865V41.6982H267.092C267.115 42.2907 267.29 42.7533 267.618 43.0859C267.946 43.4186 268.407 43.585 268.999 43.585C269.459 43.585 269.895 43.5371 270.305 43.4414C270.715 43.3457 271.143 43.193 271.59 42.9834V44.5967C271.225 44.779 270.836 44.9134 270.421 45C270.006 45.0911 269.5 45.1367 268.903 45.1367ZM276.819 45.1367C274.44 45.1367 273.251 43.8311 273.251 41.2197C273.251 39.9209 273.575 38.9297 274.222 38.2461C274.869 37.5579 275.796 37.2139 277.004 37.2139C277.888 37.2139 278.681 37.387 279.383 37.7334L278.768 39.3467C278.439 39.2145 278.134 39.1074 277.852 39.0254C277.569 38.9388 277.286 38.8955 277.004 38.8955C275.919 38.8955 275.377 39.6657 275.377 41.2061C275.377 42.7008 275.919 43.4482 277.004 43.4482C277.405 43.4482 277.776 43.3958 278.118 43.291C278.46 43.1816 278.802 43.013 279.144 42.7852V44.5693C278.806 44.7835 278.465 44.9316 278.118 45.0137C277.776 45.0957 277.343 45.1367 276.819 45.1367ZM284.141 43.4756C284.505 43.4756 284.943 43.3958 285.453 43.2363V44.7881C284.934 45.0205 284.296 45.1367 283.539 45.1367C282.705 45.1367 282.097 44.9271 281.714 44.5078C281.336 44.084 281.146 43.4505 281.146 42.6074V38.9229H280.148V38.041L281.297 37.3438L281.898 35.7305H283.231V37.3574H285.371V38.9229H283.231V42.6074C283.231 42.9036 283.313 43.1224 283.478 43.2637C283.646 43.4049 283.867 43.4756 284.141 43.4756ZM234.047 64.1367C231.668 64.1367 230.479 62.8311 230.479 60.2197C230.479 58.9209 230.802 57.9297 231.449 57.2461C232.096 56.5579 233.024 56.2139 234.231 56.2139C235.116 56.2139 235.909 56.387 236.61 56.7334L235.995 58.3467C235.667 58.2145 235.362 58.1074 235.079 58.0254C234.797 57.9388 234.514 57.8955 234.231 57.8955C233.147 57.8955 232.604 58.6657 232.604 60.2061C232.604 61.7008 233.147 62.4482 234.231 62.4482C234.632 62.4482 235.004 62.3958 235.346 62.291C235.688 62.1816 236.029 62.013 236.371 61.7852V63.5693C236.034 63.7835 235.692 63.9316 235.346 64.0137C235.004 64.0957 234.571 64.1367 234.047 64.1367ZM245.203 64H243.118V59.5361C243.118 58.4333 242.708 57.8818 241.888 57.8818C241.304 57.8818 240.883 58.0801 240.623 58.4766C240.363 58.873 240.233 59.5156 240.233 60.4043V64H238.148V53.3633H240.233V55.5303C240.233 55.6989 240.217 56.0954 240.186 56.7197L240.138 57.335H240.247C240.712 56.5876 241.45 56.2139 242.462 56.2139C243.36 56.2139 244.041 56.4554 244.506 56.9385C244.971 57.4215 245.203 58.1143 245.203 59.0166V64ZM252.203 64L251.8 62.9609H251.745C251.394 63.403 251.032 63.7106 250.658 63.8838C250.289 64.0524 249.806 64.1367 249.209 64.1367C248.475 64.1367 247.896 63.9271 247.473 63.5078C247.053 63.0885 246.844 62.4915 246.844 61.7168C246.844 60.9056 247.126 60.3086 247.691 59.9258C248.261 59.5384 249.118 59.3242 250.262 59.2832L251.588 59.2422V58.9072C251.588 58.1325 251.191 57.7451 250.398 57.7451C249.788 57.7451 249.07 57.9297 248.245 58.2988L247.555 56.8906C248.434 56.4303 249.41 56.2002 250.48 56.2002C251.506 56.2002 252.292 56.4235 252.839 56.8701C253.386 57.3167 253.659 57.9958 253.659 58.9072V64H252.203ZM251.588 60.459L250.781 60.4863C250.175 60.5046 249.724 60.6139 249.428 60.8145C249.132 61.015 248.983 61.3203 248.983 61.7305C248.983 62.3184 249.321 62.6123 249.995 62.6123C250.478 62.6123 250.863 62.4733 251.15 62.1953C251.442 61.9173 251.588 61.5482 251.588 61.0879V60.459ZM260.078 56.2139C260.361 56.2139 260.595 56.2344 260.782 56.2754L260.625 58.2305C260.456 58.1849 260.251 58.1621 260.01 58.1621C259.344 58.1621 258.825 58.333 258.451 58.6748C258.082 59.0166 257.897 59.4951 257.897 60.1104V64H255.812V56.3574H257.392L257.699 57.6426H257.802C258.039 57.2142 258.358 56.8701 258.759 56.6104C259.164 56.346 259.604 56.2139 260.078 56.2139ZM265.39 62.4756C265.754 62.4756 266.192 62.3958 266.702 62.2363V63.7881C266.183 64.0205 265.545 64.1367 264.788 64.1367C263.954 64.1367 263.346 63.9271 262.963 63.5078C262.585 63.084 262.396 62.4505 262.396 61.6074V57.9229H261.397V57.041L262.546 56.3438L263.147 54.7305H264.48V56.3574H266.62V57.9229H264.48V61.6074C264.48 61.9036 264.562 62.1224 264.727 62.2637C264.895 62.4049 265.116 62.4756 265.39 62.4756ZM271.802 54.3818C271.802 53.7028 272.18 53.3633 272.937 53.3633C273.693 53.3633 274.071 53.7028 274.071 54.3818C274.071 54.7054 273.976 54.9583 273.784 55.1406C273.597 55.3184 273.315 55.4072 272.937 55.4072C272.18 55.4072 271.802 55.0654 271.802 54.3818ZM273.976 64H271.891V56.3574H273.976V64ZM279.273 64.1367C276.895 64.1367 275.705 62.8311 275.705 60.2197C275.705 58.9209 276.029 57.9297 276.676 57.2461C277.323 56.5579 278.25 56.2139 279.458 56.2139C280.342 56.2139 281.135 56.387 281.837 56.7334L281.222 58.3467C280.894 58.2145 280.588 58.1074 280.306 58.0254C280.023 57.9388 279.741 57.8955 279.458 57.8955C278.373 57.8955 277.831 58.6657 277.831 60.2061C277.831 61.7008 278.373 62.4482 279.458 62.4482C279.859 62.4482 280.23 62.3958 280.572 62.291C280.914 62.1816 281.256 62.013 281.598 61.7852V63.5693C281.26 63.7835 280.919 63.9316 280.572 64.0137C280.23 64.0957 279.798 64.1367 279.273 64.1367ZM285.036 60.165C285.036 60.9215 285.159 61.4935 285.405 61.8809C285.656 62.2682 286.062 62.4619 286.622 62.4619C287.178 62.4619 287.577 62.2705 287.818 61.8877C288.064 61.5003 288.188 60.9261 288.188 60.165C288.188 59.4085 288.064 58.8411 287.818 58.4629C287.572 58.0846 287.169 57.8955 286.608 57.8955C286.052 57.8955 285.651 58.0846 285.405 58.4629C285.159 58.8366 285.036 59.404 285.036 60.165ZM290.32 60.165C290.32 61.4092 289.992 62.3822 289.336 63.084C288.68 63.7858 287.766 64.1367 286.595 64.1367C285.861 64.1367 285.214 63.9772 284.653 63.6582C284.093 63.3346 283.662 62.8721 283.361 62.2705C283.061 61.6689 282.91 60.9671 282.91 60.165C282.91 58.9163 283.236 57.9456 283.888 57.2529C284.539 56.5602 285.455 56.2139 286.636 56.2139C287.369 56.2139 288.017 56.3734 288.577 56.6924C289.138 57.0114 289.568 57.4694 289.869 58.0664C290.17 58.6634 290.32 59.363 290.32 60.165ZM299.098 64H297.013V59.5361C297.013 58.9847 296.915 58.5723 296.719 58.2988C296.523 58.0208 296.211 57.8818 295.782 57.8818C295.199 57.8818 294.777 58.0778 294.518 58.4697C294.258 58.8571 294.128 59.502 294.128 60.4043V64H292.043V56.3574H293.636L293.916 57.335H294.032C294.265 56.9658 294.584 56.6878 294.989 56.501C295.399 56.3096 295.864 56.2139 296.384 56.2139C297.272 56.2139 297.947 56.4554 298.407 56.9385C298.868 57.417 299.098 58.1097 299.098 59.0166V64Z" fill="#1F3948"/>
<rect x="616.5" y="11.5" width="135" height="73" fill="#F9F9F9" stroke="#DADADA" stroke-width="3"/>
<path d="M654.172 45H648.416V35.0059H654.172V36.7422H650.535V38.9365H653.919V40.6729H650.535V43.25H654.172V45ZM663.154 45H661.069V40.5361C661.069 39.9847 660.971 39.5723 660.775 39.2988C660.579 39.0208 660.267 38.8818 659.839 38.8818C659.256 38.8818 658.834 39.0778 658.574 39.4697C658.314 39.8571 658.185 40.502 658.185 41.4043V45H656.1V37.3574H657.692L657.973 38.335H658.089C658.321 37.9658 658.64 37.6878 659.046 37.501C659.456 37.3096 659.921 37.2139 660.44 37.2139C661.329 37.2139 662.004 37.4554 662.464 37.9385C662.924 38.417 663.154 39.1097 663.154 40.0166V45ZM668.521 43.4756C668.885 43.4756 669.323 43.3958 669.833 43.2363V44.7881C669.313 45.0205 668.675 45.1367 667.919 45.1367C667.085 45.1367 666.477 44.9271 666.094 44.5078C665.715 44.084 665.526 43.4505 665.526 42.6074V38.9229H664.528V38.041L665.677 37.3438L666.278 35.7305H667.611V37.3574H669.751V38.9229H667.611V42.6074C667.611 42.9036 667.693 43.1224 667.857 43.2637C668.026 43.4049 668.247 43.4756 668.521 43.4756ZM674.55 38.6973C674.108 38.6973 673.761 38.8385 673.511 39.1211C673.26 39.3991 673.117 39.7956 673.08 40.3105H676.006C675.997 39.7956 675.862 39.3991 675.603 39.1211C675.343 38.8385 674.992 38.6973 674.55 38.6973ZM674.844 45.1367C673.613 45.1367 672.652 44.7972 671.959 44.1182C671.266 43.4391 670.92 42.4775 670.92 41.2334C670.92 39.9528 671.239 38.9639 671.877 38.2666C672.52 37.5648 673.406 37.2139 674.536 37.2139C675.616 37.2139 676.457 37.5215 677.059 38.1367C677.66 38.752 677.961 39.6019 677.961 40.6865V41.6982H673.032C673.055 42.2907 673.23 42.7533 673.559 43.0859C673.887 43.4186 674.347 43.585 674.939 43.585C675.4 43.585 675.835 43.5371 676.245 43.4414C676.655 43.3457 677.084 43.193 677.53 42.9834V44.5967C677.166 44.779 676.776 44.9134 676.361 45C675.947 45.0911 675.441 45.1367 674.844 45.1367ZM683.922 37.2139C684.204 37.2139 684.439 37.2344 684.626 37.2754L684.469 39.2305C684.3 39.1849 684.095 39.1621 683.854 39.1621C683.188 39.1621 682.669 39.333 682.295 39.6748C681.926 40.0166 681.741 40.4951 681.741 41.1104V45H679.656V37.3574H681.235L681.543 38.6426H681.646C681.882 38.2142 682.201 37.8701 682.603 37.6104C683.008 37.346 683.448 37.2139 683.922 37.2139ZM696.302 37.3574V38.417L695.105 38.7246C695.324 39.0664 695.434 39.4492 695.434 39.873C695.434 40.6934 695.146 41.3337 694.572 41.7939C694.003 42.2497 693.21 42.4775 692.193 42.4775L691.817 42.457L691.51 42.4229C691.296 42.5869 691.188 42.7692 691.188 42.9697C691.188 43.2705 691.571 43.4209 692.337 43.4209H693.636C694.474 43.4209 695.112 43.6009 695.55 43.9609C695.992 44.321 696.213 44.8496 696.213 45.5469C696.213 46.4401 695.839 47.1328 695.092 47.625C694.349 48.1172 693.28 48.3633 691.886 48.3633C690.819 48.3633 690.004 48.1764 689.438 47.8027C688.878 47.4336 688.598 46.9141 688.598 46.2441C688.598 45.7839 688.741 45.3988 689.028 45.0889C689.315 44.779 689.737 44.5579 690.293 44.4258C690.079 44.3346 689.892 44.1865 689.732 43.9814C689.573 43.7718 689.493 43.5508 689.493 43.3184C689.493 43.0267 689.577 42.7852 689.746 42.5938C689.915 42.3978 690.159 42.2064 690.478 42.0195C690.076 41.8464 689.757 41.5684 689.521 41.1855C689.288 40.8027 689.172 40.3516 689.172 39.832C689.172 38.998 689.443 38.3532 689.985 37.8975C690.528 37.4417 691.302 37.2139 692.31 37.2139C692.524 37.2139 692.777 37.2344 693.068 37.2754C693.365 37.3118 693.554 37.3392 693.636 37.3574H696.302ZM690.402 46.0801C690.402 46.3672 690.539 46.5928 690.812 46.7568C691.09 46.9209 691.478 47.0029 691.975 47.0029C692.722 47.0029 693.308 46.9004 693.731 46.6953C694.155 46.4902 694.367 46.21 694.367 45.8545C694.367 45.5674 694.242 45.3691 693.991 45.2598C693.741 45.1504 693.353 45.0957 692.829 45.0957H691.749C691.366 45.0957 691.045 45.1846 690.785 45.3623C690.53 45.5446 690.402 45.7839 690.402 46.0801ZM691.161 39.8594C691.161 40.2741 691.255 40.6022 691.441 40.8438C691.633 41.0853 691.922 41.2061 692.31 41.2061C692.701 41.2061 692.989 41.0853 693.171 40.8438C693.353 40.6022 693.444 40.2741 693.444 39.8594C693.444 38.9388 693.066 38.4785 692.31 38.4785C691.544 38.4785 691.161 38.9388 691.161 39.8594ZM699.228 41.165C699.228 41.9215 699.351 42.4935 699.597 42.8809C699.847 43.2682 700.253 43.4619 700.813 43.4619C701.369 43.4619 701.768 43.2705 702.01 42.8877C702.256 42.5003 702.379 41.9261 702.379 41.165C702.379 40.4085 702.256 39.8411 702.01 39.4629C701.764 39.0846 701.36 38.8955 700.8 38.8955C700.244 38.8955 699.843 39.0846 699.597 39.4629C699.351 39.8366 699.228 40.404 699.228 41.165ZM704.512 41.165C704.512 42.4092 704.184 43.3822 703.527 44.084C702.871 44.7858 701.957 45.1367 700.786 45.1367C700.052 45.1367 699.405 44.9772 698.845 44.6582C698.284 44.3346 697.854 43.8721 697.553 43.2705C697.252 42.6689 697.102 41.9671 697.102 41.165C697.102 39.9163 697.427 38.9456 698.079 38.2529C698.731 37.5602 699.647 37.2139 700.827 37.2139C701.561 37.2139 702.208 37.3734 702.769 37.6924C703.329 38.0114 703.76 38.4694 704.061 39.0664C704.361 39.6634 704.512 40.363 704.512 41.165ZM711.088 45L710.685 43.9609H710.63C710.279 44.403 709.917 44.7106 709.543 44.8838C709.174 45.0524 708.691 45.1367 708.094 45.1367C707.36 45.1367 706.781 44.9271 706.357 44.5078C705.938 44.0885 705.729 43.4915 705.729 42.7168C705.729 41.9056 706.011 41.3086 706.576 40.9258C707.146 40.5384 708.003 40.3242 709.146 40.2832L710.473 40.2422V39.9072C710.473 39.1325 710.076 38.7451 709.283 38.7451C708.673 38.7451 707.955 38.9297 707.13 39.2988L706.439 37.8906C707.319 37.4303 708.294 37.2002 709.365 37.2002C710.391 37.2002 711.177 37.4235 711.724 37.8701C712.271 38.3167 712.544 38.9958 712.544 39.9072V45H711.088ZM710.473 41.459L709.666 41.4863C709.06 41.5046 708.609 41.6139 708.312 41.8145C708.016 42.015 707.868 42.3203 707.868 42.7305C707.868 43.3184 708.205 43.6123 708.88 43.6123C709.363 43.6123 709.748 43.4733 710.035 43.1953C710.327 42.9173 710.473 42.5482 710.473 42.0879V41.459ZM716.782 45H714.697V34.3633H716.782V45ZM724.309 42.7305C724.309 43.5143 724.035 44.1113 723.488 44.5215C722.946 44.9316 722.132 45.1367 721.048 45.1367C720.492 45.1367 720.018 45.098 719.626 45.0205C719.234 44.9476 718.867 44.8382 718.525 44.6924V42.9697C718.913 43.152 719.348 43.3047 719.831 43.4277C720.319 43.5508 720.747 43.6123 721.116 43.6123C721.873 43.6123 722.251 43.3936 722.251 42.9561C722.251 42.792 722.201 42.6598 722.101 42.5596C722 42.4548 721.827 42.3385 721.581 42.2109C721.335 42.0788 721.007 41.9261 720.597 41.7529C720.009 41.5068 719.576 41.279 719.298 41.0693C719.024 40.8597 718.824 40.6204 718.696 40.3516C718.573 40.0781 718.512 39.7432 718.512 39.3467C718.512 38.6676 718.774 38.1436 719.298 37.7744C719.826 37.4007 720.574 37.2139 721.54 37.2139C722.461 37.2139 723.356 37.4144 724.227 37.8154L723.598 39.3193C723.215 39.1553 722.857 39.0208 722.524 38.916C722.192 38.8112 721.852 38.7588 721.506 38.7588C720.891 38.7588 720.583 38.9251 720.583 39.2578C720.583 39.4447 720.681 39.6064 720.877 39.7432C721.077 39.8799 721.513 40.0827 722.183 40.3516C722.78 40.5931 723.217 40.8187 723.495 41.0283C723.773 41.238 723.978 41.4795 724.11 41.7529C724.243 42.0264 724.309 42.3522 724.309 42.7305ZM665.916 64.1367C665.018 64.1367 664.312 63.7881 663.797 63.0908C663.286 62.3936 663.031 61.4274 663.031 60.1924C663.031 58.9391 663.291 57.9639 663.811 57.2666C664.335 56.5648 665.055 56.2139 665.971 56.2139C666.932 56.2139 667.666 56.5876 668.172 57.335H668.24C668.135 56.7653 668.083 56.2572 668.083 55.8105V53.3633H670.175V64H668.575L668.172 63.0088H668.083C667.609 63.7607 666.887 64.1367 665.916 64.1367ZM666.647 62.4756C667.181 62.4756 667.57 62.3206 667.816 62.0107C668.067 61.7008 668.204 61.1745 668.227 60.4316V60.2061C668.227 59.3857 668.099 58.7979 667.844 58.4424C667.593 58.0869 667.183 57.9092 666.613 57.9092C666.148 57.9092 665.786 58.1074 665.526 58.5039C665.271 58.8958 665.144 59.4678 665.144 60.2197C665.144 60.9717 665.273 61.5368 665.533 61.915C665.793 62.2887 666.164 62.4756 666.647 62.4756ZM675.521 57.6973C675.078 57.6973 674.732 57.8385 674.481 58.1211C674.231 58.3991 674.087 58.7956 674.051 59.3105H676.977C676.967 58.7956 676.833 58.3991 676.573 58.1211C676.313 57.8385 675.963 57.6973 675.521 57.6973ZM675.814 64.1367C674.584 64.1367 673.622 63.7972 672.93 63.1182C672.237 62.4391 671.891 61.4775 671.891 60.2334C671.891 58.9528 672.21 57.9639 672.848 57.2666C673.49 56.5648 674.377 56.2139 675.507 56.2139C676.587 56.2139 677.428 56.5215 678.029 57.1367C678.631 57.752 678.932 58.6019 678.932 59.6865V60.6982H674.003C674.026 61.2907 674.201 61.7533 674.529 62.0859C674.857 62.4186 675.318 62.585 675.91 62.585C676.37 62.585 676.806 62.5371 677.216 62.4414C677.626 62.3457 678.054 62.193 678.501 61.9834V63.5967C678.136 63.779 677.747 63.9134 677.332 64C676.917 64.0911 676.411 64.1367 675.814 64.1367ZM683.847 62.4756C684.211 62.4756 684.649 62.3958 685.159 62.2363V63.7881C684.64 64.0205 684.002 64.1367 683.245 64.1367C682.411 64.1367 681.803 63.9271 681.42 63.5078C681.042 63.084 680.853 62.4505 680.853 61.6074V57.9229H679.854V57.041L681.003 56.3438L681.604 54.7305H682.938V56.3574H685.077V57.9229H682.938V61.6074C682.938 61.9036 683.02 62.1224 683.184 62.2637C683.352 62.4049 683.573 62.4756 683.847 62.4756ZM691.564 64L691.161 62.9609H691.106C690.756 63.403 690.393 63.7106 690.02 63.8838C689.65 64.0524 689.167 64.1367 688.57 64.1367C687.837 64.1367 687.258 63.9271 686.834 63.5078C686.415 63.0885 686.205 62.4915 686.205 61.7168C686.205 60.9056 686.488 60.3086 687.053 59.9258C687.622 59.5384 688.479 59.3242 689.623 59.2832L690.949 59.2422V58.9072C690.949 58.1325 690.553 57.7451 689.76 57.7451C689.149 57.7451 688.431 57.9297 687.606 58.2988L686.916 56.8906C687.796 56.4303 688.771 56.2002 689.842 56.2002C690.867 56.2002 691.653 56.4235 692.2 56.8701C692.747 57.3167 693.021 57.9958 693.021 58.9072V64H691.564ZM690.949 60.459L690.143 60.4863C689.536 60.5046 689.085 60.6139 688.789 60.8145C688.493 61.015 688.345 61.3203 688.345 61.7305C688.345 62.3184 688.682 62.6123 689.356 62.6123C689.84 62.6123 690.225 62.4733 690.512 62.1953C690.803 61.9173 690.949 61.5482 690.949 61.0879V60.459ZM695.085 54.3818C695.085 53.7028 695.463 53.3633 696.22 53.3633C696.976 53.3633 697.354 53.7028 697.354 54.3818C697.354 54.7054 697.259 54.9583 697.067 55.1406C696.881 55.3184 696.598 55.4072 696.22 55.4072C695.463 55.4072 695.085 55.0654 695.085 54.3818ZM697.259 64H695.174V56.3574H697.259V64ZM701.538 64H699.453V53.3633H701.538V64ZM709.064 61.7305C709.064 62.5143 708.791 63.1113 708.244 63.5215C707.702 63.9316 706.888 64.1367 705.804 64.1367C705.248 64.1367 704.774 64.098 704.382 64.0205C703.99 63.9476 703.623 63.8382 703.281 63.6924V61.9697C703.669 62.152 704.104 62.3047 704.587 62.4277C705.075 62.5508 705.503 62.6123 705.872 62.6123C706.629 62.6123 707.007 62.3936 707.007 61.9561C707.007 61.792 706.957 61.6598 706.856 61.5596C706.756 61.4548 706.583 61.3385 706.337 61.2109C706.091 61.0788 705.763 60.9261 705.353 60.7529C704.765 60.5068 704.332 60.279 704.054 60.0693C703.78 59.8597 703.58 59.6204 703.452 59.3516C703.329 59.0781 703.268 58.7432 703.268 58.3467C703.268 57.6676 703.53 57.1436 704.054 56.7744C704.582 56.4007 705.33 56.2139 706.296 56.2139C707.216 56.2139 708.112 56.4144 708.982 56.8154L708.354 58.3193C707.971 58.1553 707.613 58.0208 707.28 57.916C706.948 57.8112 706.608 57.7588 706.262 57.7588C705.646 57.7588 705.339 57.9251 705.339 58.2578C705.339 58.4447 705.437 58.6064 705.633 58.7432C705.833 58.8799 706.269 59.0827 706.938 59.3516C707.535 59.5931 707.973 59.8187 708.251 60.0283C708.529 60.238 708.734 60.4795 708.866 60.7529C708.998 61.0264 709.064 61.3522 709.064 61.7305Z" fill="#1F3948"/>
<rect x="403.5" y="11.5" width="135" height="73" fill="#F9F9F9" stroke="#DADADA" stroke-width="3"/>
<path d="M442.837 32.2246C442.837 33.127 442.511 33.8379 441.859 34.3574C441.212 34.877 440.31 35.1367 439.152 35.1367C438.086 35.1367 437.143 34.9362 436.322 34.5352V32.5664C436.997 32.8672 437.566 33.0791 438.031 33.2021C438.501 33.3252 438.929 33.3867 439.316 33.3867C439.781 33.3867 440.137 33.2979 440.383 33.1201C440.633 32.9424 440.759 32.6781 440.759 32.3271C440.759 32.1312 440.704 31.958 440.595 31.8076C440.485 31.6527 440.324 31.5046 440.109 31.3633C439.9 31.222 439.469 30.9964 438.817 30.6865C438.207 30.3994 437.749 30.1237 437.443 29.8594C437.138 29.5951 436.894 29.2874 436.712 28.9365C436.53 28.5856 436.438 28.1755 436.438 27.7061C436.438 26.8219 436.737 26.127 437.334 25.6211C437.936 25.1152 438.765 24.8623 439.822 24.8623C440.342 24.8623 440.836 24.9238 441.306 25.0469C441.78 25.1699 442.274 25.3431 442.789 25.5664L442.105 27.2139C441.572 26.9951 441.13 26.8424 440.779 26.7559C440.433 26.6693 440.091 26.626 439.754 26.626C439.353 26.626 439.045 26.7194 438.831 26.9062C438.617 27.0931 438.51 27.3369 438.51 27.6377C438.51 27.8245 438.553 27.9886 438.64 28.1299C438.726 28.2666 438.863 28.401 439.05 28.5332C439.241 28.6608 439.69 28.8932 440.396 29.2305C441.331 29.6771 441.971 30.126 442.317 30.5771C442.664 31.0238 442.837 31.5729 442.837 32.2246ZM447.649 28.6973C447.207 28.6973 446.861 28.8385 446.61 29.1211C446.36 29.3991 446.216 29.7956 446.18 30.3105H449.105C449.096 29.7956 448.962 29.3991 448.702 29.1211C448.442 28.8385 448.091 28.6973 447.649 28.6973ZM447.943 35.1367C446.713 35.1367 445.751 34.7972 445.059 34.1182C444.366 33.4391 444.02 32.4775 444.02 31.2334C444.02 29.9528 444.339 28.9639 444.977 28.2666C445.619 27.5648 446.506 27.2139 447.636 27.2139C448.716 27.2139 449.557 27.5215 450.158 28.1367C450.76 28.752 451.061 29.6019 451.061 30.6865V31.6982H446.132C446.155 32.2907 446.33 32.7533 446.658 33.0859C446.986 33.4186 447.447 33.585 448.039 33.585C448.499 33.585 448.935 33.5371 449.345 33.4414C449.755 33.3457 450.183 33.193 450.63 32.9834V34.5967C450.265 34.779 449.876 34.9134 449.461 35C449.046 35.0911 448.54 35.1367 447.943 35.1367ZM454.841 35H452.756V24.3633H454.841V35ZM460.2 28.6973C459.758 28.6973 459.412 28.8385 459.161 29.1211C458.91 29.3991 458.767 29.7956 458.73 30.3105H461.656C461.647 29.7956 461.513 29.3991 461.253 29.1211C460.993 28.8385 460.642 28.6973 460.2 28.6973ZM460.494 35.1367C459.264 35.1367 458.302 34.7972 457.609 34.1182C456.917 33.4391 456.57 32.4775 456.57 31.2334C456.57 29.9528 456.889 28.9639 457.527 28.2666C458.17 27.5648 459.056 27.2139 460.187 27.2139C461.267 27.2139 462.107 27.5215 462.709 28.1367C463.311 28.752 463.611 29.6019 463.611 30.6865V31.6982H458.683C458.705 32.2907 458.881 32.7533 459.209 33.0859C459.537 33.4186 459.997 33.585 460.59 33.585C461.05 33.585 461.485 33.5371 461.896 33.4414C462.306 33.3457 462.734 33.193 463.181 32.9834V34.5967C462.816 34.779 462.426 34.9134 462.012 35C461.597 35.0911 461.091 35.1367 460.494 35.1367ZM468.41 35.1367C466.031 35.1367 464.842 33.8311 464.842 31.2197C464.842 29.9209 465.165 28.9297 465.812 28.2461C466.46 27.5579 467.387 27.2139 468.595 27.2139C469.479 27.2139 470.272 27.387 470.974 27.7334L470.358 29.3467C470.03 29.2145 469.725 29.1074 469.442 29.0254C469.16 28.9388 468.877 28.8955 468.595 28.8955C467.51 28.8955 466.968 29.6657 466.968 31.2061C466.968 32.7008 467.51 33.4482 468.595 33.4482C468.996 33.4482 469.367 33.3958 469.709 33.291C470.051 33.1816 470.393 33.013 470.734 32.7852V34.5693C470.397 34.7835 470.055 34.9316 469.709 35.0137C469.367 35.0957 468.934 35.1367 468.41 35.1367ZM475.731 33.4756C476.096 33.4756 476.534 33.3958 477.044 33.2363V34.7881C476.524 35.0205 475.886 35.1367 475.13 35.1367C474.296 35.1367 473.688 34.9271 473.305 34.5078C472.926 34.084 472.737 33.4505 472.737 32.6074V28.9229H471.739V28.041L472.888 27.3438L473.489 25.7305H474.822V27.3574H476.962V28.9229H474.822V32.6074C474.822 32.9036 474.904 33.1224 475.068 33.2637C475.237 33.4049 475.458 33.4756 475.731 33.4756ZM487.086 35L486.683 33.9609H486.628C486.277 34.403 485.915 34.7106 485.541 34.8838C485.172 35.0524 484.689 35.1367 484.092 35.1367C483.358 35.1367 482.779 34.9271 482.355 34.5078C481.936 34.0885 481.727 33.4915 481.727 32.7168C481.727 31.9056 482.009 31.3086 482.574 30.9258C483.144 30.5384 484.001 30.3242 485.145 30.2832L486.471 30.2422V29.9072C486.471 29.1325 486.074 28.7451 485.281 28.7451C484.671 28.7451 483.953 28.9297 483.128 29.2988L482.438 27.8906C483.317 27.4303 484.292 27.2002 485.363 27.2002C486.389 27.2002 487.175 27.4235 487.722 27.8701C488.269 28.3167 488.542 28.9958 488.542 29.9072V35H487.086ZM486.471 31.459L485.664 31.4863C485.058 31.5046 484.607 31.6139 484.311 31.8145C484.014 32.015 483.866 32.3203 483.866 32.7305C483.866 33.3184 484.203 33.6123 484.878 33.6123C485.361 33.6123 485.746 33.4733 486.033 33.1953C486.325 32.9173 486.471 32.5482 486.471 32.0879V31.459ZM493.115 35.1367C492.217 35.1367 491.511 34.7881 490.996 34.0908C490.486 33.3936 490.23 32.4274 490.23 31.1924C490.23 29.9391 490.49 28.9639 491.01 28.2666C491.534 27.5648 492.254 27.2139 493.17 27.2139C494.132 27.2139 494.865 27.5876 495.371 28.335H495.439C495.335 27.7653 495.282 27.2572 495.282 26.8105V24.3633H497.374V35H495.774L495.371 34.0088H495.282C494.808 34.7607 494.086 35.1367 493.115 35.1367ZM493.847 33.4756C494.38 33.4756 494.77 33.3206 495.016 33.0107C495.266 32.7008 495.403 32.1745 495.426 31.4316V31.2061C495.426 30.3857 495.298 29.7979 495.043 29.4424C494.792 29.0869 494.382 28.9092 493.812 28.9092C493.348 28.9092 492.985 29.1074 492.726 29.5039C492.47 29.8958 492.343 30.4678 492.343 31.2197C492.343 31.9717 492.473 32.5368 492.732 32.915C492.992 33.2887 493.364 33.4756 493.847 33.4756ZM501.975 35.1367C501.077 35.1367 500.37 34.7881 499.855 34.0908C499.345 33.3936 499.09 32.4274 499.09 31.1924C499.09 29.9391 499.35 28.9639 499.869 28.2666C500.393 27.5648 501.113 27.2139 502.029 27.2139C502.991 27.2139 503.725 27.5876 504.23 28.335H504.299C504.194 27.7653 504.142 27.2572 504.142 26.8105V24.3633H506.233V35H504.634L504.23 34.0088H504.142C503.668 34.7607 502.945 35.1367 501.975 35.1367ZM502.706 33.4756C503.239 33.4756 503.629 33.3206 503.875 33.0107C504.126 32.7008 504.262 32.1745 504.285 31.4316V31.2061C504.285 30.3857 504.158 29.7979 503.902 29.4424C503.652 29.0869 503.242 28.9092 502.672 28.9092C502.207 28.9092 501.845 29.1074 501.585 29.5039C501.33 29.8958 501.202 30.4678 501.202 31.2197C501.202 31.9717 501.332 32.5368 501.592 32.915C501.852 33.2887 502.223 33.4756 502.706 33.4756ZM430.874 44.3818C430.874 43.7028 431.252 43.3633 432.009 43.3633C432.765 43.3633 433.144 43.7028 433.144 44.3818C433.144 44.7054 433.048 44.9583 432.856 45.1406C432.67 45.3184 432.387 45.4072 432.009 45.4072C431.252 45.4072 430.874 45.0654 430.874 44.3818ZM433.048 54H430.963V46.3574H433.048V54ZM438.346 54.1367C435.967 54.1367 434.777 52.8311 434.777 50.2197C434.777 48.9209 435.101 47.9297 435.748 47.2461C436.395 46.5579 437.323 46.2139 438.53 46.2139C439.414 46.2139 440.207 46.387 440.909 46.7334L440.294 48.3467C439.966 48.2145 439.66 48.1074 439.378 48.0254C439.095 47.9388 438.813 47.8955 438.53 47.8955C437.446 47.8955 436.903 48.6657 436.903 50.2061C436.903 51.7008 437.446 52.4482 438.53 52.4482C438.931 52.4482 439.303 52.3958 439.645 52.291C439.986 52.1816 440.328 52.013 440.67 51.7852V53.5693C440.333 53.7835 439.991 53.9316 439.645 54.0137C439.303 54.0957 438.87 54.1367 438.346 54.1367ZM444.108 50.165C444.108 50.9215 444.231 51.4935 444.478 51.8809C444.728 52.2682 445.134 52.4619 445.694 52.4619C446.25 52.4619 446.649 52.2705 446.891 51.8877C447.137 51.5003 447.26 50.9261 447.26 50.165C447.26 49.4085 447.137 48.8411 446.891 48.4629C446.645 48.0846 446.241 47.8955 445.681 47.8955C445.125 47.8955 444.724 48.0846 444.478 48.4629C444.231 48.8366 444.108 49.404 444.108 50.165ZM449.393 50.165C449.393 51.4092 449.064 52.3822 448.408 53.084C447.752 53.7858 446.838 54.1367 445.667 54.1367C444.933 54.1367 444.286 53.9772 443.726 53.6582C443.165 53.3346 442.734 52.8721 442.434 52.2705C442.133 51.6689 441.982 50.9671 441.982 50.165C441.982 48.9163 442.308 47.9456 442.96 47.2529C443.612 46.5602 444.528 46.2139 445.708 46.2139C446.442 46.2139 447.089 46.3734 447.649 46.6924C448.21 47.0114 448.641 47.4694 448.941 48.0664C449.242 48.6634 449.393 49.363 449.393 50.165ZM458.17 54H456.085V49.5361C456.085 48.9847 455.987 48.5723 455.791 48.2988C455.595 48.0208 455.283 47.8818 454.854 47.8818C454.271 47.8818 453.85 48.0778 453.59 48.4697C453.33 48.8571 453.2 49.502 453.2 50.4043V54H451.115V46.3574H452.708L452.988 47.335H453.104C453.337 46.9658 453.656 46.6878 454.062 46.501C454.472 46.3096 454.937 46.2139 455.456 46.2139C456.345 46.2139 457.019 46.4554 457.479 46.9385C457.94 47.417 458.17 48.1097 458.17 49.0166V54ZM468.178 47.9229H466.373V54H464.288V47.9229H463.14V46.918L464.288 46.3574V45.7969C464.288 44.9264 464.502 44.2907 464.931 43.8896C465.359 43.4886 466.045 43.2881 466.988 43.2881C467.708 43.2881 468.349 43.3952 468.909 43.6094L468.376 45.1406C467.957 45.0085 467.569 44.9424 467.214 44.9424C466.918 44.9424 466.703 45.0312 466.571 45.209C466.439 45.3822 466.373 45.6055 466.373 45.8789V46.3574H468.178V47.9229ZM471.042 50.165C471.042 50.9215 471.165 51.4935 471.411 51.8809C471.662 52.2682 472.067 52.4619 472.628 52.4619C473.184 52.4619 473.583 52.2705 473.824 51.8877C474.07 51.5003 474.193 50.9261 474.193 50.165C474.193 49.4085 474.07 48.8411 473.824 48.4629C473.578 48.0846 473.175 47.8955 472.614 47.8955C472.058 47.8955 471.657 48.0846 471.411 48.4629C471.165 48.8366 471.042 49.404 471.042 50.165ZM476.326 50.165C476.326 51.4092 475.998 52.3822 475.342 53.084C474.686 53.7858 473.772 54.1367 472.601 54.1367C471.867 54.1367 471.22 53.9772 470.659 53.6582C470.099 53.3346 469.668 52.8721 469.367 52.2705C469.066 51.6689 468.916 50.9671 468.916 50.165C468.916 48.9163 469.242 47.9456 469.894 47.2529C470.545 46.5602 471.461 46.2139 472.642 46.2139C473.375 46.2139 474.022 46.3734 474.583 46.6924C475.144 47.0114 475.574 47.4694 475.875 48.0664C476.176 48.6634 476.326 49.363 476.326 50.165ZM482.314 46.2139C482.597 46.2139 482.832 46.2344 483.019 46.2754L482.861 48.2305C482.693 48.1849 482.488 48.1621 482.246 48.1621C481.581 48.1621 481.061 48.333 480.688 48.6748C480.318 49.0166 480.134 49.4951 480.134 50.1104V54H478.049V46.3574H479.628L479.936 47.6426H480.038C480.275 47.2142 480.594 46.8701 480.995 46.6104C481.401 46.346 481.84 46.2139 482.314 46.2139ZM492.896 54L492.493 52.9609H492.438C492.088 53.403 491.725 53.7106 491.352 53.8838C490.982 54.0524 490.499 54.1367 489.902 54.1367C489.169 54.1367 488.59 53.9271 488.166 53.5078C487.747 53.0885 487.537 52.4915 487.537 51.7168C487.537 50.9056 487.82 50.3086 488.385 49.9258C488.954 49.5384 489.811 49.3242 490.955 49.2832L492.281 49.2422V48.9072C492.281 48.1325 491.885 47.7451 491.092 47.7451C490.481 47.7451 489.763 47.9297 488.938 48.2988L488.248 46.8906C489.128 46.4303 490.103 46.2002 491.174 46.2002C492.199 46.2002 492.985 46.4235 493.532 46.8701C494.079 47.3167 494.353 47.9958 494.353 48.9072V54H492.896ZM492.281 50.459L491.475 50.4863C490.868 50.5046 490.417 50.6139 490.121 50.8145C489.825 51.015 489.677 51.3203 489.677 51.7305C489.677 52.3184 490.014 52.6123 490.688 52.6123C491.172 52.6123 491.557 52.4733 491.844 52.1953C492.135 51.9173 492.281 51.5482 492.281 51.0879V50.459ZM498.926 54.1367C498.028 54.1367 497.322 53.7881 496.807 53.0908C496.296 52.3936 496.041 51.4274 496.041 50.1924C496.041 48.9391 496.301 47.9639 496.82 47.2666C497.344 46.5648 498.064 46.2139 498.98 46.2139C499.942 46.2139 500.676 46.5876 501.182 47.335H501.25C501.145 46.7653 501.093 46.2572 501.093 45.8105V43.3633H503.185V54H501.585L501.182 53.0088H501.093C500.619 53.7607 499.896 54.1367 498.926 54.1367ZM499.657 52.4756C500.19 52.4756 500.58 52.3206 500.826 52.0107C501.077 51.7008 501.214 51.1745 501.236 50.4316V50.2061C501.236 49.3857 501.109 48.7979 500.854 48.4424C500.603 48.0869 500.193 47.9092 499.623 47.9092C499.158 47.9092 498.796 48.1074 498.536 48.5039C498.281 48.8958 498.153 49.4678 498.153 50.2197C498.153 50.9717 498.283 51.5368 498.543 51.915C498.803 52.2887 499.174 52.4756 499.657 52.4756ZM507.785 54.1367C506.887 54.1367 506.181 53.7881 505.666 53.0908C505.156 52.3936 504.9 51.4274 504.9 50.1924C504.9 48.9391 505.16 47.9639 505.68 47.2666C506.204 46.5648 506.924 46.2139 507.84 46.2139C508.801 46.2139 509.535 46.5876 510.041 47.335H510.109C510.005 46.7653 509.952 46.2572 509.952 45.8105V43.3633H512.044V54H510.444L510.041 53.0088H509.952C509.478 53.7607 508.756 54.1367 507.785 54.1367ZM508.517 52.4756C509.05 52.4756 509.439 52.3206 509.686 52.0107C509.936 51.7008 510.073 51.1745 510.096 50.4316V50.2061C510.096 49.3857 509.968 48.7979 509.713 48.4424C509.462 48.0869 509.052 47.9092 508.482 47.9092C508.018 47.9092 507.655 48.1074 507.396 48.5039C507.14 48.8958 507.013 49.4678 507.013 50.2197C507.013 50.9717 507.143 51.5368 507.402 51.915C507.662 52.2887 508.034 52.4756 508.517 52.4756ZM448.436 73H446.351V68.5361C446.351 67.9847 446.253 67.5723 446.057 67.2988C445.861 67.0208 445.549 66.8818 445.12 66.8818C444.537 66.8818 444.115 67.0778 443.855 67.4697C443.596 67.8571 443.466 68.502 443.466 69.4043V73H441.381V65.3574H442.974L443.254 66.335H443.37C443.603 65.9658 443.922 65.6878 444.327 65.501C444.737 65.3096 445.202 65.2139 445.722 65.2139C446.61 65.2139 447.285 65.4554 447.745 65.9385C448.205 66.417 448.436 67.1097 448.436 68.0166V73ZM453.747 66.6973C453.305 66.6973 452.959 66.8385 452.708 67.1211C452.457 67.3991 452.314 67.7956 452.277 68.3105H455.203C455.194 67.7956 455.06 67.3991 454.8 67.1211C454.54 66.8385 454.189 66.6973 453.747 66.6973ZM454.041 73.1367C452.811 73.1367 451.849 72.7972 451.156 72.1182C450.464 71.4391 450.117 70.4775 450.117 69.2334C450.117 67.9528 450.436 66.9639 451.074 66.2666C451.717 65.5648 452.603 65.2139 453.733 65.2139C454.813 65.2139 455.654 65.5215 456.256 66.1367C456.857 66.752 457.158 67.6019 457.158 68.6865V69.6982H452.229C452.252 70.2907 452.428 70.7533 452.756 71.0859C453.084 71.4186 453.544 71.585 454.137 71.585C454.597 71.585 455.032 71.5371 455.442 71.4414C455.853 71.3457 456.281 71.193 456.728 70.9834V72.5967C456.363 72.779 455.973 72.9134 455.559 73C455.144 73.0911 454.638 73.1367 454.041 73.1367ZM465.136 73L464.548 70.3271L463.755 66.9502H463.707L462.312 73H460.07L457.896 65.3574H459.975L460.856 68.7412C460.998 69.3473 461.141 70.1836 461.287 71.25H461.328C461.346 70.9036 461.426 70.3545 461.567 69.6025L461.677 69.0215L462.62 65.3574H464.917L465.812 69.0215C465.831 69.1217 465.858 69.2699 465.895 69.4658C465.936 69.6618 465.974 69.8714 466.011 70.0947C466.047 70.3135 466.079 70.5299 466.106 70.7441C466.138 70.9538 466.157 71.1224 466.161 71.25H466.202C466.243 70.9219 466.316 70.473 466.421 69.9033C466.526 69.3291 466.601 68.9417 466.646 68.7412L467.562 65.3574H469.606L467.405 73H465.136ZM481.132 65.3574V66.417L479.936 66.7246C480.154 67.0664 480.264 67.4492 480.264 67.873C480.264 68.6934 479.977 69.3337 479.402 69.7939C478.833 70.2497 478.04 70.4775 477.023 70.4775L476.647 70.457L476.34 70.4229C476.126 70.5869 476.019 70.7692 476.019 70.9697C476.019 71.2705 476.401 71.4209 477.167 71.4209H478.466C479.304 71.4209 479.942 71.6009 480.38 71.9609C480.822 72.321 481.043 72.8496 481.043 73.5469C481.043 74.4401 480.669 75.1328 479.922 75.625C479.179 76.1172 478.11 76.3633 476.716 76.3633C475.649 76.3633 474.834 76.1764 474.269 75.8027C473.708 75.4336 473.428 74.9141 473.428 74.2441C473.428 73.7839 473.571 73.3988 473.858 73.0889C474.146 72.779 474.567 72.5579 475.123 72.4258C474.909 72.3346 474.722 72.1865 474.562 71.9814C474.403 71.7718 474.323 71.5508 474.323 71.3184C474.323 71.0267 474.408 70.7852 474.576 70.5938C474.745 70.3978 474.989 70.2064 475.308 70.0195C474.907 69.8464 474.588 69.5684 474.351 69.1855C474.118 68.8027 474.002 68.3516 474.002 67.832C474.002 66.998 474.273 66.3532 474.815 65.8975C475.358 65.4417 476.132 65.2139 477.14 65.2139C477.354 65.2139 477.607 65.2344 477.898 65.2754C478.195 65.3118 478.384 65.3392 478.466 65.3574H481.132ZM475.232 74.0801C475.232 74.3672 475.369 74.5928 475.643 74.7568C475.921 74.9209 476.308 75.0029 476.805 75.0029C477.552 75.0029 478.138 74.9004 478.562 74.6953C478.985 74.4902 479.197 74.21 479.197 73.8545C479.197 73.5674 479.072 73.3691 478.821 73.2598C478.571 73.1504 478.183 73.0957 477.659 73.0957H476.579C476.196 73.0957 475.875 73.1846 475.615 73.3623C475.36 73.5446 475.232 73.7839 475.232 74.0801ZM475.991 67.8594C475.991 68.2741 476.085 68.6022 476.271 68.8438C476.463 69.0853 476.752 69.2061 477.14 69.2061C477.532 69.2061 477.819 69.0853 478.001 68.8438C478.183 68.6022 478.274 68.2741 478.274 67.8594C478.274 66.9388 477.896 66.4785 477.14 66.4785C476.374 66.4785 475.991 66.9388 475.991 67.8594ZM484.058 69.165C484.058 69.9215 484.181 70.4935 484.427 70.8809C484.677 71.2682 485.083 71.4619 485.644 71.4619C486.2 71.4619 486.598 71.2705 486.84 70.8877C487.086 70.5003 487.209 69.9261 487.209 69.165C487.209 68.4085 487.086 67.8411 486.84 67.4629C486.594 67.0846 486.19 66.8955 485.63 66.8955C485.074 66.8955 484.673 67.0846 484.427 67.4629C484.181 67.8366 484.058 68.404 484.058 69.165ZM489.342 69.165C489.342 70.4092 489.014 71.3822 488.357 72.084C487.701 72.7858 486.787 73.1367 485.616 73.1367C484.882 73.1367 484.235 72.9772 483.675 72.6582C483.114 72.3346 482.684 71.8721 482.383 71.2705C482.082 70.6689 481.932 69.9671 481.932 69.165C481.932 67.9163 482.257 66.9456 482.909 66.2529C483.561 65.5602 484.477 65.2139 485.657 65.2139C486.391 65.2139 487.038 65.3734 487.599 65.6924C488.159 66.0114 488.59 66.4694 488.891 67.0664C489.191 67.6634 489.342 68.363 489.342 69.165ZM495.918 73L495.515 71.9609H495.46C495.109 72.403 494.747 72.7106 494.373 72.8838C494.004 73.0524 493.521 73.1367 492.924 73.1367C492.19 73.1367 491.611 72.9271 491.188 72.5078C490.768 72.0885 490.559 71.4915 490.559 70.7168C490.559 69.9056 490.841 69.3086 491.406 68.9258C491.976 68.5384 492.833 68.3242 493.977 68.2832L495.303 68.2422V67.9072C495.303 67.1325 494.906 66.7451 494.113 66.7451C493.503 66.7451 492.785 66.9297 491.96 67.2988L491.27 65.8906C492.149 65.4303 493.124 65.2002 494.195 65.2002C495.221 65.2002 496.007 65.4235 496.554 65.8701C497.101 66.3167 497.374 66.9958 497.374 67.9072V73H495.918ZM495.303 69.459L494.496 69.4863C493.89 69.5046 493.439 69.6139 493.143 69.8145C492.846 70.015 492.698 70.3203 492.698 70.7305C492.698 71.3184 493.035 71.6123 493.71 71.6123C494.193 71.6123 494.578 71.4733 494.865 71.1953C495.157 70.9173 495.303 70.5482 495.303 70.0879V69.459ZM501.612 73H499.527V62.3633H501.612V73Z" fill="#1F3948"/>
<path d="M818.326 48.5L873.5 1.96234L928.674 48.5L873.5 95.0377L818.326 48.5Z" fill="#F9F9F9" stroke="#E7AFB8" stroke-width="3"/>
<path d="M847.154 52.2246C847.154 53.127 846.828 53.8379 846.177 54.3574C845.53 54.877 844.627 55.1367 843.47 55.1367C842.403 55.1367 841.46 54.9362 840.64 54.5352V52.5664C841.314 52.8672 841.884 53.0791 842.349 53.2021C842.818 53.3252 843.246 53.3867 843.634 53.3867C844.099 53.3867 844.454 53.2979 844.7 53.1201C844.951 52.9424 845.076 52.6781 845.076 52.3271C845.076 52.1312 845.021 51.958 844.912 51.8076C844.803 51.6527 844.641 51.5046 844.427 51.3633C844.217 51.222 843.786 50.9964 843.135 50.6865C842.524 50.3994 842.066 50.1237 841.761 49.8594C841.455 49.5951 841.212 49.2874 841.029 48.9365C840.847 48.5856 840.756 48.1755 840.756 47.7061C840.756 46.8219 841.054 46.127 841.651 45.6211C842.253 45.1152 843.082 44.8623 844.14 44.8623C844.659 44.8623 845.154 44.9238 845.623 45.0469C846.097 45.1699 846.591 45.3431 847.106 45.5664L846.423 47.2139C845.89 46.9951 845.448 46.8424 845.097 46.7559C844.75 46.6693 844.409 46.626 844.071 46.626C843.67 46.626 843.363 46.7194 843.148 46.9062C842.934 47.0931 842.827 47.3369 842.827 47.6377C842.827 47.8245 842.87 47.9886 842.957 48.1299C843.044 48.2666 843.18 48.401 843.367 48.5332C843.559 48.6608 844.007 48.8932 844.714 49.2305C845.648 49.6771 846.288 50.126 846.635 50.5771C846.981 51.0238 847.154 51.5729 847.154 52.2246ZM853.655 55L853.252 53.9609H853.197C852.846 54.403 852.484 54.7106 852.11 54.8838C851.741 55.0524 851.258 55.1367 850.661 55.1367C849.927 55.1367 849.349 54.9271 848.925 54.5078C848.506 54.0885 848.296 53.4915 848.296 52.7168C848.296 51.9056 848.578 51.3086 849.144 50.9258C849.713 50.5384 850.57 50.3242 851.714 50.2832L853.04 50.2422V49.9072C853.04 49.1325 852.644 48.7451 851.851 48.7451C851.24 48.7451 850.522 48.9297 849.697 49.2988L849.007 47.8906C849.886 47.4303 850.862 47.2002 851.933 47.2002C852.958 47.2002 853.744 47.4235 854.291 47.8701C854.838 48.3167 855.111 48.9958 855.111 49.9072V55H853.655ZM853.04 51.459L852.233 51.4863C851.627 51.5046 851.176 51.6139 850.88 51.8145C850.584 52.015 850.436 52.3203 850.436 52.7305C850.436 53.3184 850.773 53.6123 851.447 53.6123C851.93 53.6123 852.315 53.4733 852.603 53.1953C852.894 52.9173 853.04 52.5482 853.04 52.0879V51.459ZM860.484 53.4756C860.849 53.4756 861.286 53.3958 861.797 53.2363V54.7881C861.277 55.0205 860.639 55.1367 859.883 55.1367C859.049 55.1367 858.44 54.9271 858.058 54.5078C857.679 54.084 857.49 53.4505 857.49 52.6074V48.9229H856.492V48.041L857.641 47.3438L858.242 45.7305H859.575V47.3574H861.715V48.9229H859.575V52.6074C859.575 52.9036 859.657 53.1224 859.821 53.2637C859.99 53.4049 860.211 53.4756 860.484 53.4756ZM863.26 45.3818C863.26 44.7028 863.638 44.3633 864.395 44.3633C865.151 44.3633 865.529 44.7028 865.529 45.3818C865.529 45.7054 865.434 45.9583 865.242 46.1406C865.055 46.3184 864.773 46.4072 864.395 46.4072C863.638 46.4072 863.26 46.0654 863.26 45.3818ZM865.434 55H863.349V47.3574H865.434V55ZM872.96 52.7305C872.96 53.5143 872.687 54.1113 872.14 54.5215C871.597 54.9316 870.784 55.1367 869.699 55.1367C869.143 55.1367 868.669 55.098 868.277 55.0205C867.885 54.9476 867.519 54.8382 867.177 54.6924V52.9697C867.564 53.152 867.999 53.3047 868.482 53.4277C868.97 53.5508 869.398 53.6123 869.768 53.6123C870.524 53.6123 870.902 53.3936 870.902 52.9561C870.902 52.792 870.852 52.6598 870.752 52.5596C870.652 52.4548 870.479 52.3385 870.232 52.2109C869.986 52.0788 869.658 51.9261 869.248 51.7529C868.66 51.5068 868.227 51.279 867.949 51.0693C867.676 50.8597 867.475 50.6204 867.348 50.3516C867.225 50.0781 867.163 49.7432 867.163 49.3467C867.163 48.6676 867.425 48.1436 867.949 47.7744C868.478 47.4007 869.225 47.2139 870.191 47.2139C871.112 47.2139 872.007 47.4144 872.878 47.8154L872.249 49.3193C871.866 49.1553 871.508 49.0208 871.176 48.916C870.843 48.8112 870.504 48.7588 870.157 48.7588C869.542 48.7588 869.234 48.9251 869.234 49.2578C869.234 49.4447 869.332 49.6064 869.528 49.7432C869.729 49.8799 870.164 50.0827 870.834 50.3516C871.431 50.5931 871.868 50.8187 872.146 51.0283C872.424 51.238 872.63 51.4795 872.762 51.7529C872.894 52.0264 872.96 52.3522 872.96 52.7305ZM878.812 48.9229H877.007V55H874.922V48.9229H873.773V47.918L874.922 47.3574V46.7969C874.922 45.9264 875.136 45.2907 875.564 44.8896C875.993 44.4886 876.679 44.2881 877.622 44.2881C878.342 44.2881 878.982 44.3952 879.543 44.6094L879.01 46.1406C878.59 46.0085 878.203 45.9424 877.848 45.9424C877.551 45.9424 877.337 46.0312 877.205 46.209C877.073 46.3822 877.007 46.6055 877.007 46.8789V47.3574H878.812V48.9229ZM879.919 45.3818C879.919 44.7028 880.297 44.3633 881.054 44.3633C881.81 44.3633 882.188 44.7028 882.188 45.3818C882.188 45.7054 882.093 45.9583 881.901 46.1406C881.715 46.3184 881.432 46.4072 881.054 46.4072C880.297 46.4072 879.919 46.0654 879.919 45.3818ZM882.093 55H880.008V47.3574H882.093V55ZM887.445 48.6973C887.003 48.6973 886.657 48.8385 886.406 49.1211C886.156 49.3991 886.012 49.7956 885.976 50.3105H888.901C888.892 49.7956 888.758 49.3991 888.498 49.1211C888.238 48.8385 887.887 48.6973 887.445 48.6973ZM887.739 55.1367C886.509 55.1367 885.547 54.7972 884.854 54.1182C884.162 53.4391 883.815 52.4775 883.815 51.2334C883.815 49.9528 884.134 48.9639 884.772 48.2666C885.415 47.5648 886.301 47.2139 887.432 47.2139C888.512 47.2139 889.353 47.5215 889.954 48.1367C890.556 48.752 890.856 49.6019 890.856 50.6865V51.6982H885.928C885.951 52.2907 886.126 52.7533 886.454 53.0859C886.782 53.4186 887.243 53.585 887.835 53.585C888.295 53.585 888.73 53.5371 889.141 53.4414C889.551 53.3457 889.979 53.193 890.426 52.9834V54.5967C890.061 54.779 889.672 54.9134 889.257 55C888.842 55.0911 888.336 55.1367 887.739 55.1367ZM894.972 55.1367C894.074 55.1367 893.368 54.7881 892.853 54.0908C892.342 53.3936 892.087 52.4274 892.087 51.1924C892.087 49.9391 892.347 48.9639 892.866 48.2666C893.39 47.5648 894.11 47.2139 895.026 47.2139C895.988 47.2139 896.722 47.5876 897.228 48.335H897.296C897.191 47.7653 897.139 47.2572 897.139 46.8105V44.3633H899.23V55H897.631L897.228 54.0088H897.139C896.665 54.7607 895.942 55.1367 894.972 55.1367ZM895.703 53.4756C896.236 53.4756 896.626 53.3206 896.872 53.0107C897.123 52.7008 897.259 52.1745 897.282 51.4316V51.2061C897.282 50.3857 897.155 49.7979 896.899 49.4424C896.649 49.0869 896.239 48.9092 895.669 48.9092C895.204 48.9092 894.842 49.1074 894.582 49.5039C894.327 49.8958 894.199 50.4678 894.199 51.2197C894.199 51.9717 894.329 52.5368 894.589 52.915C894.849 53.2887 895.22 53.4756 895.703 53.4756ZM902.204 51.6846V51.1787C902.204 50.7412 902.298 50.3607 902.484 50.0371C902.671 49.7135 903.013 49.3695 903.51 49.0049C903.988 48.6631 904.303 48.3851 904.453 48.1709C904.608 47.9567 904.686 47.7174 904.686 47.4531C904.686 47.1569 904.576 46.9313 904.357 46.7764C904.139 46.6214 903.833 46.5439 903.441 46.5439C902.758 46.5439 901.979 46.7673 901.104 47.2139L900.358 45.7168C901.375 45.1471 902.452 44.8623 903.592 44.8623C904.531 44.8623 905.276 45.0879 905.827 45.5391C906.383 45.9902 906.661 46.5918 906.661 47.3438C906.661 47.8451 906.547 48.278 906.319 48.6426C906.091 49.0072 905.659 49.4173 905.021 49.873C904.583 50.1966 904.305 50.4427 904.187 50.6113C904.073 50.7799 904.016 51.001 904.016 51.2744V51.6846H902.204ZM901.985 54.0225C901.985 53.6396 902.088 53.3503 902.293 53.1543C902.498 52.9583 902.797 52.8604 903.188 52.8604C903.567 52.8604 903.858 52.9606 904.063 53.1611C904.273 53.3617 904.378 53.6488 904.378 54.0225C904.378 54.3825 904.273 54.6673 904.063 54.877C903.854 55.082 903.562 55.1846 903.188 55.1846C902.806 55.1846 902.509 55.0843 902.3 54.8838C902.09 54.6787 901.985 54.3916 901.985 54.0225Z" fill="#1F3948"/>
<path d="M194.708 50.4903C195.098 50.0998 195.098 49.4666 194.708 49.0761L188.344 42.7121C187.953 42.3216 187.32 42.3216 186.93 42.7121C186.539 43.1027 186.539 43.7358 186.93 44.1263L192.586 49.7832L186.93 55.4401C186.539 55.8306 186.539 56.4637 186.93 56.8543C187.32 57.2448 187.953 57.2448 188.344 56.8543L194.708 50.4903ZM124.995 50.7832H194.001V48.7832H124.995V50.7832Z" fill="#F9F9F9"/>
<path d="M401.713 50.7071C402.103 50.3166 402.103 49.6834 401.713 49.2929L395.349 42.9289C394.958 42.5384 394.325 42.5384 393.934 42.9289C393.544 43.3195 393.544 43.9526 393.934 44.3431L399.591 50L393.934 55.6569C393.544 56.0474 393.544 56.6805 393.934 57.0711C394.325 57.4616 394.958 57.4616 395.349 57.0711L401.713 50.7071ZM332 51H401.005V49H332V51Z" fill="#F9F9F9"/>
<path d="M615.707 48.7071C616.098 48.3166 616.098 47.6834 615.707 47.2929L609.343 40.9289C608.953 40.5384 608.319 40.5384 607.929 40.9289C607.538 41.3195 607.538 41.9526 607.929 42.3431L613.586 48L607.929 53.6569C607.538 54.0474 607.538 54.6805 607.929 55.0711C608.319 55.4616 608.953 55.4616 609.343 55.0711L615.707 48.7071ZM539 49H615V47H539V49Z" fill="#F9F9F9"/>
<path d="M816.707 48.7071C817.098 48.3166 817.098 47.6834 816.707 47.2929L810.343 40.9289C809.953 40.5384 809.319 40.5384 808.929 40.9289C808.538 41.3195 808.538 41.9526 808.929 42.3431L814.586 48L808.929 53.6569C808.538 54.0474 808.538 54.6805 808.929 55.0711C809.319 55.4616 809.953 55.4616 810.343 55.0711L816.707 48.7071ZM753 49H816V47H753V49Z" fill="#F9F9F9"/>
<path d="M1076.72 50.7071C1077.11 50.3166 1077.11 49.6834 1076.72 49.2929L1070.35 42.9289C1069.96 42.5384 1069.33 42.5384 1068.94 42.9289C1068.55 43.3195 1068.55 43.9526 1068.94 44.3431L1074.59 50L1068.94 55.6569C1068.55 56.0474 1068.55 56.6805 1068.94 57.0711C1069.33 57.4616 1069.96 57.4616 1070.35 57.0711L1076.72 50.7071ZM1015 51H1076.01V49H1015V51Z" fill="#F9F9F9"/>
<line x1="931" y1="49" x2="980" y2="49" stroke="#F9F9F9" stroke-width="2"/>
<path d="M987.885 47.1211L989.97 43.0059H992.253L988.938 49.1104V53H986.832V49.1787L983.517 43.0059H985.813L987.885 47.1211ZM996.512 46.6973C996.07 46.6973 995.723 46.8385 995.473 47.1211C995.222 47.3991 995.078 47.7956 995.042 48.3105H997.968C997.959 47.7956 997.824 47.3991 997.564 47.1211C997.305 46.8385 996.954 46.6973 996.512 46.6973ZM996.806 53.1367C995.575 53.1367 994.614 52.7972 993.921 52.1182C993.228 51.4391 992.882 50.4775 992.882 49.2334C992.882 47.9528 993.201 46.9639 993.839 46.2666C994.481 45.5648 995.368 45.2139 996.498 45.2139C997.578 45.2139 998.419 45.5215 999.021 46.1367C999.622 46.752 999.923 47.6019 999.923 48.6865V49.6982H994.994C995.017 50.2907 995.192 50.7533 995.521 51.0859C995.849 51.4186 996.309 51.585 996.901 51.585C997.362 51.585 997.797 51.5371 998.207 51.4414C998.617 51.3457 999.046 51.193 999.492 50.9834V52.5967C999.128 52.779 998.738 52.9134 998.323 53C997.909 53.0911 997.403 53.1367 996.806 53.1367ZM1006.95 50.7305C1006.95 51.5143 1006.68 52.1113 1006.13 52.5215C1005.59 52.9316 1004.77 53.1367 1003.69 53.1367C1003.13 53.1367 1002.66 53.098 1002.27 53.0205C1001.88 52.9476 1001.51 52.8382 1001.17 52.6924V50.9697C1001.55 51.152 1001.99 51.3047 1002.47 51.4277C1002.96 51.5508 1003.39 51.6123 1003.76 51.6123C1004.51 51.6123 1004.89 51.3936 1004.89 50.9561C1004.89 50.792 1004.84 50.6598 1004.74 50.5596C1004.64 50.4548 1004.47 50.3385 1004.22 50.2109C1003.98 50.0788 1003.65 49.9261 1003.24 49.7529C1002.65 49.5068 1002.22 49.279 1001.94 49.0693C1001.67 48.8597 1001.47 48.6204 1001.34 48.3516C1001.21 48.0781 1001.15 47.7432 1001.15 47.3467C1001.15 46.6676 1001.42 46.1436 1001.94 45.7744C1002.47 45.4007 1003.22 45.2139 1004.18 45.2139C1005.1 45.2139 1006 45.4144 1006.87 45.8154L1006.24 47.3193C1005.86 47.1553 1005.5 47.0208 1005.17 46.916C1004.83 46.8112 1004.49 46.7588 1004.15 46.7588C1003.53 46.7588 1003.22 46.9251 1003.22 47.2578C1003.22 47.4447 1003.32 47.6064 1003.52 47.7432C1003.72 47.8799 1004.15 48.0827 1004.82 48.3516C1005.42 48.5931 1005.86 48.8187 1006.14 49.0283C1006.41 49.238 1006.62 49.4795 1006.75 49.7529C1006.88 50.0264 1006.95 50.3522 1006.95 50.7305Z" fill="#F9F9F9"/>
<path d="M873.596 155H870.902L866.555 147.439H866.493C866.58 148.775 866.623 149.727 866.623 150.297V155H864.729V145.006H867.402L871.743 152.491H871.791C871.723 151.192 871.688 150.274 871.688 149.736V145.006H873.596V155ZM877.615 151.165C877.615 151.922 877.738 152.493 877.984 152.881C878.235 153.268 878.641 153.462 879.201 153.462C879.757 153.462 880.156 153.271 880.397 152.888C880.644 152.5 880.767 151.926 880.767 151.165C880.767 150.409 880.644 149.841 880.397 149.463C880.151 149.085 879.748 148.896 879.188 148.896C878.632 148.896 878.23 149.085 877.984 149.463C877.738 149.837 877.615 150.404 877.615 151.165ZM882.899 151.165C882.899 152.409 882.571 153.382 881.915 154.084C881.259 154.786 880.345 155.137 879.174 155.137C878.44 155.137 877.793 154.977 877.232 154.658C876.672 154.335 876.241 153.872 875.94 153.271C875.64 152.669 875.489 151.967 875.489 151.165C875.489 149.916 875.815 148.946 876.467 148.253C877.118 147.56 878.035 147.214 879.215 147.214C879.949 147.214 880.596 147.373 881.156 147.692C881.717 148.011 882.147 148.469 882.448 149.066C882.749 149.663 882.899 150.363 882.899 151.165Z" fill="#F9F9F9"/>
<line x1="875" y1="97" x2="875" y2="140" stroke="#F9F9F9" stroke-width="2"/>
<line x1="855.994" y1="152" x2="685.994" y2="150.903" stroke="#F9F9F9" stroke-width="2"/>
<path d="M686.707 85.2929C686.317 84.9024 685.683 84.9024 685.293 85.2929L678.929 91.6569C678.538 92.0474 678.538 92.6805 678.929 93.0711C679.319 93.4616 679.953 93.4616 680.343 93.0711L686 87.4142L691.657 93.0711C692.047 93.4616 692.681 93.4616 693.071 93.0711C693.462 92.6805 693.462 92.0474 693.071 91.6569L686.707 85.2929ZM687 150V86H685V150H687Z" fill="#F9F9F9"/>
</svg>
