<svg width="36" height="24" viewBox="0 0 36 24" fill="none" xmlns="http://www.w3.org/2000/svg">
<path d="M16.2464 11.9428L1.37144 3.8032C0.343311 3.24062 0.343311 2.3309 1.37144 1.7743L3.84331 0.421696C4.87144 -0.140891 6.53394 -0.140891 7.55112 0.421696L18.0949 6.19121L28.6386 0.421696C29.6667 -0.140891 31.3293 -0.140891 32.3464 0.421696L34.8402 1.76831C35.8683 2.3309 35.8683 3.24062 34.8402 3.79722L19.9652 11.9368C18.9371 12.5054 17.2746 12.5054 16.2464 11.9428ZM19.9652 23.4339L34.8402 15.2943C35.8683 14.7318 35.8683 13.822 34.8402 13.2654L32.3683 11.9128C31.3402 11.3503 29.6777 11.3503 28.6605 11.9128L18.1058 17.6764L7.56206 11.9069C6.53394 11.3443 4.87144 11.3443 3.85425 11.9069L1.37144 13.2595C0.343311 13.822 0.343311 14.7318 1.37144 15.2884L16.2464 23.4279C17.2746 23.9965 18.9371 23.9965 19.9652 23.4339Z" fill="#91B7CF"/>
</svg>
