<svg width="35" height="32" viewBox="0 0 35 32" fill="none" xmlns="http://www.w3.org/2000/svg">
<g clip-path="url(#clip0)">
<path d="M15.6407 16.0187L0.765723 7.51875C-0.262402 6.93125 -0.262402 5.98125 0.765723 5.4L3.2376 3.9875C4.26572 3.4 5.92822 3.4 6.94541 3.9875L17.4892 10.0125L28.0329 3.9875C29.061 3.4 30.7235 3.4 31.7407 3.9875L34.2345 5.39375C35.2626 5.98125 35.2626 6.93125 34.2345 7.5125L19.3595 16.0125C18.3313 16.6063 16.6688 16.6062 15.6407 16.0187ZM19.3595 28.0187L34.2345 19.5187C35.2626 18.9312 35.2626 17.9812 34.2345 17.4L31.7626 15.9875C30.7345 15.4 29.072 15.4 28.0548 15.9875L17.5001 22.0063L6.95635 15.9812C5.92822 15.3938 4.26572 15.3938 3.24854 15.9812L0.765723 17.3937C-0.262402 17.9812 -0.262402 18.9313 0.765723 19.5125L15.6407 28.0125C16.6688 28.6063 18.3313 28.6062 19.3595 28.0187Z" fill="#9B0656"/>
</g>
<defs>
<clipPath id="clip0">
<rect width="35" height="32" fill="white"/>
</clipPath>
</defs>
</svg>
