<svg width="35" height="26" viewBox="0 0 35 26" fill="none" xmlns="http://www.w3.org/2000/svg">
<path d="M15.6407 13.0187L0.765723 4.51875C-0.262402 3.93125 -0.262402 2.98125 0.765723 2.4L3.2376 0.9875C4.26572 0.4 5.92822 0.4 6.94541 0.9875L17.4892 7.0125L28.0329 0.9875C29.061 0.4 30.7235 0.4 31.7407 0.9875L34.2345 2.39375C35.2626 2.98125 35.2626 3.93125 34.2345 4.5125L19.3595 13.0125C18.3313 13.6063 16.6688 13.6062 15.6407 13.0187ZM19.3595 25.0187L34.2345 16.5187C35.2626 15.9312 35.2626 14.9812 34.2345 14.4L31.7626 12.9875C30.7345 12.4 29.072 12.4 28.0548 12.9875L17.5001 19.0063L6.95635 12.9812C5.92822 12.3938 4.26572 12.3938 3.24854 12.9812L0.765723 14.3937C-0.262402 14.9812 -0.262402 15.9313 0.765723 16.5125L15.6407 25.0125C16.6688 25.6063 18.3313 25.6062 19.3595 25.0187Z" fill="#9B0656"/>
</svg>
