<svg width="30" height="30" viewBox="0 0 30 30" fill="none" xmlns="http://www.w3.org/2000/svg">
<path d="M14.5312 0C6.51867 0 0 6.51867 0 14.5312C0 22.5438 6.51867 29.0625 14.5312 29.0625C22.5438 29.0625 29.0625 22.5438 29.0625 14.5312C29.0625 6.51867 22.5438 0 14.5312 0ZM24.1389 6.70113C25.8676 8.8132 26.9144 11.5033 26.9417 14.4329C26.5325 14.3463 22.4289 13.514 18.299 14.0334C17.962 13.2107 17.6439 12.4869 17.2082 11.5951C21.7973 9.72141 23.8772 7.0551 24.1389 6.70113ZM22.759 5.26582C22.5358 5.58381 20.6674 8.09508 16.2539 9.74936C14.22 6.01248 11.9657 2.94264 11.6227 2.48326C15.5588 1.53445 19.7066 2.55768 22.759 5.26582ZM9.25436 3.31758C9.5816 3.76635 11.7996 6.84 13.8561 10.4958C8.05025 12.0376 2.9366 12.0154 2.38148 12.0081C3.18633 8.15654 5.78191 4.95545 9.25436 3.31758ZM2.11934 14.5502C2.11934 14.4233 2.12186 14.2969 2.12566 14.1709C2.66871 14.182 8.68348 14.2596 14.8819 12.4045C15.2372 13.0999 15.5766 13.8058 15.8882 14.5109C11.3999 15.7751 7.32211 19.4051 5.31018 22.8492C3.32777 20.6487 2.11934 17.7381 2.11934 14.5502ZM6.91271 24.342C8.20922 21.6916 11.7278 18.2704 16.7318 16.5633C18.4744 21.0916 19.195 24.8867 19.3796 25.9757C15.3887 27.6756 10.5896 27.2092 6.91271 24.342ZM21.4662 24.8394C21.339 24.0843 20.6784 20.4509 19.055 15.9898C22.9444 15.3671 26.3616 16.3863 26.7863 16.5203C26.233 19.9739 24.2507 22.9565 21.4662 24.8394Z" fill="#F9F9F9"/>
</svg>
