<svg width="30" height="28" viewBox="0 0 30 28" fill="none" xmlns="http://www.w3.org/2000/svg">
<path d="M27.8571 0.875H2.13616C0.957589 0.875 0 1.72461 0 2.76758V25.2324C0 26.2754 0.957589 27.125 2.13616 27.125H27.8571C29.0357 27.125 30 26.2754 30 25.2324V2.76758C30 1.72461 29.0357 0.875 27.8571 0.875ZM9.06696 23.375H4.62054V10.8477H9.07366V23.375H9.06696ZM6.84375 9.13672C5.41741 9.13672 4.26562 8.12305 4.26562 6.88086C4.26562 5.63867 5.41741 4.625 6.84375 4.625C8.26339 4.625 9.42187 5.63867 9.42187 6.88086C9.42187 8.12891 8.27009 9.13672 6.84375 9.13672ZM25.7344 23.375H21.2879V17.2812C21.2879 15.8281 21.2545 13.959 18.9777 13.959C16.6607 13.959 16.3058 15.541 16.3058 17.1758V23.375H11.8594V10.8477H16.125V12.5586H16.1853C16.7812 11.5742 18.2344 10.5371 20.3973 10.5371C24.8973 10.5371 25.7344 13.1328 25.7344 16.5078V23.375Z" fill="#F9F9F9"/>
</svg>
