<svg width="30" height="51" viewBox="0 0 30 51" fill="none" xmlns="http://www.w3.org/2000/svg">
<mask id="mask0" mask-type="alpha" maskUnits="userSpaceOnUse" x="0" y="3" width="28" height="42">
<path d="M0.300049 40.6125C1.57505 40.7877 2.47505 40.875 3.00005 40.875C4.22506 40.875 5.06255 40.5751 5.51255 39.975C5.96255 39.375 6.18755 38.2999 6.18755 36.75V11.175H11.0251V36.75C11.0251 39.6 10.4876 41.6625 9.41255 42.9375C8.33754 44.2377 6.50004 44.8875 3.90005 44.8875C2.70005 44.8875 1.50005 44.7874 0.300049 44.5876V40.6125Z" fill="black"/>
<path d="M13.2376 34.0125H27.4501V37.875H7.83765V34.35L21.5626 15.0375H7.83765V11.175H27.0376V14.6625L13.2376 34.0125Z" fill="black"/>
<path fill-rule="evenodd" clip-rule="evenodd" d="M9 9C10.6569 9 12 7.65686 12 6C12 4.34314 10.6569 3 9 3C7.34314 3 6 4.34314 6 6C6 7.65686 7.34314 9 9 9Z" fill="black"/>
</mask>
<g mask="url(#mask0)">
<path fill-rule="evenodd" clip-rule="evenodd" d="M38.625 -3.37305H-8.25L38.2275 43.502L38.625 43.1011V-3.37305Z" fill="#91B7CF"/>
<path fill-rule="evenodd" clip-rule="evenodd" d="M-8.25 48.8912C6.19642 49.1819 20.4341 47.6155 38.625 43.498L-7.85246 -3.37708L-8.25 -2.97611V48.8912Z" fill="white"/>
</g>
</svg>
