<svg width="30" height="51" viewBox="0 0 30 51" fill="none" xmlns="http://www.w3.org/2000/svg">
<mask id="mask0" mask-type="alpha" maskUnits="userSpaceOnUse" x="0" y="3" width="28" height="42">
<path d="M0.300049 40.6123C1.57505 40.7874 2.47505 40.8748 3.00005 40.8748C4.22506 40.8748 5.06255 40.5748 5.51255 39.9748C5.96255 39.3748 6.18755 38.2997 6.18755 36.7498V11.1748H11.025V36.7498C11.025 39.5998 10.4876 41.6623 9.41255 42.9373C8.33754 44.2374 6.50004 44.8873 3.90005 44.8873C2.70005 44.8873 1.50005 44.7872 0.300049 44.5873V40.6123Z" fill="black"/>
<path d="M13.2376 34.0123H27.4501V37.8748H7.83765V34.3498L21.5626 15.0373H7.83765V11.1748H27.0376V14.6623L13.2376 34.0123Z" fill="black"/>
<path fill-rule="evenodd" clip-rule="evenodd" d="M9 8.25C10.4497 8.25 11.625 7.07475 11.625 5.625C11.625 4.17525 10.4497 3 9 3C7.55025 3 6.375 4.17525 6.375 5.625C6.375 7.07475 7.55025 8.25 9 8.25Z" fill="black"/>
</mask>
<g mask="url(#mask0)">
<path fill-rule="evenodd" clip-rule="evenodd" d="M38.625 -3.37305H-8.25L38.2275 43.502L38.625 43.1011V-3.37305Z" fill="#9B0656"/>
<path fill-rule="evenodd" clip-rule="evenodd" d="M-8.25 48.8914C6.19642 49.182 20.4341 47.6156 38.625 43.4981L-7.85246 -3.37695L-8.25 -2.97598V48.8914Z" fill="#1F3948"/>
</g>
</svg>
