<svg width="30" height="24" viewBox="0 0 30 24" fill="none" xmlns="http://www.w3.org/2000/svg">
<path d="M27.1875 0.75H2.8125C1.25918 0.75 0 2.00918 0 3.5625V20.4375C0 21.9908 1.25918 23.25 2.8125 23.25H27.1875C28.7408 23.25 30 21.9908 30 20.4375V3.5625C30 2.00918 28.7408 0.75 27.1875 0.75ZM27.1875 3.5625V5.95342C25.8737 7.02328 23.7792 8.68688 19.3015 12.1931C18.3148 12.9693 16.3601 14.834 15 14.8123C13.6402 14.8342 11.6848 12.969 10.6985 12.1931C6.22148 8.6874 4.12646 7.02346 2.8125 5.95342V3.5625H27.1875ZM2.8125 20.4375V9.56238C4.15512 10.6318 6.05912 12.1324 8.96121 14.4049C10.2419 15.413 12.4847 17.6385 15 17.6249C17.5029 17.6385 19.7173 15.4453 21.0383 14.4054C23.9403 12.1329 25.8448 10.6319 27.1875 9.56244V20.4375H2.8125Z" fill="#F9F9F9"/>
</svg>
