<svg width="20" height="21" viewBox="0 0 20 21" fill="none" xmlns="http://www.w3.org/2000/svg">
<path d="M9.72459 0.00379299C7.11828 0.0756028 4.64308 1.16249 2.82654 3.03283C1.00999 4.90317 -0.00423241 7.40903 2.50416e-05 10.0163C-0.00291793 11.3314 0.253567 12.6342 0.754795 13.85C1.25602 15.0659 1.99215 16.1709 2.92102 17.1018C3.8499 18.0328 4.95328 18.7714 6.168 19.2753C7.38271 19.7793 8.6849 20.0387 10 20.0387C11.3151 20.0387 12.6173 19.7793 13.832 19.2753C15.0467 18.7714 16.1501 18.0328 17.079 17.1018C18.0079 16.1709 18.744 15.0659 19.2452 13.85C19.7464 12.6342 20.0029 11.3314 20 10.0163C20.0022 8.67855 19.7359 7.35393 19.217 6.12091C18.698 4.88788 17.937 3.77152 16.9789 2.8379C16.0207 1.90429 14.885 1.17244 13.639 0.685622C12.3929 0.198808 11.0619 -0.0330486 9.72459 0.00379299V0.00379299ZM9.8909 4.57291C10.0488 4.56712 10.2063 4.59308 10.354 4.64925C10.5017 4.70541 10.6366 4.79066 10.7508 4.8999C10.865 5.00915 10.9561 5.14022 11.0187 5.2853C11.0813 5.43039 11.1142 5.58656 11.1154 5.74458V8.90788H14.2787C14.5914 8.90874 14.891 9.03357 15.1119 9.25501C15.3327 9.47645 15.4567 9.77641 15.4567 10.0891C15.4567 10.4019 15.3327 10.7018 15.1119 10.9233C14.891 11.1447 14.5914 11.2695 14.2787 11.2704H11.1154V14.4337C11.111 14.7441 10.9846 15.0403 10.7636 15.2582C10.5426 15.4761 10.2446 15.5983 9.93423 15.5983C9.62383 15.5983 9.3259 15.4761 9.10487 15.2582C8.88384 15.0403 8.75746 14.7441 8.75307 14.4337V11.2704H5.58953C5.2768 11.2695 4.97717 11.1447 4.75634 10.9233C4.53551 10.7018 4.4115 10.4019 4.4115 10.0891C4.4115 9.77641 4.53551 9.47645 4.75634 9.25501C4.97717 9.03357 5.2768 8.90874 5.58953 8.90788H8.75307V5.74458C8.75534 5.44033 8.87492 5.14868 9.08688 4.93042C9.29884 4.71215 9.58685 4.58409 9.8909 4.57291V4.57291Z" fill="#02547B"/>
</svg>
