<svg width="15" height="15" viewBox="0 0 15 15" fill="none" xmlns="http://www.w3.org/2000/svg">
<path d="M7.29343 0.00283925C5.3387 0.0565926 3.48231 0.870184 2.1199 2.27023C0.757492 3.67028 -0.0031743 5.54604 1.87812e-05 7.49772C-0.00218844 8.48214 0.190175 9.45735 0.566096 10.3674C0.942014 11.2776 1.49411 12.1048 2.19076 12.8016C2.88742 13.4985 3.71496 14.0514 4.62599 14.4286C5.53703 14.8058 6.51367 15 7.49999 15C8.48631 15 9.46296 14.8058 10.374 14.4286C11.285 14.0514 12.1126 13.4985 12.8092 12.8016C13.5059 12.1048 14.058 11.2776 14.4339 10.3674C14.8098 9.45735 15.0022 8.48214 15 7.49772C15.0016 6.49634 14.8019 5.5048 14.4127 4.58182C14.0235 3.65883 13.4527 2.82318 12.7342 2.12431C12.0155 1.42546 11.1637 0.877632 10.2292 0.513223C9.29466 0.148818 8.29641 -0.0247386 7.29343 0.00283925ZM7.41817 3.42306C7.53659 3.41872 7.65472 3.43816 7.76549 3.4802C7.87627 3.52224 7.97744 3.58606 8.06309 3.66783C8.14874 3.74961 8.21706 3.84772 8.26401 3.95632C8.31096 4.06493 8.33564 4.18183 8.33654 4.30011V6.66801H10.709C10.9435 6.66865 11.1682 6.76209 11.3339 6.92785C11.4995 7.09361 11.5925 7.31815 11.5925 7.55221C11.5925 7.78636 11.4995 8.01085 11.3339 8.17665C11.1682 8.34238 10.9435 8.4358 10.709 8.43648H8.33654V10.8044C8.33324 11.0367 8.23844 11.2584 8.07269 11.4215C7.90694 11.5847 7.68344 11.6761 7.45066 11.6761C7.21786 11.6761 6.99442 11.5847 6.82864 11.4215C6.66287 11.2584 6.56809 11.0367 6.56479 10.8044V8.43648H4.19214C3.95759 8.4358 3.73287 8.34238 3.56725 8.17665C3.40163 8.01085 3.30862 7.78636 3.30862 7.55221C3.30862 7.31815 3.40163 7.09361 3.56725 6.92785C3.73287 6.76209 3.95759 6.66865 4.19214 6.66801H6.56479V4.30011C6.5665 4.07237 6.65618 3.85405 6.81515 3.69067C6.97412 3.52729 7.19013 3.43143 7.41817 3.42306Z" fill="#02547B"/>
</svg>
